<?xml version="1.0" encoding="utf-8" standalone="no"?>
<!DOCTYPE svg PUBLIC "-//W3C//DTD SVG 1.1//EN"
  "http://www.w3.org/Graphics/SVG/1.1/DTD/svg11.dtd">
<svg xmlns:xlink="http://www.w3.org/1999/xlink" width="325.530625pt" height="316.344219pt" viewBox="0 0 325.530625 316.344219" xmlns="http://www.w3.org/2000/svg" version="1.1">
 <metadata>
  <rdf:RDF xmlns:dc="http://purl.org/dc/elements/1.1/" xmlns:cc="http://creativecommons.org/ns#" xmlns:rdf="http://www.w3.org/1999/02/22-rdf-syntax-ns#">
   <cc:Work>
    <dc:type rdf:resource="http://purl.org/dc/dcmitype/StillImage"/>
    <dc:date>2026-05-03T14:13:16.001590</dc:date>
    <dc:format>image/svg+xml</dc:format>
    <dc:creator>
     <cc:Agent>
      <dc:title>Matplotlib v3.10.8, https://matplotlib.org/</dc:title>
     </cc:Agent>
    </dc:creator>
   </cc:Work>
  </rdf:RDF>
 </metadata>
 <defs>
  <style type="text/css">*{stroke-linejoin: round; stroke-linecap: butt}</style>
 </defs>
 <g id="figure_1">
  <g id="patch_1">
   <path d="M 0 316.344219 
L 325.530625 316.344219 
L 325.530625 0 
L 0 0 
z
" style="fill: #ffffff"/>
  </g>
  <g id="axes_1">
   <g id="patch_2">
    <path d="M 39.330625 283.355875 
L 318.330625 283.355875 
L 318.330625 33.875875 
L 39.330625 33.875875 
z
" style="fill: #ffffff"/>
   </g>
   <g id="matplotlib.axis_1">
    <g id="xtick_1">
     <g id="line2d_1">
      <defs>
       <path id="mb24ea00c1c" d="M 0 0 
L 0 3.5 
" style="stroke: #000000; stroke-width: 0.8"/>
      </defs>
      <g>
       <use xlink:href="#mb24ea00c1c" x="109.080625" y="283.355875" style="stroke: #000000; stroke-width: 0.8"/>
      </g>
     </g>
     <g id="text_1">
      <!-- Both signals -->
      <g transform="translate(81.538516 297.194469) scale(0.09 -0.09)">
       <defs>
        <path id="DejaVuSans-42" d="M 1259 2228 
L 1259 519 
L 2272 519 
Q 2781 519 3026 730 
Q 3272 941 3272 1375 
Q 3272 1813 3026 2020 
Q 2781 2228 2272 2228 
L 1259 2228 
z
M 1259 4147 
L 1259 2741 
L 2194 2741 
Q 2656 2741 2882 2914 
Q 3109 3088 3109 3444 
Q 3109 3797 2882 3972 
Q 2656 4147 2194 4147 
L 1259 4147 
z
M 628 4666 
L 2241 4666 
Q 2963 4666 3353 4366 
Q 3744 4066 3744 3513 
Q 3744 3084 3544 2831 
Q 3344 2578 2956 2516 
Q 3422 2416 3680 2098 
Q 3938 1781 3938 1306 
Q 3938 681 3513 340 
Q 3088 0 2303 0 
L 628 0 
L 628 4666 
z
" transform="scale(0.015625)"/>
        <path id="DejaVuSans-6f" d="M 1959 3097 
Q 1497 3097 1228 2736 
Q 959 2375 959 1747 
Q 959 1119 1226 758 
Q 1494 397 1959 397 
Q 2419 397 2687 759 
Q 2956 1122 2956 1747 
Q 2956 2369 2687 2733 
Q 2419 3097 1959 3097 
z
M 1959 3584 
Q 2709 3584 3137 3096 
Q 3566 2609 3566 1747 
Q 3566 888 3137 398 
Q 2709 -91 1959 -91 
Q 1206 -91 779 398 
Q 353 888 353 1747 
Q 353 2609 779 3096 
Q 1206 3584 1959 3584 
z
" transform="scale(0.015625)"/>
        <path id="DejaVuSans-74" d="M 1172 4494 
L 1172 3500 
L 2356 3500 
L 2356 3053 
L 1172 3053 
L 1172 1153 
Q 1172 725 1289 603 
Q 1406 481 1766 481 
L 2356 481 
L 2356 0 
L 1766 0 
Q 1100 0 847 248 
Q 594 497 594 1153 
L 594 3053 
L 172 3053 
L 172 3500 
L 594 3500 
L 594 4494 
L 1172 4494 
z
" transform="scale(0.015625)"/>
        <path id="DejaVuSans-68" d="M 3513 2113 
L 3513 0 
L 2938 0 
L 2938 2094 
Q 2938 2591 2744 2837 
Q 2550 3084 2163 3084 
Q 1697 3084 1428 2787 
Q 1159 2491 1159 1978 
L 1159 0 
L 581 0 
L 581 4863 
L 1159 4863 
L 1159 2956 
Q 1366 3272 1645 3428 
Q 1925 3584 2291 3584 
Q 2894 3584 3203 3211 
Q 3513 2838 3513 2113 
z
" transform="scale(0.015625)"/>
        <path id="DejaVuSans-20" transform="scale(0.015625)"/>
        <path id="DejaVuSans-73" d="M 2834 3397 
L 2834 2853 
Q 2591 2978 2328 3040 
Q 2066 3103 1784 3103 
Q 1356 3103 1142 2972 
Q 928 2841 928 2578 
Q 928 2378 1081 2264 
Q 1234 2150 1697 2047 
L 1894 2003 
Q 2506 1872 2764 1633 
Q 3022 1394 3022 966 
Q 3022 478 2636 193 
Q 2250 -91 1575 -91 
Q 1294 -91 989 -36 
Q 684 19 347 128 
L 347 722 
Q 666 556 975 473 
Q 1284 391 1588 391 
Q 1994 391 2212 530 
Q 2431 669 2431 922 
Q 2431 1156 2273 1281 
Q 2116 1406 1581 1522 
L 1381 1569 
Q 847 1681 609 1914 
Q 372 2147 372 2553 
Q 372 3047 722 3315 
Q 1072 3584 1716 3584 
Q 2034 3584 2315 3537 
Q 2597 3491 2834 3397 
z
" transform="scale(0.015625)"/>
        <path id="DejaVuSans-69" d="M 603 3500 
L 1178 3500 
L 1178 0 
L 603 0 
L 603 3500 
z
M 603 4863 
L 1178 4863 
L 1178 4134 
L 603 4134 
L 603 4863 
z
" transform="scale(0.015625)"/>
        <path id="DejaVuSans-67" d="M 2906 1791 
Q 2906 2416 2648 2759 
Q 2391 3103 1925 3103 
Q 1463 3103 1205 2759 
Q 947 2416 947 1791 
Q 947 1169 1205 825 
Q 1463 481 1925 481 
Q 2391 481 2648 825 
Q 2906 1169 2906 1791 
z
M 3481 434 
Q 3481 -459 3084 -895 
Q 2688 -1331 1869 -1331 
Q 1566 -1331 1297 -1286 
Q 1028 -1241 775 -1147 
L 775 -588 
Q 1028 -725 1275 -790 
Q 1522 -856 1778 -856 
Q 2344 -856 2625 -561 
Q 2906 -266 2906 331 
L 2906 616 
Q 2728 306 2450 153 
Q 2172 0 1784 0 
Q 1141 0 747 490 
Q 353 981 353 1791 
Q 353 2603 747 3093 
Q 1141 3584 1784 3584 
Q 2172 3584 2450 3431 
Q 2728 3278 2906 2969 
L 2906 3500 
L 3481 3500 
L 3481 434 
z
" transform="scale(0.015625)"/>
        <path id="DejaVuSans-6e" d="M 3513 2113 
L 3513 0 
L 2938 0 
L 2938 2094 
Q 2938 2591 2744 2837 
Q 2550 3084 2163 3084 
Q 1697 3084 1428 2787 
Q 1159 2491 1159 1978 
L 1159 0 
L 581 0 
L 581 3500 
L 1159 3500 
L 1159 2956 
Q 1366 3272 1645 3428 
Q 1925 3584 2291 3584 
Q 2894 3584 3203 3211 
Q 3513 2838 3513 2113 
z
" transform="scale(0.015625)"/>
        <path id="DejaVuSans-61" d="M 2194 1759 
Q 1497 1759 1228 1600 
Q 959 1441 959 1056 
Q 959 750 1161 570 
Q 1363 391 1709 391 
Q 2188 391 2477 730 
Q 2766 1069 2766 1631 
L 2766 1759 
L 2194 1759 
z
M 3341 1997 
L 3341 0 
L 2766 0 
L 2766 531 
Q 2569 213 2275 61 
Q 1981 -91 1556 -91 
Q 1019 -91 701 211 
Q 384 513 384 1019 
Q 384 1609 779 1909 
Q 1175 2209 1959 2209 
L 2766 2209 
L 2766 2266 
Q 2766 2663 2505 2880 
Q 2244 3097 1772 3097 
Q 1472 3097 1187 3025 
Q 903 2953 641 2809 
L 641 3341 
Q 956 3463 1253 3523 
Q 1550 3584 1831 3584 
Q 2591 3584 2966 3190 
Q 3341 2797 3341 1997 
z
" transform="scale(0.015625)"/>
        <path id="DejaVuSans-6c" d="M 603 4863 
L 1178 4863 
L 1178 0 
L 603 0 
L 603 4863 
z
" transform="scale(0.015625)"/>
       </defs>
       <use xlink:href="#DejaVuSans-42"/>
       <use xlink:href="#DejaVuSans-6f" transform="translate(68.603516 0)"/>
       <use xlink:href="#DejaVuSans-74" transform="translate(129.785156 0)"/>
       <use xlink:href="#DejaVuSans-68" transform="translate(168.994141 0)"/>
       <use xlink:href="#DejaVuSans-20" transform="translate(232.373047 0)"/>
       <use xlink:href="#DejaVuSans-73" transform="translate(264.160156 0)"/>
       <use xlink:href="#DejaVuSans-69" transform="translate(316.259766 0)"/>
       <use xlink:href="#DejaVuSans-67" transform="translate(344.042969 0)"/>
       <use xlink:href="#DejaVuSans-6e" transform="translate(407.519531 0)"/>
       <use xlink:href="#DejaVuSans-61" transform="translate(470.898438 0)"/>
       <use xlink:href="#DejaVuSans-6c" transform="translate(532.177734 0)"/>
       <use xlink:href="#DejaVuSans-73" transform="translate(559.960938 0)"/>
      </g>
      <!-- (blend) -->
      <g transform="translate(92.984688 307.2725) scale(0.09 -0.09)">
       <defs>
        <path id="DejaVuSans-28" d="M 1984 4856 
Q 1566 4138 1362 3434 
Q 1159 2731 1159 2009 
Q 1159 1288 1364 580 
Q 1569 -128 1984 -844 
L 1484 -844 
Q 1016 -109 783 600 
Q 550 1309 550 2009 
Q 550 2706 781 3412 
Q 1013 4119 1484 4856 
L 1984 4856 
z
" transform="scale(0.015625)"/>
        <path id="DejaVuSans-62" d="M 3116 1747 
Q 3116 2381 2855 2742 
Q 2594 3103 2138 3103 
Q 1681 3103 1420 2742 
Q 1159 2381 1159 1747 
Q 1159 1113 1420 752 
Q 1681 391 2138 391 
Q 2594 391 2855 752 
Q 3116 1113 3116 1747 
z
M 1159 2969 
Q 1341 3281 1617 3432 
Q 1894 3584 2278 3584 
Q 2916 3584 3314 3078 
Q 3713 2572 3713 1747 
Q 3713 922 3314 415 
Q 2916 -91 2278 -91 
Q 1894 -91 1617 61 
Q 1341 213 1159 525 
L 1159 0 
L 581 0 
L 581 4863 
L 1159 4863 
L 1159 2969 
z
" transform="scale(0.015625)"/>
        <path id="DejaVuSans-65" d="M 3597 1894 
L 3597 1613 
L 953 1613 
Q 991 1019 1311 708 
Q 1631 397 2203 397 
Q 2534 397 2845 478 
Q 3156 559 3463 722 
L 3463 178 
Q 3153 47 2828 -22 
Q 2503 -91 2169 -91 
Q 1331 -91 842 396 
Q 353 884 353 1716 
Q 353 2575 817 3079 
Q 1281 3584 2069 3584 
Q 2775 3584 3186 3129 
Q 3597 2675 3597 1894 
z
M 3022 2063 
Q 3016 2534 2758 2815 
Q 2500 3097 2075 3097 
Q 1594 3097 1305 2825 
Q 1016 2553 972 2059 
L 3022 2063 
z
" transform="scale(0.015625)"/>
        <path id="DejaVuSans-64" d="M 2906 2969 
L 2906 4863 
L 3481 4863 
L 3481 0 
L 2906 0 
L 2906 525 
Q 2725 213 2448 61 
Q 2172 -91 1784 -91 
Q 1150 -91 751 415 
Q 353 922 353 1747 
Q 353 2572 751 3078 
Q 1150 3584 1784 3584 
Q 2172 3584 2448 3432 
Q 2725 3281 2906 2969 
z
M 947 1747 
Q 947 1113 1208 752 
Q 1469 391 1925 391 
Q 2381 391 2643 752 
Q 2906 1113 2906 1747 
Q 2906 2381 2643 2742 
Q 2381 3103 1925 3103 
Q 1469 3103 1208 2742 
Q 947 2381 947 1747 
z
" transform="scale(0.015625)"/>
        <path id="DejaVuSans-29" d="M 513 4856 
L 1013 4856 
Q 1481 4119 1714 3412 
Q 1947 2706 1947 2009 
Q 1947 1309 1714 600 
Q 1481 -109 1013 -844 
L 513 -844 
Q 928 -128 1133 580 
Q 1338 1288 1338 2009 
Q 1338 2731 1133 3434 
Q 928 4138 513 4856 
z
" transform="scale(0.015625)"/>
       </defs>
       <use xlink:href="#DejaVuSans-28"/>
       <use xlink:href="#DejaVuSans-62" transform="translate(39.013672 0)"/>
       <use xlink:href="#DejaVuSans-6c" transform="translate(102.490234 0)"/>
       <use xlink:href="#DejaVuSans-65" transform="translate(130.273438 0)"/>
       <use xlink:href="#DejaVuSans-6e" transform="translate(191.796875 0)"/>
       <use xlink:href="#DejaVuSans-64" transform="translate(255.175781 0)"/>
       <use xlink:href="#DejaVuSans-29" transform="translate(318.652344 0)"/>
      </g>
     </g>
    </g>
    <g id="xtick_2">
     <g id="line2d_2">
      <g>
       <use xlink:href="#mb24ea00c1c" x="248.580625" y="283.355875" style="stroke: #000000; stroke-width: 0.8"/>
      </g>
     </g>
     <g id="text_2">
      <!-- LC-only -->
      <g transform="translate(231.704219 297.194469) scale(0.09 -0.09)">
       <defs>
        <path id="DejaVuSans-4c" d="M 628 4666 
L 1259 4666 
L 1259 531 
L 3531 531 
L 3531 0 
L 628 0 
L 628 4666 
z
" transform="scale(0.015625)"/>
        <path id="DejaVuSans-43" d="M 4122 4306 
L 4122 3641 
Q 3803 3938 3442 4084 
Q 3081 4231 2675 4231 
Q 1875 4231 1450 3742 
Q 1025 3253 1025 2328 
Q 1025 1406 1450 917 
Q 1875 428 2675 428 
Q 3081 428 3442 575 
Q 3803 722 4122 1019 
L 4122 359 
Q 3791 134 3420 21 
Q 3050 -91 2638 -91 
Q 1578 -91 968 557 
Q 359 1206 359 2328 
Q 359 3453 968 4101 
Q 1578 4750 2638 4750 
Q 3056 4750 3426 4639 
Q 3797 4528 4122 4306 
z
" transform="scale(0.015625)"/>
        <path id="DejaVuSans-2d" d="M 313 2009 
L 1997 2009 
L 1997 1497 
L 313 1497 
L 313 2009 
z
" transform="scale(0.015625)"/>
        <path id="DejaVuSans-79" d="M 2059 -325 
Q 1816 -950 1584 -1140 
Q 1353 -1331 966 -1331 
L 506 -1331 
L 506 -850 
L 844 -850 
Q 1081 -850 1212 -737 
Q 1344 -625 1503 -206 
L 1606 56 
L 191 3500 
L 800 3500 
L 1894 763 
L 2988 3500 
L 3597 3500 
L 2059 -325 
z
" transform="scale(0.015625)"/>
       </defs>
       <use xlink:href="#DejaVuSans-4c"/>
       <use xlink:href="#DejaVuSans-43" transform="translate(55.712891 0)"/>
       <use xlink:href="#DejaVuSans-2d" transform="translate(125.537109 0)"/>
       <use xlink:href="#DejaVuSans-6f" transform="translate(163.496094 0)"/>
       <use xlink:href="#DejaVuSans-6e" transform="translate(224.677734 0)"/>
       <use xlink:href="#DejaVuSans-6c" transform="translate(288.056641 0)"/>
       <use xlink:href="#DejaVuSans-79" transform="translate(315.839844 0)"/>
      </g>
      <!-- (ignores estimates) -->
      <g transform="translate(204.919375 307.2725) scale(0.09 -0.09)">
       <defs>
        <path id="DejaVuSans-72" d="M 2631 2963 
Q 2534 3019 2420 3045 
Q 2306 3072 2169 3072 
Q 1681 3072 1420 2755 
Q 1159 2438 1159 1844 
L 1159 0 
L 581 0 
L 581 3500 
L 1159 3500 
L 1159 2956 
Q 1341 3275 1631 3429 
Q 1922 3584 2338 3584 
Q 2397 3584 2469 3576 
Q 2541 3569 2628 3553 
L 2631 2963 
z
" transform="scale(0.015625)"/>
        <path id="DejaVuSans-6d" d="M 3328 2828 
Q 3544 3216 3844 3400 
Q 4144 3584 4550 3584 
Q 5097 3584 5394 3201 
Q 5691 2819 5691 2113 
L 5691 0 
L 5113 0 
L 5113 2094 
Q 5113 2597 4934 2840 
Q 4756 3084 4391 3084 
Q 3944 3084 3684 2787 
Q 3425 2491 3425 1978 
L 3425 0 
L 2847 0 
L 2847 2094 
Q 2847 2600 2669 2842 
Q 2491 3084 2119 3084 
Q 1678 3084 1418 2786 
Q 1159 2488 1159 1978 
L 1159 0 
L 581 0 
L 581 3500 
L 1159 3500 
L 1159 2956 
Q 1356 3278 1631 3431 
Q 1906 3584 2284 3584 
Q 2666 3584 2933 3390 
Q 3200 3197 3328 2828 
z
" transform="scale(0.015625)"/>
       </defs>
       <use xlink:href="#DejaVuSans-28"/>
       <use xlink:href="#DejaVuSans-69" transform="translate(39.013672 0)"/>
       <use xlink:href="#DejaVuSans-67" transform="translate(66.796875 0)"/>
       <use xlink:href="#DejaVuSans-6e" transform="translate(130.273438 0)"/>
       <use xlink:href="#DejaVuSans-6f" transform="translate(193.652344 0)"/>
       <use xlink:href="#DejaVuSans-72" transform="translate(254.833984 0)"/>
       <use xlink:href="#DejaVuSans-65" transform="translate(293.697266 0)"/>
       <use xlink:href="#DejaVuSans-73" transform="translate(355.220703 0)"/>
       <use xlink:href="#DejaVuSans-20" transform="translate(407.320312 0)"/>
       <use xlink:href="#DejaVuSans-65" transform="translate(439.107422 0)"/>
       <use xlink:href="#DejaVuSans-73" transform="translate(500.630859 0)"/>
       <use xlink:href="#DejaVuSans-74" transform="translate(552.730469 0)"/>
       <use xlink:href="#DejaVuSans-69" transform="translate(591.939453 0)"/>
       <use xlink:href="#DejaVuSans-6d" transform="translate(619.722656 0)"/>
       <use xlink:href="#DejaVuSans-61" transform="translate(717.134766 0)"/>
       <use xlink:href="#DejaVuSans-74" transform="translate(778.414062 0)"/>
       <use xlink:href="#DejaVuSans-65" transform="translate(817.623047 0)"/>
       <use xlink:href="#DejaVuSans-73" transform="translate(879.146484 0)"/>
       <use xlink:href="#DejaVuSans-29" transform="translate(931.246094 0)"/>
      </g>
     </g>
    </g>
   </g>
   <g id="matplotlib.axis_2">
    <g id="ytick_1">
     <g id="line2d_3">
      <path d="M 39.330625 279.240541 
L 318.330625 279.240541 
" clip-path="url(#pad048cceaf)" style="fill: none; stroke: #b0b0b0; stroke-opacity: 0.3; stroke-width: 0.8; stroke-linecap: square"/>
     </g>
     <g id="line2d_4">
      <defs>
       <path id="m74be10173e" d="M 0 0 
L -3.5 0 
" style="stroke: #000000; stroke-width: 0.8"/>
      </defs>
      <g>
       <use xlink:href="#m74be10173e" x="39.330625" y="279.240541" style="stroke: #000000; stroke-width: 0.8"/>
      </g>
     </g>
     <g id="text_3">
      <!-- 0 -->
      <g transform="translate(26.604375 282.659838) scale(0.09 -0.09)">
       <defs>
        <path id="DejaVuSans-30" d="M 2034 4250 
Q 1547 4250 1301 3770 
Q 1056 3291 1056 2328 
Q 1056 1369 1301 889 
Q 1547 409 2034 409 
Q 2525 409 2770 889 
Q 3016 1369 3016 2328 
Q 3016 3291 2770 3770 
Q 2525 4250 2034 4250 
z
M 2034 4750 
Q 2819 4750 3233 4129 
Q 3647 3509 3647 2328 
Q 3647 1150 3233 529 
Q 2819 -91 2034 -91 
Q 1250 -91 836 529 
Q 422 1150 422 2328 
Q 422 3509 836 4129 
Q 1250 4750 2034 4750 
z
" transform="scale(0.015625)"/>
       </defs>
       <use xlink:href="#DejaVuSans-30"/>
      </g>
     </g>
    </g>
    <g id="ytick_2">
     <g id="line2d_5">
      <path d="M 39.330625 228.93229 
L 318.330625 228.93229 
" clip-path="url(#pad048cceaf)" style="fill: none; stroke: #b0b0b0; stroke-opacity: 0.3; stroke-width: 0.8; stroke-linecap: square"/>
     </g>
     <g id="line2d_6">
      <g>
       <use xlink:href="#m74be10173e" x="39.330625" y="228.93229" style="stroke: #000000; stroke-width: 0.8"/>
      </g>
     </g>
     <g id="text_4">
      <!-- 10 -->
      <g transform="translate(20.878125 232.351587) scale(0.09 -0.09)">
       <defs>
        <path id="DejaVuSans-31" d="M 794 531 
L 1825 531 
L 1825 4091 
L 703 3866 
L 703 4441 
L 1819 4666 
L 2450 4666 
L 2450 531 
L 3481 531 
L 3481 0 
L 794 0 
L 794 531 
z
" transform="scale(0.015625)"/>
       </defs>
       <use xlink:href="#DejaVuSans-31"/>
       <use xlink:href="#DejaVuSans-30" transform="translate(63.623047 0)"/>
      </g>
     </g>
    </g>
    <g id="ytick_3">
     <g id="line2d_7">
      <path d="M 39.330625 178.624039 
L 318.330625 178.624039 
" clip-path="url(#pad048cceaf)" style="fill: none; stroke: #b0b0b0; stroke-opacity: 0.3; stroke-width: 0.8; stroke-linecap: square"/>
     </g>
     <g id="line2d_8">
      <g>
       <use xlink:href="#m74be10173e" x="39.330625" y="178.624039" style="stroke: #000000; stroke-width: 0.8"/>
      </g>
     </g>
     <g id="text_5">
      <!-- 20 -->
      <g transform="translate(20.878125 182.043336) scale(0.09 -0.09)">
       <defs>
        <path id="DejaVuSans-32" d="M 1228 531 
L 3431 531 
L 3431 0 
L 469 0 
L 469 531 
Q 828 903 1448 1529 
Q 2069 2156 2228 2338 
Q 2531 2678 2651 2914 
Q 2772 3150 2772 3378 
Q 2772 3750 2511 3984 
Q 2250 4219 1831 4219 
Q 1534 4219 1204 4116 
Q 875 4013 500 3803 
L 500 4441 
Q 881 4594 1212 4672 
Q 1544 4750 1819 4750 
Q 2544 4750 2975 4387 
Q 3406 4025 3406 3419 
Q 3406 3131 3298 2873 
Q 3191 2616 2906 2266 
Q 2828 2175 2409 1742 
Q 1991 1309 1228 531 
z
" transform="scale(0.015625)"/>
       </defs>
       <use xlink:href="#DejaVuSans-32"/>
       <use xlink:href="#DejaVuSans-30" transform="translate(63.623047 0)"/>
      </g>
     </g>
    </g>
    <g id="ytick_4">
     <g id="line2d_9">
      <path d="M 39.330625 128.315788 
L 318.330625 128.315788 
" clip-path="url(#pad048cceaf)" style="fill: none; stroke: #b0b0b0; stroke-opacity: 0.3; stroke-width: 0.8; stroke-linecap: square"/>
     </g>
     <g id="line2d_10">
      <g>
       <use xlink:href="#m74be10173e" x="39.330625" y="128.315788" style="stroke: #000000; stroke-width: 0.8"/>
      </g>
     </g>
     <g id="text_6">
      <!-- 30 -->
      <g transform="translate(20.878125 131.735085) scale(0.09 -0.09)">
       <defs>
        <path id="DejaVuSans-33" d="M 2597 2516 
Q 3050 2419 3304 2112 
Q 3559 1806 3559 1356 
Q 3559 666 3084 287 
Q 2609 -91 1734 -91 
Q 1441 -91 1130 -33 
Q 819 25 488 141 
L 488 750 
Q 750 597 1062 519 
Q 1375 441 1716 441 
Q 2309 441 2620 675 
Q 2931 909 2931 1356 
Q 2931 1769 2642 2001 
Q 2353 2234 1838 2234 
L 1294 2234 
L 1294 2753 
L 1863 2753 
Q 2328 2753 2575 2939 
Q 2822 3125 2822 3475 
Q 2822 3834 2567 4026 
Q 2313 4219 1838 4219 
Q 1578 4219 1281 4162 
Q 984 4106 628 3988 
L 628 4550 
Q 988 4650 1302 4700 
Q 1616 4750 1894 4750 
Q 2613 4750 3031 4423 
Q 3450 4097 3450 3541 
Q 3450 3153 3228 2886 
Q 3006 2619 2597 2516 
z
" transform="scale(0.015625)"/>
       </defs>
       <use xlink:href="#DejaVuSans-33"/>
       <use xlink:href="#DejaVuSans-30" transform="translate(63.623047 0)"/>
      </g>
     </g>
    </g>
    <g id="ytick_5">
     <g id="line2d_11">
      <path d="M 39.330625 78.007537 
L 318.330625 78.007537 
" clip-path="url(#pad048cceaf)" style="fill: none; stroke: #b0b0b0; stroke-opacity: 0.3; stroke-width: 0.8; stroke-linecap: square"/>
     </g>
     <g id="line2d_12">
      <g>
       <use xlink:href="#m74be10173e" x="39.330625" y="78.007537" style="stroke: #000000; stroke-width: 0.8"/>
      </g>
     </g>
     <g id="text_7">
      <!-- 40 -->
      <g transform="translate(20.878125 81.426834) scale(0.09 -0.09)">
       <defs>
        <path id="DejaVuSans-34" d="M 2419 4116 
L 825 1625 
L 2419 1625 
L 2419 4116 
z
M 2253 4666 
L 3047 4666 
L 3047 1625 
L 3713 1625 
L 3713 1100 
L 3047 1100 
L 3047 0 
L 2419 0 
L 2419 1100 
L 313 1100 
L 313 1709 
L 2253 4666 
z
" transform="scale(0.015625)"/>
       </defs>
       <use xlink:href="#DejaVuSans-34"/>
       <use xlink:href="#DejaVuSans-30" transform="translate(63.623047 0)"/>
      </g>
     </g>
    </g>
    <g id="text_8">
     <!-- Mean response time (ms) -->
     <g transform="translate(14.798438 222.386969) rotate(-90) scale(0.1 -0.1)">
      <defs>
       <path id="DejaVuSans-4d" d="M 628 4666 
L 1569 4666 
L 2759 1491 
L 3956 4666 
L 4897 4666 
L 4897 0 
L 4281 0 
L 4281 4097 
L 3078 897 
L 2444 897 
L 1241 4097 
L 1241 0 
L 628 0 
L 628 4666 
z
" transform="scale(0.015625)"/>
       <path id="DejaVuSans-70" d="M 1159 525 
L 1159 -1331 
L 581 -1331 
L 581 3500 
L 1159 3500 
L 1159 2969 
Q 1341 3281 1617 3432 
Q 1894 3584 2278 3584 
Q 2916 3584 3314 3078 
Q 3713 2572 3713 1747 
Q 3713 922 3314 415 
Q 2916 -91 2278 -91 
Q 1894 -91 1617 61 
Q 1341 213 1159 525 
z
M 3116 1747 
Q 3116 2381 2855 2742 
Q 2594 3103 2138 3103 
Q 1681 3103 1420 2742 
Q 1159 2381 1159 1747 
Q 1159 1113 1420 752 
Q 1681 391 2138 391 
Q 2594 391 2855 752 
Q 3116 1113 3116 1747 
z
" transform="scale(0.015625)"/>
      </defs>
      <use xlink:href="#DejaVuSans-4d"/>
      <use xlink:href="#DejaVuSans-65" transform="translate(86.279297 0)"/>
      <use xlink:href="#DejaVuSans-61" transform="translate(147.802734 0)"/>
      <use xlink:href="#DejaVuSans-6e" transform="translate(209.082031 0)"/>
      <use xlink:href="#DejaVuSans-20" transform="translate(272.460938 0)"/>
      <use xlink:href="#DejaVuSans-72" transform="translate(304.248047 0)"/>
      <use xlink:href="#DejaVuSans-65" transform="translate(343.111328 0)"/>
      <use xlink:href="#DejaVuSans-73" transform="translate(404.634766 0)"/>
      <use xlink:href="#DejaVuSans-70" transform="translate(456.734375 0)"/>
      <use xlink:href="#DejaVuSans-6f" transform="translate(520.210938 0)"/>
      <use xlink:href="#DejaVuSans-6e" transform="translate(581.392578 0)"/>
      <use xlink:href="#DejaVuSans-73" transform="translate(644.771484 0)"/>
      <use xlink:href="#DejaVuSans-65" transform="translate(696.871094 0)"/>
      <use xlink:href="#DejaVuSans-20" transform="translate(758.394531 0)"/>
      <use xlink:href="#DejaVuSans-74" transform="translate(790.181641 0)"/>
      <use xlink:href="#DejaVuSans-69" transform="translate(829.390625 0)"/>
      <use xlink:href="#DejaVuSans-6d" transform="translate(857.173828 0)"/>
      <use xlink:href="#DejaVuSans-65" transform="translate(954.585938 0)"/>
      <use xlink:href="#DejaVuSans-20" transform="translate(1016.109375 0)"/>
      <use xlink:href="#DejaVuSans-28" transform="translate(1047.896484 0)"/>
      <use xlink:href="#DejaVuSans-6d" transform="translate(1086.910156 0)"/>
      <use xlink:href="#DejaVuSans-73" transform="translate(1184.322266 0)"/>
      <use xlink:href="#DejaVuSans-29" transform="translate(1236.421875 0)"/>
     </g>
    </g>
   </g>
   <g id="patch_3">
    <path d="M 70.718125 270.127583 
L 147.443125 270.127583 
L 147.443125 263.99263 
L 70.718125 263.99263 
L 70.718125 270.127583 
z
" clip-path="url(#pad048cceaf)" style="fill: #2ca02c; opacity: 0.75; stroke: #000000; stroke-linejoin: miter"/>
   </g>
   <g id="line2d_13">
    <path d="M 109.080625 270.127583 
L 109.080625 272.015875 
" clip-path="url(#pad048cceaf)" style="fill: none; stroke: #000000; stroke-width: 1.2; stroke-linecap: square"/>
   </g>
   <g id="line2d_14">
    <path d="M 109.080625 263.99263 
L 109.080625 255.567299 
" clip-path="url(#pad048cceaf)" style="fill: none; stroke: #000000; stroke-width: 1.2; stroke-linecap: square"/>
   </g>
   <g id="line2d_15">
    <path d="M 89.899375 272.015875 
L 128.261875 272.015875 
" clip-path="url(#pad048cceaf)" style="fill: none; stroke: #000000; stroke-width: 1.2; stroke-linecap: square"/>
   </g>
   <g id="line2d_16">
    <path d="M 89.899375 255.567299 
L 128.261875 255.567299 
" clip-path="url(#pad048cceaf)" style="fill: none; stroke: #000000; stroke-width: 1.2; stroke-linecap: square"/>
   </g>
   <g id="line2d_17">
    <defs>
     <path id="m573b49d678" d="M 0 0.75 
C 0.198902 0.75 0.389685 0.670975 0.53033 0.53033 
C 0.670975 0.389685 0.75 0.198902 0.75 0 
C 0.75 -0.198902 0.670975 -0.389685 0.53033 -0.53033 
C 0.389685 -0.670975 0.198902 -0.75 0 -0.75 
C -0.198902 -0.75 -0.389685 -0.670975 -0.53033 -0.53033 
C -0.670975 -0.389685 -0.75 -0.198902 -0.75 0 
C -0.75 0.198902 -0.670975 0.389685 -0.53033 0.53033 
C -0.389685 0.670975 -0.198902 0.75 0 0.75 
z
" style="stroke: #000000; stroke-opacity: 0.4"/>
    </defs>
    <g clip-path="url(#pad048cceaf)">
     <use xlink:href="#m573b49d678" x="109.080625" y="45.215875" style="fill-opacity: 0; stroke: #000000; stroke-opacity: 0.4"/>
     <use xlink:href="#m573b49d678" x="109.080625" y="246.46517" style="fill-opacity: 0; stroke: #000000; stroke-opacity: 0.4"/>
     <use xlink:href="#m573b49d678" x="109.080625" y="204.858418" style="fill-opacity: 0; stroke: #000000; stroke-opacity: 0.4"/>
     <use xlink:href="#m573b49d678" x="109.080625" y="252.801285" style="fill-opacity: 0; stroke: #000000; stroke-opacity: 0.4"/>
     <use xlink:href="#m573b49d678" x="109.080625" y="204.858418" style="fill-opacity: 0; stroke: #000000; stroke-opacity: 0.4"/>
     <use xlink:href="#m573b49d678" x="109.080625" y="241.542572" style="fill-opacity: 0; stroke: #000000; stroke-opacity: 0.4"/>
     <use xlink:href="#m573b49d678" x="109.080625" y="251.851387" style="fill-opacity: 0; stroke: #000000; stroke-opacity: 0.4"/>
    </g>
   </g>
   <g id="patch_4">
    <path d="M 210.218125 268.381176 
L 286.943125 268.381176 
L 286.943125 263.074313 
L 210.218125 263.074313 
L 210.218125 268.381176 
z
" clip-path="url(#pad048cceaf)" style="fill: #ff7f0e; opacity: 0.75; stroke: #000000; stroke-linejoin: miter"/>
   </g>
   <g id="line2d_18">
    <path d="M 248.580625 268.381176 
L 248.580625 270.931477 
" clip-path="url(#pad048cceaf)" style="fill: none; stroke: #000000; stroke-width: 1.2; stroke-linecap: square"/>
   </g>
   <g id="line2d_19">
    <path d="M 248.580625 263.074313 
L 248.580625 257.688802 
" clip-path="url(#pad048cceaf)" style="fill: none; stroke: #000000; stroke-width: 1.2; stroke-linecap: square"/>
   </g>
   <g id="line2d_20">
    <path d="M 229.399375 270.931477 
L 267.761875 270.931477 
" clip-path="url(#pad048cceaf)" style="fill: none; stroke: #000000; stroke-width: 1.2; stroke-linecap: square"/>
   </g>
   <g id="line2d_21">
    <path d="M 229.399375 257.688802 
L 267.761875 257.688802 
" clip-path="url(#pad048cceaf)" style="fill: none; stroke: #000000; stroke-width: 1.2; stroke-linecap: square"/>
   </g>
   <g id="line2d_22">
    <g clip-path="url(#pad048cceaf)">
     <use xlink:href="#m573b49d678" x="248.580625" y="245.996905" style="fill-opacity: 0; stroke: #000000; stroke-opacity: 0.4"/>
     <use xlink:href="#m573b49d678" x="248.580625" y="170.304892" style="fill-opacity: 0; stroke: #000000; stroke-opacity: 0.4"/>
    </g>
   </g>
   <g id="line2d_23">
    <path d="M 39.330625 269.885847 
L 318.330625 269.885847 
" clip-path="url(#pad048cceaf)" style="fill: none; stroke-dasharray: 5.55,2.4; stroke-dashoffset: 0; stroke: #2ca02c; stroke-opacity: 0.75; stroke-width: 1.5"/>
   </g>
   <g id="line2d_24">
    <path d="M 39.330625 269.198928 
L 318.330625 269.198928 
" clip-path="url(#pad048cceaf)" style="fill: none; stroke-dasharray: 1.5,2.475; stroke-dashoffset: 0; stroke: #1f77b4; stroke-opacity: 0.75; stroke-width: 1.5"/>
   </g>
   <g id="line2d_25">
    <path d="M 39.330625 267.333671 
L 318.330625 267.333671 
" clip-path="url(#pad048cceaf)" style="fill: none; stroke-dasharray: 7.68,1.92,1.2,1.92; stroke-dashoffset: 0; stroke: #ff7f0e; stroke-opacity: 0.75; stroke-width: 1.2"/>
   </g>
   <g id="line2d_26">
    <path d="M 70.718125 268.870287 
L 147.443125 268.870287 
" clip-path="url(#pad048cceaf)" style="fill: none; stroke: #ffffff; stroke-width: 2"/>
   </g>
   <g id="line2d_27">
    <path d="M 210.218125 266.251353 
L 286.943125 266.251353 
" clip-path="url(#pad048cceaf)" style="fill: none; stroke: #ffffff; stroke-width: 2"/>
   </g>
   <g id="patch_5">
    <path d="M 39.330625 283.355875 
L 39.330625 33.875875 
" style="fill: none; stroke: #000000; stroke-width: 0.8; stroke-linejoin: miter; stroke-linecap: square"/>
   </g>
   <g id="patch_6">
    <path d="M 318.330625 283.355875 
L 318.330625 33.875875 
" style="fill: none; stroke: #000000; stroke-width: 0.8; stroke-linejoin: miter; stroke-linecap: square"/>
   </g>
   <g id="patch_7">
    <path d="M 39.330625 283.355875 
L 318.330625 283.355875 
" style="fill: none; stroke: #000000; stroke-width: 0.8; stroke-linejoin: miter; stroke-linecap: square"/>
   </g>
   <g id="patch_8">
    <path d="M 39.330625 33.875875 
L 318.330625 33.875875 
" style="fill: none; stroke: #000000; stroke-width: 0.8; stroke-linejoin: miter; stroke-linecap: square"/>
   </g>
   <g id="text_9">
    <!-- n=84 -->
    <g transform="translate(98.10375 220.041766) scale(0.08 -0.08)">
     <defs>
      <path id="DejaVuSans-3d" d="M 678 2906 
L 4684 2906 
L 4684 2381 
L 678 2381 
L 678 2906 
z
M 678 1631 
L 4684 1631 
L 4684 1100 
L 678 1100 
L 678 1631 
z
" transform="scale(0.015625)"/>
      <path id="DejaVuSans-38" d="M 2034 2216 
Q 1584 2216 1326 1975 
Q 1069 1734 1069 1313 
Q 1069 891 1326 650 
Q 1584 409 2034 409 
Q 2484 409 2743 651 
Q 3003 894 3003 1313 
Q 3003 1734 2745 1975 
Q 2488 2216 2034 2216 
z
M 1403 2484 
Q 997 2584 770 2862 
Q 544 3141 544 3541 
Q 544 4100 942 4425 
Q 1341 4750 2034 4750 
Q 2731 4750 3128 4425 
Q 3525 4100 3525 3541 
Q 3525 3141 3298 2862 
Q 3072 2584 2669 2484 
Q 3125 2378 3379 2068 
Q 3634 1759 3634 1313 
Q 3634 634 3220 271 
Q 2806 -91 2034 -91 
Q 1263 -91 848 271 
Q 434 634 434 1313 
Q 434 1759 690 2068 
Q 947 2378 1403 2484 
z
M 1172 3481 
Q 1172 3119 1398 2916 
Q 1625 2713 2034 2713 
Q 2441 2713 2670 2916 
Q 2900 3119 2900 3481 
Q 2900 3844 2670 4047 
Q 2441 4250 2034 4250 
Q 1625 4250 1398 4047 
Q 1172 3844 1172 3481 
z
" transform="scale(0.015625)"/>
     </defs>
     <use xlink:href="#DejaVuSans-6e"/>
     <use xlink:href="#DejaVuSans-3d" transform="translate(63.378906 0)"/>
     <use xlink:href="#DejaVuSans-38" transform="translate(147.167969 0)"/>
     <use xlink:href="#DejaVuSans-34" transform="translate(210.791016 0)"/>
    </g>
   </g>
   <g id="text_10">
    <!-- n=19 -->
    <g transform="translate(237.60375 208.15359) scale(0.08 -0.08)">
     <defs>
      <path id="DejaVuSans-39" d="M 703 97 
L 703 672 
Q 941 559 1184 500 
Q 1428 441 1663 441 
Q 2288 441 2617 861 
Q 2947 1281 2994 2138 
Q 2813 1869 2534 1725 
Q 2256 1581 1919 1581 
Q 1219 1581 811 2004 
Q 403 2428 403 3163 
Q 403 3881 828 4315 
Q 1253 4750 1959 4750 
Q 2769 4750 3195 4129 
Q 3622 3509 3622 2328 
Q 3622 1225 3098 567 
Q 2575 -91 1691 -91 
Q 1453 -91 1209 -44 
Q 966 3 703 97 
z
M 1959 2075 
Q 2384 2075 2632 2365 
Q 2881 2656 2881 3163 
Q 2881 3666 2632 3958 
Q 2384 4250 1959 4250 
Q 1534 4250 1286 3958 
Q 1038 3666 1038 3163 
Q 1038 2656 1286 2365 
Q 1534 2075 1959 2075 
z
" transform="scale(0.015625)"/>
     </defs>
     <use xlink:href="#DejaVuSans-6e"/>
     <use xlink:href="#DejaVuSans-3d" transform="translate(63.378906 0)"/>
     <use xlink:href="#DejaVuSans-31" transform="translate(147.167969 0)"/>
     <use xlink:href="#DejaVuSans-39" transform="translate(210.791016 0)"/>
    </g>
   </g>
   <g id="text_11">
    <!-- Dispatch strategy class vs. performance -->
    <g transform="translate(67.996172 15.558281) scale(0.11 -0.11)">
     <defs>
      <path id="DejaVuSans-44" d="M 1259 4147 
L 1259 519 
L 2022 519 
Q 2988 519 3436 956 
Q 3884 1394 3884 2338 
Q 3884 3275 3436 3711 
Q 2988 4147 2022 4147 
L 1259 4147 
z
M 628 4666 
L 1925 4666 
Q 3281 4666 3915 4102 
Q 4550 3538 4550 2338 
Q 4550 1131 3912 565 
Q 3275 0 1925 0 
L 628 0 
L 628 4666 
z
" transform="scale(0.015625)"/>
      <path id="DejaVuSans-63" d="M 3122 3366 
L 3122 2828 
Q 2878 2963 2633 3030 
Q 2388 3097 2138 3097 
Q 1578 3097 1268 2742 
Q 959 2388 959 1747 
Q 959 1106 1268 751 
Q 1578 397 2138 397 
Q 2388 397 2633 464 
Q 2878 531 3122 666 
L 3122 134 
Q 2881 22 2623 -34 
Q 2366 -91 2075 -91 
Q 1284 -91 818 406 
Q 353 903 353 1747 
Q 353 2603 823 3093 
Q 1294 3584 2113 3584 
Q 2378 3584 2631 3529 
Q 2884 3475 3122 3366 
z
" transform="scale(0.015625)"/>
      <path id="DejaVuSans-76" d="M 191 3500 
L 800 3500 
L 1894 563 
L 2988 3500 
L 3597 3500 
L 2284 0 
L 1503 0 
L 191 3500 
z
" transform="scale(0.015625)"/>
      <path id="DejaVuSans-2e" d="M 684 794 
L 1344 794 
L 1344 0 
L 684 0 
L 684 794 
z
" transform="scale(0.015625)"/>
      <path id="DejaVuSans-66" d="M 2375 4863 
L 2375 4384 
L 1825 4384 
Q 1516 4384 1395 4259 
Q 1275 4134 1275 3809 
L 1275 3500 
L 2222 3500 
L 2222 3053 
L 1275 3053 
L 1275 0 
L 697 0 
L 697 3053 
L 147 3053 
L 147 3500 
L 697 3500 
L 697 3744 
Q 697 4328 969 4595 
Q 1241 4863 1831 4863 
L 2375 4863 
z
" transform="scale(0.015625)"/>
     </defs>
     <use xlink:href="#DejaVuSans-44"/>
     <use xlink:href="#DejaVuSans-69" transform="translate(77.001953 0)"/>
     <use xlink:href="#DejaVuSans-73" transform="translate(104.785156 0)"/>
     <use xlink:href="#DejaVuSans-70" transform="translate(156.884766 0)"/>
     <use xlink:href="#DejaVuSans-61" transform="translate(220.361328 0)"/>
     <use xlink:href="#DejaVuSans-74" transform="translate(281.640625 0)"/>
     <use xlink:href="#DejaVuSans-63" transform="translate(320.849609 0)"/>
     <use xlink:href="#DejaVuSans-68" transform="translate(375.830078 0)"/>
     <use xlink:href="#DejaVuSans-20" transform="translate(439.208984 0)"/>
     <use xlink:href="#DejaVuSans-73" transform="translate(470.996094 0)"/>
     <use xlink:href="#DejaVuSans-74" transform="translate(523.095703 0)"/>
     <use xlink:href="#DejaVuSans-72" transform="translate(562.304688 0)"/>
     <use xlink:href="#DejaVuSans-61" transform="translate(603.417969 0)"/>
     <use xlink:href="#DejaVuSans-74" transform="translate(664.697266 0)"/>
     <use xlink:href="#DejaVuSans-65" transform="translate(703.90625 0)"/>
     <use xlink:href="#DejaVuSans-67" transform="translate(765.429688 0)"/>
     <use xlink:href="#DejaVuSans-79" transform="translate(828.90625 0)"/>
     <use xlink:href="#DejaVuSans-20" transform="translate(888.085938 0)"/>
     <use xlink:href="#DejaVuSans-63" transform="translate(919.873047 0)"/>
     <use xlink:href="#DejaVuSans-6c" transform="translate(974.853516 0)"/>
     <use xlink:href="#DejaVuSans-61" transform="translate(1002.636719 0)"/>
     <use xlink:href="#DejaVuSans-73" transform="translate(1063.916016 0)"/>
     <use xlink:href="#DejaVuSans-73" transform="translate(1116.015625 0)"/>
     <use xlink:href="#DejaVuSans-20" transform="translate(1168.115234 0)"/>
     <use xlink:href="#DejaVuSans-76" transform="translate(1199.902344 0)"/>
     <use xlink:href="#DejaVuSans-73" transform="translate(1259.082031 0)"/>
     <use xlink:href="#DejaVuSans-2e" transform="translate(1311.181641 0)"/>
     <use xlink:href="#DejaVuSans-20" transform="translate(1342.96875 0)"/>
     <use xlink:href="#DejaVuSans-70" transform="translate(1374.755859 0)"/>
     <use xlink:href="#DejaVuSans-65" transform="translate(1438.232422 0)"/>
     <use xlink:href="#DejaVuSans-72" transform="translate(1499.755859 0)"/>
     <use xlink:href="#DejaVuSans-66" transform="translate(1540.869141 0)"/>
     <use xlink:href="#DejaVuSans-6f" transform="translate(1576.074219 0)"/>
     <use xlink:href="#DejaVuSans-72" transform="translate(1637.255859 0)"/>
     <use xlink:href="#DejaVuSans-6d" transform="translate(1676.619141 0)"/>
     <use xlink:href="#DejaVuSans-61" transform="translate(1774.03125 0)"/>
     <use xlink:href="#DejaVuSans-6e" transform="translate(1835.310547 0)"/>
     <use xlink:href="#DejaVuSans-63" transform="translate(1898.689453 0)"/>
     <use xlink:href="#DejaVuSans-65" transform="translate(1953.669922 0)"/>
    </g>
    <!-- (classified by signals used in LLM function) -->
    <g transform="translate(61.067891 27.875875) scale(0.11 -0.11)">
     <defs>
      <path id="DejaVuSans-75" d="M 544 1381 
L 544 3500 
L 1119 3500 
L 1119 1403 
Q 1119 906 1312 657 
Q 1506 409 1894 409 
Q 2359 409 2629 706 
Q 2900 1003 2900 1516 
L 2900 3500 
L 3475 3500 
L 3475 0 
L 2900 0 
L 2900 538 
Q 2691 219 2414 64 
Q 2138 -91 1772 -91 
Q 1169 -91 856 284 
Q 544 659 544 1381 
z
M 1991 3584 
L 1991 3584 
z
" transform="scale(0.015625)"/>
     </defs>
     <use xlink:href="#DejaVuSans-28"/>
     <use xlink:href="#DejaVuSans-63" transform="translate(39.013672 0)"/>
     <use xlink:href="#DejaVuSans-6c" transform="translate(93.994141 0)"/>
     <use xlink:href="#DejaVuSans-61" transform="translate(121.777344 0)"/>
     <use xlink:href="#DejaVuSans-73" transform="translate(183.056641 0)"/>
     <use xlink:href="#DejaVuSans-73" transform="translate(235.15625 0)"/>
     <use xlink:href="#DejaVuSans-69" transform="translate(287.255859 0)"/>
     <use xlink:href="#DejaVuSans-66" transform="translate(315.039062 0)"/>
     <use xlink:href="#DejaVuSans-69" transform="translate(350.244141 0)"/>
     <use xlink:href="#DejaVuSans-65" transform="translate(378.027344 0)"/>
     <use xlink:href="#DejaVuSans-64" transform="translate(439.550781 0)"/>
     <use xlink:href="#DejaVuSans-20" transform="translate(503.027344 0)"/>
     <use xlink:href="#DejaVuSans-62" transform="translate(534.814453 0)"/>
     <use xlink:href="#DejaVuSans-79" transform="translate(598.291016 0)"/>
     <use xlink:href="#DejaVuSans-20" transform="translate(657.470703 0)"/>
     <use xlink:href="#DejaVuSans-73" transform="translate(689.257812 0)"/>
     <use xlink:href="#DejaVuSans-69" transform="translate(741.357422 0)"/>
     <use xlink:href="#DejaVuSans-67" transform="translate(769.140625 0)"/>
     <use xlink:href="#DejaVuSans-6e" transform="translate(832.617188 0)"/>
     <use xlink:href="#DejaVuSans-61" transform="translate(895.996094 0)"/>
     <use xlink:href="#DejaVuSans-6c" transform="translate(957.275391 0)"/>
     <use xlink:href="#DejaVuSans-73" transform="translate(985.058594 0)"/>
     <use xlink:href="#DejaVuSans-20" transform="translate(1037.158203 0)"/>
     <use xlink:href="#DejaVuSans-75" transform="translate(1068.945312 0)"/>
     <use xlink:href="#DejaVuSans-73" transform="translate(1132.324219 0)"/>
     <use xlink:href="#DejaVuSans-65" transform="translate(1184.423828 0)"/>
     <use xlink:href="#DejaVuSans-64" transform="translate(1245.947266 0)"/>
     <use xlink:href="#DejaVuSans-20" transform="translate(1309.423828 0)"/>
     <use xlink:href="#DejaVuSans-69" transform="translate(1341.210938 0)"/>
     <use xlink:href="#DejaVuSans-6e" transform="translate(1368.994141 0)"/>
     <use xlink:href="#DejaVuSans-20" transform="translate(1432.373047 0)"/>
     <use xlink:href="#DejaVuSans-4c" transform="translate(1464.160156 0)"/>
     <use xlink:href="#DejaVuSans-4c" transform="translate(1519.873047 0)"/>
     <use xlink:href="#DejaVuSans-4d" transform="translate(1575.585938 0)"/>
     <use xlink:href="#DejaVuSans-20" transform="translate(1661.865234 0)"/>
     <use xlink:href="#DejaVuSans-66" transform="translate(1693.652344 0)"/>
     <use xlink:href="#DejaVuSans-75" transform="translate(1728.857422 0)"/>
     <use xlink:href="#DejaVuSans-6e" transform="translate(1792.236328 0)"/>
     <use xlink:href="#DejaVuSans-63" transform="translate(1855.615234 0)"/>
     <use xlink:href="#DejaVuSans-74" transform="translate(1910.595703 0)"/>
     <use xlink:href="#DejaVuSans-69" transform="translate(1949.804688 0)"/>
     <use xlink:href="#DejaVuSans-6f" transform="translate(1977.587891 0)"/>
     <use xlink:href="#DejaVuSans-6e" transform="translate(2038.769531 0)"/>
     <use xlink:href="#DejaVuSans-29" transform="translate(2102.148438 0)"/>
    </g>
   </g>
   <g id="legend_1">
    <g id="patch_9">
     <path d="M 207.315625 75.503375 
L 312.730625 75.503375 
Q 314.330625 75.503375 314.330625 73.903375 
L 314.330625 39.475875 
Q 314.330625 37.875875 312.730625 37.875875 
L 207.315625 37.875875 
Q 205.715625 37.875875 205.715625 39.475875 
L 205.715625 73.903375 
Q 205.715625 75.503375 207.315625 75.503375 
z
" style="fill: #ffffff; opacity: 0.85; stroke: #cccccc; stroke-linejoin: miter"/>
    </g>
    <g id="line2d_28">
     <path d="M 208.915625 44.354625 
L 216.915625 44.354625 
L 224.915625 44.354625 
" style="fill: none; stroke-dasharray: 5.55,2.4; stroke-dashoffset: 0; stroke: #2ca02c; stroke-opacity: 0.75; stroke-width: 1.5"/>
    </g>
    <g id="text_12">
     <!-- SRPT-oracle median -->
     <g transform="translate(231.315625 47.154625) scale(0.08 -0.08)">
      <defs>
       <path id="DejaVuSans-53" d="M 3425 4513 
L 3425 3897 
Q 3066 4069 2747 4153 
Q 2428 4238 2131 4238 
Q 1616 4238 1336 4038 
Q 1056 3838 1056 3469 
Q 1056 3159 1242 3001 
Q 1428 2844 1947 2747 
L 2328 2669 
Q 3034 2534 3370 2195 
Q 3706 1856 3706 1288 
Q 3706 609 3251 259 
Q 2797 -91 1919 -91 
Q 1588 -91 1214 -16 
Q 841 59 441 206 
L 441 856 
Q 825 641 1194 531 
Q 1563 422 1919 422 
Q 2459 422 2753 634 
Q 3047 847 3047 1241 
Q 3047 1584 2836 1778 
Q 2625 1972 2144 2069 
L 1759 2144 
Q 1053 2284 737 2584 
Q 422 2884 422 3419 
Q 422 4038 858 4394 
Q 1294 4750 2059 4750 
Q 2388 4750 2728 4690 
Q 3069 4631 3425 4513 
z
" transform="scale(0.015625)"/>
       <path id="DejaVuSans-52" d="M 2841 2188 
Q 3044 2119 3236 1894 
Q 3428 1669 3622 1275 
L 4263 0 
L 3584 0 
L 2988 1197 
Q 2756 1666 2539 1819 
Q 2322 1972 1947 1972 
L 1259 1972 
L 1259 0 
L 628 0 
L 628 4666 
L 2053 4666 
Q 2853 4666 3247 4331 
Q 3641 3997 3641 3322 
Q 3641 2881 3436 2590 
Q 3231 2300 2841 2188 
z
M 1259 4147 
L 1259 2491 
L 2053 2491 
Q 2509 2491 2742 2702 
Q 2975 2913 2975 3322 
Q 2975 3731 2742 3939 
Q 2509 4147 2053 4147 
L 1259 4147 
z
" transform="scale(0.015625)"/>
       <path id="DejaVuSans-50" d="M 1259 4147 
L 1259 2394 
L 2053 2394 
Q 2494 2394 2734 2622 
Q 2975 2850 2975 3272 
Q 2975 3691 2734 3919 
Q 2494 4147 2053 4147 
L 1259 4147 
z
M 628 4666 
L 2053 4666 
Q 2838 4666 3239 4311 
Q 3641 3956 3641 3272 
Q 3641 2581 3239 2228 
Q 2838 1875 2053 1875 
L 1259 1875 
L 1259 0 
L 628 0 
L 628 4666 
z
" transform="scale(0.015625)"/>
       <path id="DejaVuSans-54" d="M -19 4666 
L 3928 4666 
L 3928 4134 
L 2272 4134 
L 2272 0 
L 1638 0 
L 1638 4134 
L -19 4134 
L -19 4666 
z
" transform="scale(0.015625)"/>
      </defs>
      <use xlink:href="#DejaVuSans-53"/>
      <use xlink:href="#DejaVuSans-52" transform="translate(63.476562 0)"/>
      <use xlink:href="#DejaVuSans-50" transform="translate(132.958984 0)"/>
      <use xlink:href="#DejaVuSans-54" transform="translate(193.261719 0)"/>
      <use xlink:href="#DejaVuSans-2d" transform="translate(245.220703 0)"/>
      <use xlink:href="#DejaVuSans-6f" transform="translate(283.179688 0)"/>
      <use xlink:href="#DejaVuSans-72" transform="translate(344.361328 0)"/>
      <use xlink:href="#DejaVuSans-61" transform="translate(385.474609 0)"/>
      <use xlink:href="#DejaVuSans-63" transform="translate(446.753906 0)"/>
      <use xlink:href="#DejaVuSans-6c" transform="translate(501.734375 0)"/>
      <use xlink:href="#DejaVuSans-65" transform="translate(529.517578 0)"/>
      <use xlink:href="#DejaVuSans-20" transform="translate(591.041016 0)"/>
      <use xlink:href="#DejaVuSans-6d" transform="translate(622.828125 0)"/>
      <use xlink:href="#DejaVuSans-65" transform="translate(720.240234 0)"/>
      <use xlink:href="#DejaVuSans-64" transform="translate(781.763672 0)"/>
      <use xlink:href="#DejaVuSans-69" transform="translate(845.240234 0)"/>
      <use xlink:href="#DejaVuSans-61" transform="translate(873.023438 0)"/>
      <use xlink:href="#DejaVuSans-6e" transform="translate(934.302734 0)"/>
     </g>
    </g>
    <g id="line2d_29">
     <path d="M 208.915625 56.097125 
L 216.915625 56.097125 
L 224.915625 56.097125 
" style="fill: none; stroke-dasharray: 1.5,2.475; stroke-dashoffset: 0; stroke: #1f77b4; stroke-opacity: 0.75; stroke-width: 1.5"/>
    </g>
    <g id="text_13">
     <!-- SRPT-noisy median -->
     <g transform="translate(231.315625 58.897125) scale(0.08 -0.08)">
      <use xlink:href="#DejaVuSans-53"/>
      <use xlink:href="#DejaVuSans-52" transform="translate(63.476562 0)"/>
      <use xlink:href="#DejaVuSans-50" transform="translate(132.958984 0)"/>
      <use xlink:href="#DejaVuSans-54" transform="translate(193.261719 0)"/>
      <use xlink:href="#DejaVuSans-2d" transform="translate(245.220703 0)"/>
      <use xlink:href="#DejaVuSans-6e" transform="translate(281.304688 0)"/>
      <use xlink:href="#DejaVuSans-6f" transform="translate(344.683594 0)"/>
      <use xlink:href="#DejaVuSans-69" transform="translate(405.865234 0)"/>
      <use xlink:href="#DejaVuSans-73" transform="translate(433.648438 0)"/>
      <use xlink:href="#DejaVuSans-79" transform="translate(485.748047 0)"/>
      <use xlink:href="#DejaVuSans-20" transform="translate(544.927734 0)"/>
      <use xlink:href="#DejaVuSans-6d" transform="translate(576.714844 0)"/>
      <use xlink:href="#DejaVuSans-65" transform="translate(674.126953 0)"/>
      <use xlink:href="#DejaVuSans-64" transform="translate(735.650391 0)"/>
      <use xlink:href="#DejaVuSans-69" transform="translate(799.126953 0)"/>
      <use xlink:href="#DejaVuSans-61" transform="translate(826.910156 0)"/>
      <use xlink:href="#DejaVuSans-6e" transform="translate(888.189453 0)"/>
     </g>
    </g>
    <g id="line2d_30">
     <path d="M 208.915625 67.839625 
L 216.915625 67.839625 
L 224.915625 67.839625 
" style="fill: none; stroke-dasharray: 7.68,1.92,1.2,1.92; stroke-dashoffset: 0; stroke: #ff7f0e; stroke-opacity: 0.75; stroke-width: 1.2"/>
    </g>
    <g id="text_14">
     <!-- LC median -->
     <g transform="translate(231.315625 70.639625) scale(0.08 -0.08)">
      <use xlink:href="#DejaVuSans-4c"/>
      <use xlink:href="#DejaVuSans-43" transform="translate(55.712891 0)"/>
      <use xlink:href="#DejaVuSans-20" transform="translate(125.537109 0)"/>
      <use xlink:href="#DejaVuSans-6d" transform="translate(157.324219 0)"/>
      <use xlink:href="#DejaVuSans-65" transform="translate(254.736328 0)"/>
      <use xlink:href="#DejaVuSans-64" transform="translate(316.259766 0)"/>
      <use xlink:href="#DejaVuSans-69" transform="translate(379.736328 0)"/>
      <use xlink:href="#DejaVuSans-61" transform="translate(407.519531 0)"/>
      <use xlink:href="#DejaVuSans-6e" transform="translate(468.798828 0)"/>
     </g>
    </g>
   </g>
  </g>
 </g>
 <defs>
  <clipPath id="pad048cceaf">
   <rect x="39.330625" y="33.875875" width="279" height="249.48"/>
  </clipPath>
 </defs>
</svg>
