<?xml version="1.0" encoding="utf-8" standalone="no"?>
<!DOCTYPE svg PUBLIC "-//W3C//DTD SVG 1.1//EN"
  "http://www.w3.org/Graphics/SVG/1.1/DTD/svg11.dtd">
<svg xmlns:xlink="http://www.w3.org/1999/xlink" width="744.030625pt" height="396.51175pt" viewBox="0 0 744.030625 396.51175" xmlns="http://www.w3.org/2000/svg" version="1.1">
 <metadata>
  <rdf:RDF xmlns:dc="http://purl.org/dc/elements/1.1/" xmlns:cc="http://creativecommons.org/ns#" xmlns:rdf="http://www.w3.org/1999/02/22-rdf-syntax-ns#">
   <cc:Work>
    <dc:type rdf:resource="http://purl.org/dc/dcmitype/StillImage"/>
    <dc:date>2026-05-03T14:13:20.817700</dc:date>
    <dc:format>image/svg+xml</dc:format>
    <dc:creator>
     <cc:Agent>
      <dc:title>Matplotlib v3.10.8, https://matplotlib.org/</dc:title>
     </cc:Agent>
    </dc:creator>
   </cc:Work>
  </rdf:RDF>
 </metadata>
 <defs>
  <style type="text/css">*{stroke-linejoin: round; stroke-linecap: butt}</style>
 </defs>
 <g id="figure_1">
  <g id="patch_1">
   <path d="M 0 396.51175 
L 744.030625 396.51175 
L 744.030625 0 
L 0 0 
z
" style="fill: #ffffff"/>
  </g>
  <g id="axes_1">
   <g id="patch_2">
    <path d="M 39.330625 273.43175 
L 159.589246 273.43175 
L 159.589246 53.11175 
L 39.330625 53.11175 
z
" style="fill: #ffffff"/>
   </g>
   <g id="matplotlib.axis_1"/>
   <g id="matplotlib.axis_2">
    <g id="ytick_1">
     <g id="line2d_1">
      <path d="M 39.330625 238.374766 
L 159.589246 238.374766 
" clip-path="url(#p69d540be2c)" style="fill: none; stroke: #b0b0b0; stroke-opacity: 0.25; stroke-width: 0.8; stroke-linecap: square"/>
     </g>
     <g id="line2d_2">
      <defs>
       <path id="mc99198a067" d="M 0 0 
L -3.5 0 
" style="stroke: #000000; stroke-width: 0.8"/>
      </defs>
      <g>
       <use xlink:href="#mc99198a067" x="39.330625" y="238.374766" style="stroke: #000000; stroke-width: 0.8"/>
      </g>
     </g>
     <g id="text_1">
      <!-- 5 -->
      <g transform="translate(26.604375 241.794063) scale(0.09 -0.09)">
       <defs>
        <path id="DejaVuSans-35" d="M 691 4666 
L 3169 4666 
L 3169 4134 
L 1269 4134 
L 1269 2991 
Q 1406 3038 1543 3061 
Q 1681 3084 1819 3084 
Q 2600 3084 3056 2656 
Q 3513 2228 3513 1497 
Q 3513 744 3044 326 
Q 2575 -91 1722 -91 
Q 1428 -91 1123 -41 
Q 819 9 494 109 
L 494 744 
Q 775 591 1075 516 
Q 1375 441 1709 441 
Q 2250 441 2565 725 
Q 2881 1009 2881 1497 
Q 2881 1984 2565 2268 
Q 2250 2553 1709 2553 
Q 1456 2553 1204 2497 
Q 953 2441 691 2322 
L 691 4666 
z
" transform="scale(0.015625)"/>
       </defs>
       <use xlink:href="#DejaVuSans-35"/>
      </g>
     </g>
    </g>
    <g id="ytick_2">
     <g id="line2d_3">
      <path d="M 39.330625 191.115882 
L 159.589246 191.115882 
" clip-path="url(#p69d540be2c)" style="fill: none; stroke: #b0b0b0; stroke-opacity: 0.25; stroke-width: 0.8; stroke-linecap: square"/>
     </g>
     <g id="line2d_4">
      <g>
       <use xlink:href="#mc99198a067" x="39.330625" y="191.115882" style="stroke: #000000; stroke-width: 0.8"/>
      </g>
     </g>
     <g id="text_2">
      <!-- 10 -->
      <g transform="translate(20.878125 194.535179) scale(0.09 -0.09)">
       <defs>
        <path id="DejaVuSans-31" d="M 794 531 
L 1825 531 
L 1825 4091 
L 703 3866 
L 703 4441 
L 1819 4666 
L 2450 4666 
L 2450 531 
L 3481 531 
L 3481 0 
L 794 0 
L 794 531 
z
" transform="scale(0.015625)"/>
        <path id="DejaVuSans-30" d="M 2034 4250 
Q 1547 4250 1301 3770 
Q 1056 3291 1056 2328 
Q 1056 1369 1301 889 
Q 1547 409 2034 409 
Q 2525 409 2770 889 
Q 3016 1369 3016 2328 
Q 3016 3291 2770 3770 
Q 2525 4250 2034 4250 
z
M 2034 4750 
Q 2819 4750 3233 4129 
Q 3647 3509 3647 2328 
Q 3647 1150 3233 529 
Q 2819 -91 2034 -91 
Q 1250 -91 836 529 
Q 422 1150 422 2328 
Q 422 3509 836 4129 
Q 1250 4750 2034 4750 
z
" transform="scale(0.015625)"/>
       </defs>
       <use xlink:href="#DejaVuSans-31"/>
       <use xlink:href="#DejaVuSans-30" transform="translate(63.623047 0)"/>
      </g>
     </g>
    </g>
    <g id="ytick_3">
     <g id="line2d_5">
      <path d="M 39.330625 143.856999 
L 159.589246 143.856999 
" clip-path="url(#p69d540be2c)" style="fill: none; stroke: #b0b0b0; stroke-opacity: 0.25; stroke-width: 0.8; stroke-linecap: square"/>
     </g>
     <g id="line2d_6">
      <g>
       <use xlink:href="#mc99198a067" x="39.330625" y="143.856999" style="stroke: #000000; stroke-width: 0.8"/>
      </g>
     </g>
     <g id="text_3">
      <!-- 15 -->
      <g transform="translate(20.878125 147.276295) scale(0.09 -0.09)">
       <use xlink:href="#DejaVuSans-31"/>
       <use xlink:href="#DejaVuSans-35" transform="translate(63.623047 0)"/>
      </g>
     </g>
    </g>
    <g id="ytick_4">
     <g id="line2d_7">
      <path d="M 39.330625 96.598115 
L 159.589246 96.598115 
" clip-path="url(#p69d540be2c)" style="fill: none; stroke: #b0b0b0; stroke-opacity: 0.25; stroke-width: 0.8; stroke-linecap: square"/>
     </g>
     <g id="line2d_8">
      <g>
       <use xlink:href="#mc99198a067" x="39.330625" y="96.598115" style="stroke: #000000; stroke-width: 0.8"/>
      </g>
     </g>
     <g id="text_4">
      <!-- 20 -->
      <g transform="translate(20.878125 100.017412) scale(0.09 -0.09)">
       <defs>
        <path id="DejaVuSans-32" d="M 1228 531 
L 3431 531 
L 3431 0 
L 469 0 
L 469 531 
Q 828 903 1448 1529 
Q 2069 2156 2228 2338 
Q 2531 2678 2651 2914 
Q 2772 3150 2772 3378 
Q 2772 3750 2511 3984 
Q 2250 4219 1831 4219 
Q 1534 4219 1204 4116 
Q 875 4013 500 3803 
L 500 4441 
Q 881 4594 1212 4672 
Q 1544 4750 1819 4750 
Q 2544 4750 2975 4387 
Q 3406 4025 3406 3419 
Q 3406 3131 3298 2873 
Q 3191 2616 2906 2266 
Q 2828 2175 2409 1742 
Q 1991 1309 1228 531 
z
" transform="scale(0.015625)"/>
       </defs>
       <use xlink:href="#DejaVuSans-32"/>
       <use xlink:href="#DejaVuSans-30" transform="translate(63.623047 0)"/>
      </g>
     </g>
    </g>
    <g id="text_5">
     <!-- Mean response time (ms) -->
     <g transform="translate(14.798438 227.042844) rotate(-90) scale(0.1 -0.1)">
      <defs>
       <path id="DejaVuSans-4d" d="M 628 4666 
L 1569 4666 
L 2759 1491 
L 3956 4666 
L 4897 4666 
L 4897 0 
L 4281 0 
L 4281 4097 
L 3078 897 
L 2444 897 
L 1241 4097 
L 1241 0 
L 628 0 
L 628 4666 
z
" transform="scale(0.015625)"/>
       <path id="DejaVuSans-65" d="M 3597 1894 
L 3597 1613 
L 953 1613 
Q 991 1019 1311 708 
Q 1631 397 2203 397 
Q 2534 397 2845 478 
Q 3156 559 3463 722 
L 3463 178 
Q 3153 47 2828 -22 
Q 2503 -91 2169 -91 
Q 1331 -91 842 396 
Q 353 884 353 1716 
Q 353 2575 817 3079 
Q 1281 3584 2069 3584 
Q 2775 3584 3186 3129 
Q 3597 2675 3597 1894 
z
M 3022 2063 
Q 3016 2534 2758 2815 
Q 2500 3097 2075 3097 
Q 1594 3097 1305 2825 
Q 1016 2553 972 2059 
L 3022 2063 
z
" transform="scale(0.015625)"/>
       <path id="DejaVuSans-61" d="M 2194 1759 
Q 1497 1759 1228 1600 
Q 959 1441 959 1056 
Q 959 750 1161 570 
Q 1363 391 1709 391 
Q 2188 391 2477 730 
Q 2766 1069 2766 1631 
L 2766 1759 
L 2194 1759 
z
M 3341 1997 
L 3341 0 
L 2766 0 
L 2766 531 
Q 2569 213 2275 61 
Q 1981 -91 1556 -91 
Q 1019 -91 701 211 
Q 384 513 384 1019 
Q 384 1609 779 1909 
Q 1175 2209 1959 2209 
L 2766 2209 
L 2766 2266 
Q 2766 2663 2505 2880 
Q 2244 3097 1772 3097 
Q 1472 3097 1187 3025 
Q 903 2953 641 2809 
L 641 3341 
Q 956 3463 1253 3523 
Q 1550 3584 1831 3584 
Q 2591 3584 2966 3190 
Q 3341 2797 3341 1997 
z
" transform="scale(0.015625)"/>
       <path id="DejaVuSans-6e" d="M 3513 2113 
L 3513 0 
L 2938 0 
L 2938 2094 
Q 2938 2591 2744 2837 
Q 2550 3084 2163 3084 
Q 1697 3084 1428 2787 
Q 1159 2491 1159 1978 
L 1159 0 
L 581 0 
L 581 3500 
L 1159 3500 
L 1159 2956 
Q 1366 3272 1645 3428 
Q 1925 3584 2291 3584 
Q 2894 3584 3203 3211 
Q 3513 2838 3513 2113 
z
" transform="scale(0.015625)"/>
       <path id="DejaVuSans-20" transform="scale(0.015625)"/>
       <path id="DejaVuSans-72" d="M 2631 2963 
Q 2534 3019 2420 3045 
Q 2306 3072 2169 3072 
Q 1681 3072 1420 2755 
Q 1159 2438 1159 1844 
L 1159 0 
L 581 0 
L 581 3500 
L 1159 3500 
L 1159 2956 
Q 1341 3275 1631 3429 
Q 1922 3584 2338 3584 
Q 2397 3584 2469 3576 
Q 2541 3569 2628 3553 
L 2631 2963 
z
" transform="scale(0.015625)"/>
       <path id="DejaVuSans-73" d="M 2834 3397 
L 2834 2853 
Q 2591 2978 2328 3040 
Q 2066 3103 1784 3103 
Q 1356 3103 1142 2972 
Q 928 2841 928 2578 
Q 928 2378 1081 2264 
Q 1234 2150 1697 2047 
L 1894 2003 
Q 2506 1872 2764 1633 
Q 3022 1394 3022 966 
Q 3022 478 2636 193 
Q 2250 -91 1575 -91 
Q 1294 -91 989 -36 
Q 684 19 347 128 
L 347 722 
Q 666 556 975 473 
Q 1284 391 1588 391 
Q 1994 391 2212 530 
Q 2431 669 2431 922 
Q 2431 1156 2273 1281 
Q 2116 1406 1581 1522 
L 1381 1569 
Q 847 1681 609 1914 
Q 372 2147 372 2553 
Q 372 3047 722 3315 
Q 1072 3584 1716 3584 
Q 2034 3584 2315 3537 
Q 2597 3491 2834 3397 
z
" transform="scale(0.015625)"/>
       <path id="DejaVuSans-70" d="M 1159 525 
L 1159 -1331 
L 581 -1331 
L 581 3500 
L 1159 3500 
L 1159 2969 
Q 1341 3281 1617 3432 
Q 1894 3584 2278 3584 
Q 2916 3584 3314 3078 
Q 3713 2572 3713 1747 
Q 3713 922 3314 415 
Q 2916 -91 2278 -91 
Q 1894 -91 1617 61 
Q 1341 213 1159 525 
z
M 3116 1747 
Q 3116 2381 2855 2742 
Q 2594 3103 2138 3103 
Q 1681 3103 1420 2742 
Q 1159 2381 1159 1747 
Q 1159 1113 1420 752 
Q 1681 391 2138 391 
Q 2594 391 2855 752 
Q 3116 1113 3116 1747 
z
" transform="scale(0.015625)"/>
       <path id="DejaVuSans-6f" d="M 1959 3097 
Q 1497 3097 1228 2736 
Q 959 2375 959 1747 
Q 959 1119 1226 758 
Q 1494 397 1959 397 
Q 2419 397 2687 759 
Q 2956 1122 2956 1747 
Q 2956 2369 2687 2733 
Q 2419 3097 1959 3097 
z
M 1959 3584 
Q 2709 3584 3137 3096 
Q 3566 2609 3566 1747 
Q 3566 888 3137 398 
Q 2709 -91 1959 -91 
Q 1206 -91 779 398 
Q 353 888 353 1747 
Q 353 2609 779 3096 
Q 1206 3584 1959 3584 
z
" transform="scale(0.015625)"/>
       <path id="DejaVuSans-74" d="M 1172 4494 
L 1172 3500 
L 2356 3500 
L 2356 3053 
L 1172 3053 
L 1172 1153 
Q 1172 725 1289 603 
Q 1406 481 1766 481 
L 2356 481 
L 2356 0 
L 1766 0 
Q 1100 0 847 248 
Q 594 497 594 1153 
L 594 3053 
L 172 3053 
L 172 3500 
L 594 3500 
L 594 4494 
L 1172 4494 
z
" transform="scale(0.015625)"/>
       <path id="DejaVuSans-69" d="M 603 3500 
L 1178 3500 
L 1178 0 
L 603 0 
L 603 3500 
z
M 603 4863 
L 1178 4863 
L 1178 4134 
L 603 4134 
L 603 4863 
z
" transform="scale(0.015625)"/>
       <path id="DejaVuSans-6d" d="M 3328 2828 
Q 3544 3216 3844 3400 
Q 4144 3584 4550 3584 
Q 5097 3584 5394 3201 
Q 5691 2819 5691 2113 
L 5691 0 
L 5113 0 
L 5113 2094 
Q 5113 2597 4934 2840 
Q 4756 3084 4391 3084 
Q 3944 3084 3684 2787 
Q 3425 2491 3425 1978 
L 3425 0 
L 2847 0 
L 2847 2094 
Q 2847 2600 2669 2842 
Q 2491 3084 2119 3084 
Q 1678 3084 1418 2786 
Q 1159 2488 1159 1978 
L 1159 0 
L 581 0 
L 581 3500 
L 1159 3500 
L 1159 2956 
Q 1356 3278 1631 3431 
Q 1906 3584 2284 3584 
Q 2666 3584 2933 3390 
Q 3200 3197 3328 2828 
z
" transform="scale(0.015625)"/>
       <path id="DejaVuSans-28" d="M 1984 4856 
Q 1566 4138 1362 3434 
Q 1159 2731 1159 2009 
Q 1159 1288 1364 580 
Q 1569 -128 1984 -844 
L 1484 -844 
Q 1016 -109 783 600 
Q 550 1309 550 2009 
Q 550 2706 781 3412 
Q 1013 4119 1484 4856 
L 1984 4856 
z
" transform="scale(0.015625)"/>
       <path id="DejaVuSans-29" d="M 513 4856 
L 1013 4856 
Q 1481 4119 1714 3412 
Q 1947 2706 1947 2009 
Q 1947 1309 1714 600 
Q 1481 -109 1013 -844 
L 513 -844 
Q 928 -128 1133 580 
Q 1338 1288 1338 2009 
Q 1338 2731 1133 3434 
Q 928 4138 513 4856 
z
" transform="scale(0.015625)"/>
      </defs>
      <use xlink:href="#DejaVuSans-4d"/>
      <use xlink:href="#DejaVuSans-65" transform="translate(86.279297 0)"/>
      <use xlink:href="#DejaVuSans-61" transform="translate(147.802734 0)"/>
      <use xlink:href="#DejaVuSans-6e" transform="translate(209.082031 0)"/>
      <use xlink:href="#DejaVuSans-20" transform="translate(272.460938 0)"/>
      <use xlink:href="#DejaVuSans-72" transform="translate(304.248047 0)"/>
      <use xlink:href="#DejaVuSans-65" transform="translate(343.111328 0)"/>
      <use xlink:href="#DejaVuSans-73" transform="translate(404.634766 0)"/>
      <use xlink:href="#DejaVuSans-70" transform="translate(456.734375 0)"/>
      <use xlink:href="#DejaVuSans-6f" transform="translate(520.210938 0)"/>
      <use xlink:href="#DejaVuSans-6e" transform="translate(581.392578 0)"/>
      <use xlink:href="#DejaVuSans-73" transform="translate(644.771484 0)"/>
      <use xlink:href="#DejaVuSans-65" transform="translate(696.871094 0)"/>
      <use xlink:href="#DejaVuSans-20" transform="translate(758.394531 0)"/>
      <use xlink:href="#DejaVuSans-74" transform="translate(790.181641 0)"/>
      <use xlink:href="#DejaVuSans-69" transform="translate(829.390625 0)"/>
      <use xlink:href="#DejaVuSans-6d" transform="translate(857.173828 0)"/>
      <use xlink:href="#DejaVuSans-65" transform="translate(954.585938 0)"/>
      <use xlink:href="#DejaVuSans-20" transform="translate(1016.109375 0)"/>
      <use xlink:href="#DejaVuSans-28" transform="translate(1047.896484 0)"/>
      <use xlink:href="#DejaVuSans-6d" transform="translate(1086.910156 0)"/>
      <use xlink:href="#DejaVuSans-73" transform="translate(1184.322266 0)"/>
      <use xlink:href="#DejaVuSans-29" transform="translate(1236.421875 0)"/>
     </g>
    </g>
   </g>
   <g id="line2d_9">
    <path d="M 39.330625 268.058306 
L 159.589246 268.058306 
" clip-path="url(#p69d540be2c)" style="fill: none; stroke-dasharray: 5.55,2.4; stroke-dashoffset: 0; stroke: #2ca02c; stroke-opacity: 0.8; stroke-width: 1.5"/>
   </g>
   <g id="line2d_10">
    <path d="M 39.330625 266.767742 
L 159.589246 266.767742 
" clip-path="url(#p69d540be2c)" style="fill: none; stroke-dasharray: 1.5,2.475; stroke-dashoffset: 0; stroke: #1f77b4; stroke-opacity: 0.8; stroke-width: 1.5"/>
   </g>
   <g id="line2d_11">
    <path d="M 39.330625 263.263348 
L 159.589246 263.263348 
" clip-path="url(#p69d540be2c)" style="fill: none; stroke-dasharray: 7.68,1.92,1.2,1.92; stroke-dashoffset: 0; stroke: #ff7f0e; stroke-opacity: 0.8; stroke-width: 1.2"/>
   </g>
   <g id="patch_3">
    <path d="M 39.330625 273.43175 
L 39.330625 53.11175 
" style="fill: none; stroke: #000000; stroke-width: 0.8; stroke-linejoin: miter; stroke-linecap: square"/>
   </g>
   <g id="patch_4">
    <path d="M 159.589246 273.43175 
L 159.589246 53.11175 
" style="fill: none; stroke: #000000; stroke-width: 0.8; stroke-linejoin: miter; stroke-linecap: square"/>
   </g>
   <g id="patch_5">
    <path d="M 39.330625 273.43175 
L 159.589246 273.43175 
" style="fill: none; stroke: #000000; stroke-width: 0.8; stroke-linejoin: miter; stroke-linecap: square"/>
   </g>
   <g id="patch_6">
    <path d="M 39.330625 53.11175 
L 159.589246 53.11175 
" style="fill: none; stroke: #000000; stroke-width: 0.8; stroke-linejoin: miter; stroke-linecap: square"/>
   </g>
   <g id="PathCollection_1">
    <defs>
     <path id="m6f493da614" d="M 0 1.732051 
C 0.459345 1.732051 0.899939 1.549551 1.224745 1.224745 
C 1.549551 0.899939 1.732051 0.459345 1.732051 0 
C 1.732051 -0.459345 1.549551 -0.899939 1.224745 -1.224745 
C 0.899939 -1.549551 0.459345 -1.732051 0 -1.732051 
C -0.459345 -1.732051 -0.899939 -1.549551 -1.224745 -1.224745 
C -1.549551 -0.899939 -1.732051 -0.459345 -1.732051 0 
C -1.732051 0.459345 -1.549551 0.899939 -1.224745 1.224745 
C -0.899939 1.549551 -0.459345 1.732051 0 1.732051 
z
" style="stroke: #2ca02c; stroke-opacity: 0.6"/>
    </defs>
    <g clip-path="url(#p69d540be2c)">
     <use xlink:href="#m6f493da614" x="99.459935" y="270.028771" style="fill: #2ca02c; fill-opacity: 0.6; stroke: #2ca02c; stroke-opacity: 0.6"/>
    </g>
   </g>
   <g id="text_6">
    <!-- Qwen3 -->
    <g transform="translate(85.498685 40.1535) scale(0.08 -0.08)">
     <defs>
      <path id="DejaVuSans-51" d="M 2522 4238 
Q 1834 4238 1429 3725 
Q 1025 3213 1025 2328 
Q 1025 1447 1429 934 
Q 1834 422 2522 422 
Q 3209 422 3611 934 
Q 4013 1447 4013 2328 
Q 4013 3213 3611 3725 
Q 3209 4238 2522 4238 
z
M 3406 84 
L 4238 -825 
L 3475 -825 
L 2784 -78 
Q 2681 -84 2626 -87 
Q 2572 -91 2522 -91 
Q 1538 -91 948 567 
Q 359 1225 359 2328 
Q 359 3434 948 4092 
Q 1538 4750 2522 4750 
Q 3503 4750 4090 4092 
Q 4678 3434 4678 2328 
Q 4678 1516 4351 937 
Q 4025 359 3406 84 
z
" transform="scale(0.015625)"/>
      <path id="DejaVuSans-77" d="M 269 3500 
L 844 3500 
L 1563 769 
L 2278 3500 
L 2956 3500 
L 3675 769 
L 4391 3500 
L 4966 3500 
L 4050 0 
L 3372 0 
L 2619 2869 
L 1863 0 
L 1184 0 
L 269 3500 
z
" transform="scale(0.015625)"/>
      <path id="DejaVuSans-33" d="M 2597 2516 
Q 3050 2419 3304 2112 
Q 3559 1806 3559 1356 
Q 3559 666 3084 287 
Q 2609 -91 1734 -91 
Q 1441 -91 1130 -33 
Q 819 25 488 141 
L 488 750 
Q 750 597 1062 519 
Q 1375 441 1716 441 
Q 2309 441 2620 675 
Q 2931 909 2931 1356 
Q 2931 1769 2642 2001 
Q 2353 2234 1838 2234 
L 1294 2234 
L 1294 2753 
L 1863 2753 
Q 2328 2753 2575 2939 
Q 2822 3125 2822 3475 
Q 2822 3834 2567 4026 
Q 2313 4219 1838 4219 
Q 1578 4219 1281 4162 
Q 984 4106 628 3988 
L 628 4550 
Q 988 4650 1302 4700 
Q 1616 4750 1894 4750 
Q 2613 4750 3031 4423 
Q 3450 4097 3450 3541 
Q 3450 3153 3228 2886 
Q 3006 2619 2597 2516 
z
" transform="scale(0.015625)"/>
     </defs>
     <use xlink:href="#DejaVuSans-51"/>
     <use xlink:href="#DejaVuSans-77" transform="translate(78.710938 0)"/>
     <use xlink:href="#DejaVuSans-65" transform="translate(160.498047 0)"/>
     <use xlink:href="#DejaVuSans-6e" transform="translate(222.021484 0)"/>
     <use xlink:href="#DejaVuSans-33" transform="translate(285.400391 0)"/>
    </g>
    <!-- 8B -->
    <g transform="translate(94.17056 49.11175) scale(0.08 -0.08)">
     <defs>
      <path id="DejaVuSans-38" d="M 2034 2216 
Q 1584 2216 1326 1975 
Q 1069 1734 1069 1313 
Q 1069 891 1326 650 
Q 1584 409 2034 409 
Q 2484 409 2743 651 
Q 3003 894 3003 1313 
Q 3003 1734 2745 1975 
Q 2488 2216 2034 2216 
z
M 1403 2484 
Q 997 2584 770 2862 
Q 544 3141 544 3541 
Q 544 4100 942 4425 
Q 1341 4750 2034 4750 
Q 2731 4750 3128 4425 
Q 3525 4100 3525 3541 
Q 3525 3141 3298 2862 
Q 3072 2584 2669 2484 
Q 3125 2378 3379 2068 
Q 3634 1759 3634 1313 
Q 3634 634 3220 271 
Q 2806 -91 2034 -91 
Q 1263 -91 848 271 
Q 434 634 434 1313 
Q 434 1759 690 2068 
Q 947 2378 1403 2484 
z
M 1172 3481 
Q 1172 3119 1398 2916 
Q 1625 2713 2034 2713 
Q 2441 2713 2670 2916 
Q 2900 3119 2900 3481 
Q 2900 3844 2670 4047 
Q 2441 4250 2034 4250 
Q 1625 4250 1398 4047 
Q 1172 3844 1172 3481 
z
" transform="scale(0.015625)"/>
      <path id="DejaVuSans-42" d="M 1259 2228 
L 1259 519 
L 2272 519 
Q 2781 519 3026 730 
Q 3272 941 3272 1375 
Q 3272 1813 3026 2020 
Q 2781 2228 2272 2228 
L 1259 2228 
z
M 1259 4147 
L 1259 2741 
L 2194 2741 
Q 2656 2741 2882 2914 
Q 3109 3088 3109 3444 
Q 3109 3797 2882 3972 
Q 2656 4147 2194 4147 
L 1259 4147 
z
M 628 4666 
L 2241 4666 
Q 2963 4666 3353 4366 
Q 3744 4066 3744 3513 
Q 3744 3084 3544 2831 
Q 3344 2578 2956 2516 
Q 3422 2416 3680 2098 
Q 3938 1781 3938 1306 
Q 3938 681 3513 340 
Q 3088 0 2303 0 
L 628 0 
L 628 4666 
z
" transform="scale(0.015625)"/>
     </defs>
     <use xlink:href="#DejaVuSans-38"/>
     <use xlink:href="#DejaVuSans-42" transform="translate(63.623047 0)"/>
    </g>
   </g>
  </g>
  <g id="axes_2">
   <g id="patch_7">
    <path d="M 183.64097 273.43175 
L 303.899591 273.43175 
L 303.899591 53.11175 
L 183.64097 53.11175 
z
" style="fill: #ffffff"/>
   </g>
   <g id="FillBetweenPolyCollection_1">
    <path d="M 293.470219 272.060145 
L 194.070342 272.060145 
L 192.25541 270.785664 
L 190.829667 269.511183 
L 189.820854 268.236703 
L 189.245279 266.962222 
L 189.107271 265.687741 
L 189.399191 264.41326 
L 190.102012 263.13878 
L 191.186402 261.864299 
L 192.614248 260.589818 
L 194.340518 259.315337 
L 196.315336 258.040857 
L 198.486145 256.766376 
L 200.79984 255.491895 
L 203.204751 254.217414 
L 205.652383 252.942933 
L 208.098839 251.668453 
L 210.505886 250.393972 
L 212.841633 249.119491 
L 215.080838 247.84501 
L 217.204865 246.57053 
L 219.201337 245.296049 
L 221.063552 244.021568 
L 222.78971 242.747087 
L 224.382045 241.472607 
L 225.845895 240.198126 
L 227.188808 238.923645 
L 228.419697 237.649164 
L 229.548109 236.374683 
L 230.58362 235.100203 
L 231.535379 233.825722 
L 232.411794 232.551241 
L 233.220356 231.27676 
L 233.967588 230.00228 
L 234.659087 228.727799 
L 235.299635 227.453318 
L 235.893361 226.178837 
L 236.44391 224.904357 
L 236.954609 223.629876 
L 237.428607 222.355395 
L 237.868977 221.080914 
L 238.278773 219.806433 
L 238.661042 218.531953 
L 239.018794 217.257472 
L 239.354949 215.982991 
L 239.672251 214.70851 
L 239.973189 213.43403 
L 240.259915 212.159549 
L 240.534181 210.885068 
L 240.797297 209.610587 
L 241.050122 208.336107 
L 241.293079 207.061626 
L 241.526204 205.787145 
L 241.749208 204.512664 
L 241.961567 203.238183 
L 242.162607 201.963703 
L 242.351603 200.689222 
L 242.527862 199.414741 
L 242.690796 198.14026 
L 242.839979 196.86578 
L 242.975185 195.591299 
L 243.096403 194.316818 
L 243.203839 193.042337 
L 243.297892 191.767857 
L 243.379128 190.493376 
L 243.448234 189.218895 
L 243.50597 187.944414 
L 243.553123 186.669933 
L 243.590455 185.395453 
L 243.618659 184.120972 
L 243.638319 182.846491 
L 243.649882 181.57201 
L 243.653633 180.29753 
L 243.649684 179.023049 
L 243.637975 177.748568 
L 243.61828 176.474087 
L 243.590231 175.199607 
L 243.553348 173.925126 
L 243.507083 172.650645 
L 243.450868 171.376164 
L 243.38418 170.101684 
L 243.306602 168.827203 
L 243.217899 167.552722 
L 243.118081 166.278241 
L 243.007472 165.00376 
L 242.886767 163.72928 
L 242.757075 162.454799 
L 242.619944 161.180318 
L 242.477366 159.905837 
L 242.331753 158.631357 
L 242.185893 157.356876 
L 242.042875 156.082395 
L 241.905986 154.807914 
L 241.778598 153.533434 
L 241.664029 152.258953 
L 241.565403 150.984472 
L 241.485511 149.709991 
L 241.426678 148.43551 
L 241.390654 147.16103 
L 241.378524 145.886549 
L 246.162036 145.886549 
L 246.162036 145.886549 
L 246.149906 147.16103 
L 246.113882 148.43551 
L 246.055049 149.709991 
L 245.975158 150.984472 
L 245.876532 152.258953 
L 245.761962 153.533434 
L 245.634574 154.807914 
L 245.497686 156.082395 
L 245.354667 157.356876 
L 245.208808 158.631357 
L 245.063195 159.905837 
L 244.920616 161.180318 
L 244.783485 162.454799 
L 244.653793 163.72928 
L 244.533089 165.00376 
L 244.42248 166.278241 
L 244.322661 167.552722 
L 244.233958 168.827203 
L 244.156381 170.101684 
L 244.089692 171.376164 
L 244.033478 172.650645 
L 243.987212 173.925126 
L 243.950329 175.199607 
L 243.922281 176.474087 
L 243.902586 177.748568 
L 243.890876 179.023049 
L 243.886927 180.29753 
L 243.890678 181.57201 
L 243.902241 182.846491 
L 243.921901 184.120972 
L 243.950105 185.395453 
L 243.987437 186.669933 
L 244.034591 187.944414 
L 244.092327 189.218895 
L 244.161432 190.493376 
L 244.242668 191.767857 
L 244.336721 193.042337 
L 244.444157 194.316818 
L 244.565375 195.591299 
L 244.700581 196.86578 
L 244.849764 198.14026 
L 245.012698 199.414741 
L 245.188957 200.689222 
L 245.377954 201.963703 
L 245.578994 203.238183 
L 245.791352 204.512664 
L 246.014356 205.787145 
L 246.247481 207.061626 
L 246.490439 208.336107 
L 246.743263 209.610587 
L 247.006379 210.885068 
L 247.280645 212.159549 
L 247.567371 213.43403 
L 247.86831 214.70851 
L 248.185612 215.982991 
L 248.521766 217.257472 
L 248.879519 218.531953 
L 249.261787 219.806433 
L 249.671583 221.080914 
L 250.111953 222.355395 
L 250.585951 223.629876 
L 251.09665 224.904357 
L 251.647199 226.178837 
L 252.240925 227.453318 
L 252.881473 228.727799 
L 253.572972 230.00228 
L 254.320204 231.27676 
L 255.128767 232.551241 
L 256.005181 233.825722 
L 256.95694 235.100203 
L 257.992452 236.374683 
L 259.120863 237.649164 
L 260.351752 238.923645 
L 261.694665 240.198126 
L 263.158516 241.472607 
L 264.75085 242.747087 
L 266.477009 244.021568 
L 268.339223 245.296049 
L 270.335696 246.57053 
L 272.459722 247.84501 
L 274.698927 249.119491 
L 277.034674 250.393972 
L 279.441721 251.668453 
L 281.888178 252.942933 
L 284.335809 254.217414 
L 286.740721 255.491895 
L 289.054416 256.766376 
L 291.225225 258.040857 
L 293.200042 259.315337 
L 294.926313 260.589818 
L 296.354158 261.864299 
L 297.438548 263.13878 
L 298.141369 264.41326 
L 298.43329 265.687741 
L 298.295281 266.962222 
L 297.719706 268.236703 
L 296.710893 269.511183 
L 295.285151 270.785664 
L 293.470219 272.060145 
z
" clip-path="url(#p72c49779ba)" style="fill: #9467bd; fill-opacity: 0.35"/>
   </g>
   <g id="matplotlib.axis_3"/>
   <g id="matplotlib.axis_4">
    <g id="ytick_5">
     <g id="line2d_12">
      <path d="M 183.64097 238.374766 
L 303.899591 238.374766 
" clip-path="url(#p72c49779ba)" style="fill: none; stroke: #b0b0b0; stroke-opacity: 0.25; stroke-width: 0.8; stroke-linecap: square"/>
     </g>
     <g id="line2d_13">
      <g>
       <use xlink:href="#mc99198a067" x="183.64097" y="238.374766" style="stroke: #000000; stroke-width: 0.8"/>
      </g>
     </g>
    </g>
    <g id="ytick_6">
     <g id="line2d_14">
      <path d="M 183.64097 191.115882 
L 303.899591 191.115882 
" clip-path="url(#p72c49779ba)" style="fill: none; stroke: #b0b0b0; stroke-opacity: 0.25; stroke-width: 0.8; stroke-linecap: square"/>
     </g>
     <g id="line2d_15">
      <g>
       <use xlink:href="#mc99198a067" x="183.64097" y="191.115882" style="stroke: #000000; stroke-width: 0.8"/>
      </g>
     </g>
    </g>
    <g id="ytick_7">
     <g id="line2d_16">
      <path d="M 183.64097 143.856999 
L 303.899591 143.856999 
" clip-path="url(#p72c49779ba)" style="fill: none; stroke: #b0b0b0; stroke-opacity: 0.25; stroke-width: 0.8; stroke-linecap: square"/>
     </g>
     <g id="line2d_17">
      <g>
       <use xlink:href="#mc99198a067" x="183.64097" y="143.856999" style="stroke: #000000; stroke-width: 0.8"/>
      </g>
     </g>
    </g>
    <g id="ytick_8">
     <g id="line2d_18">
      <path d="M 183.64097 96.598115 
L 303.899591 96.598115 
" clip-path="url(#p72c49779ba)" style="fill: none; stroke: #b0b0b0; stroke-opacity: 0.25; stroke-width: 0.8; stroke-linecap: square"/>
     </g>
     <g id="line2d_19">
      <g>
       <use xlink:href="#mc99198a067" x="183.64097" y="96.598115" style="stroke: #000000; stroke-width: 0.8"/>
      </g>
     </g>
    </g>
   </g>
   <g id="LineCollection_1">
    <path d="M 216.438775 266.553771 
L 271.101785 266.553771 
" clip-path="url(#p72c49779ba)" style="fill: none; stroke: #ffffff; stroke-width: 2"/>
   </g>
   <g id="line2d_20">
    <path d="M 183.64097 268.058306 
L 303.899591 268.058306 
" clip-path="url(#p72c49779ba)" style="fill: none; stroke-dasharray: 5.55,2.4; stroke-dashoffset: 0; stroke: #2ca02c; stroke-opacity: 0.8; stroke-width: 1.5"/>
   </g>
   <g id="line2d_21">
    <path d="M 183.64097 266.767742 
L 303.899591 266.767742 
" clip-path="url(#p72c49779ba)" style="fill: none; stroke-dasharray: 1.5,2.475; stroke-dashoffset: 0; stroke: #1f77b4; stroke-opacity: 0.8; stroke-width: 1.5"/>
   </g>
   <g id="line2d_22">
    <path d="M 183.64097 263.263348 
L 303.899591 263.263348 
" clip-path="url(#p72c49779ba)" style="fill: none; stroke-dasharray: 7.68,1.92,1.2,1.92; stroke-dashoffset: 0; stroke: #ff7f0e; stroke-opacity: 0.8; stroke-width: 1.2"/>
   </g>
   <g id="patch_8">
    <path d="M 183.64097 273.43175 
L 183.64097 53.11175 
" style="fill: none; stroke: #000000; stroke-width: 0.8; stroke-linejoin: miter; stroke-linecap: square"/>
   </g>
   <g id="patch_9">
    <path d="M 303.899591 273.43175 
L 303.899591 53.11175 
" style="fill: none; stroke: #000000; stroke-width: 0.8; stroke-linejoin: miter; stroke-linecap: square"/>
   </g>
   <g id="patch_10">
    <path d="M 183.64097 273.43175 
L 303.899591 273.43175 
" style="fill: none; stroke: #000000; stroke-width: 0.8; stroke-linejoin: miter; stroke-linecap: square"/>
   </g>
   <g id="patch_11">
    <path d="M 183.64097 53.11175 
L 303.899591 53.11175 
" style="fill: none; stroke: #000000; stroke-width: 0.8; stroke-linejoin: miter; stroke-linecap: square"/>
   </g>
   <g id="PathCollection_2">
    <g clip-path="url(#p72c49779ba)">
     <use xlink:href="#m6f493da614" x="250.616114" y="266.980992" style="fill: #2ca02c; fill-opacity: 0.6; stroke: #2ca02c; stroke-opacity: 0.6"/>
     <use xlink:href="#m6f493da614" x="242.242925" y="268.474138" style="fill: #2ca02c; fill-opacity: 0.6; stroke: #2ca02c; stroke-opacity: 0.6"/>
     <use xlink:href="#m6f493da614" x="252.731213" y="271.307473" style="fill: #2ca02c; fill-opacity: 0.6; stroke: #2ca02c; stroke-opacity: 0.6"/>
     <use xlink:href="#m6f493da614" x="248.702271" y="266.126551" style="fill: #2ca02c; fill-opacity: 0.6; stroke: #2ca02c; stroke-opacity: 0.6"/>
     <use xlink:href="#m6f493da614" x="233.629257" y="235.960298" style="fill: #2ca02c; fill-opacity: 0.6; stroke: #2ca02c; stroke-opacity: 0.6"/>
     <use xlink:href="#m6f493da614" x="255.655514" y="261.200415" style="fill: #2ca02c; fill-opacity: 0.6; stroke: #2ca02c; stroke-opacity: 0.6"/>
     <use xlink:href="#m6f493da614" x="250.295849" y="261.364503" style="fill: #2ca02c; fill-opacity: 0.6; stroke: #2ca02c; stroke-opacity: 0.6"/>
     <use xlink:href="#m6f493da614" x="250.918685" y="269.882748" style="fill: #2ca02c; fill-opacity: 0.6; stroke: #2ca02c; stroke-opacity: 0.6"/>
     <use xlink:href="#m6f493da614" x="234.477285" y="266.125695" style="fill: #2ca02c; fill-opacity: 0.6; stroke: #2ca02c; stroke-opacity: 0.6"/>
     <use xlink:href="#m6f493da614" x="242.530484" y="268.42157" style="fill: #2ca02c; fill-opacity: 0.6; stroke: #2ca02c; stroke-opacity: 0.6"/>
     <use xlink:href="#m6f493da614" x="240.541677" y="267.60123" style="fill: #2ca02c; fill-opacity: 0.6; stroke: #2ca02c; stroke-opacity: 0.6"/>
     <use xlink:href="#m6f493da614" x="254.434627" y="265.85084" style="fill: #2ca02c; fill-opacity: 0.6; stroke: #2ca02c; stroke-opacity: 0.6"/>
     <use xlink:href="#m6f493da614" x="247.365298" y="241.15701" style="fill: #2ca02c; fill-opacity: 0.6; stroke: #2ca02c; stroke-opacity: 0.6"/>
     <use xlink:href="#m6f493da614" x="251.835707" y="272.060145" style="fill: #2ca02c; fill-opacity: 0.6; stroke: #2ca02c; stroke-opacity: 0.6"/>
     <use xlink:href="#m6f493da614" x="242.356269" y="249.125934" style="fill: #2ca02c; fill-opacity: 0.6; stroke: #2ca02c; stroke-opacity: 0.6"/>
     <use xlink:href="#m6f493da614" x="236.954302" y="145.886549" style="fill: #2ca02c; fill-opacity: 0.6; stroke: #2ca02c; stroke-opacity: 0.6"/>
     <use xlink:href="#m6f493da614" x="245.134289" y="267.928554" style="fill: #2ca02c; fill-opacity: 0.6; stroke: #2ca02c; stroke-opacity: 0.6"/>
     <use xlink:href="#m6f493da614" x="232.870595" y="214.807737" style="fill: #2ca02c; fill-opacity: 0.6; stroke: #2ca02c; stroke-opacity: 0.6"/>
     <use xlink:href="#m6f493da614" x="251.957391" y="251.674898" style="fill: #2ca02c; fill-opacity: 0.6; stroke: #2ca02c; stroke-opacity: 0.6"/>
     <use xlink:href="#m6f493da614" x="247.060416" y="271.635747" style="fill: #2ca02c; fill-opacity: 0.6; stroke: #2ca02c; stroke-opacity: 0.6"/>
     <use xlink:href="#m6f493da614" x="250.219584" y="270.128506" style="fill: #2ca02c; fill-opacity: 0.6; stroke: #2ca02c; stroke-opacity: 0.6"/>
     <use xlink:href="#m6f493da614" x="240.135058" y="269.143346" style="fill: #2ca02c; fill-opacity: 0.6; stroke: #2ca02c; stroke-opacity: 0.6"/>
     <use xlink:href="#m6f493da614" x="255.532461" y="234.175656" style="fill: #2ca02c; fill-opacity: 0.6; stroke: #2ca02c; stroke-opacity: 0.6"/>
     <use xlink:href="#m6f493da614" x="253.593907" y="267.290141" style="fill: #2ca02c; fill-opacity: 0.6; stroke: #2ca02c; stroke-opacity: 0.6"/>
     <use xlink:href="#m6f493da614" x="250.726751" y="268.013252" style="fill: #2ca02c; fill-opacity: 0.6; stroke: #2ca02c; stroke-opacity: 0.6"/>
     <use xlink:href="#m6f493da614" x="236.139667" y="257.532662" style="fill: #2ca02c; fill-opacity: 0.6; stroke: #2ca02c; stroke-opacity: 0.6"/>
     <use xlink:href="#m6f493da614" x="242.938678" y="255.343636" style="fill: #2ca02c; fill-opacity: 0.6; stroke: #2ca02c; stroke-opacity: 0.6"/>
     <use xlink:href="#m6f493da614" x="232.370482" y="270.336413" style="fill: #2ca02c; fill-opacity: 0.6; stroke: #2ca02c; stroke-opacity: 0.6"/>
     <use xlink:href="#m6f493da614" x="235.131388" y="261.23047" style="fill: #2ca02c; fill-opacity: 0.6; stroke: #2ca02c; stroke-opacity: 0.6"/>
     <use xlink:href="#m6f493da614" x="248.344455" y="270.829336" style="fill: #2ca02c; fill-opacity: 0.6; stroke: #2ca02c; stroke-opacity: 0.6"/>
    </g>
   </g>
   <g id="text_7">
    <!-- gpt -->
    <g transform="translate(237.123405 31.19525) scale(0.08 -0.08)">
     <defs>
      <path id="DejaVuSans-67" d="M 2906 1791 
Q 2906 2416 2648 2759 
Q 2391 3103 1925 3103 
Q 1463 3103 1205 2759 
Q 947 2416 947 1791 
Q 947 1169 1205 825 
Q 1463 481 1925 481 
Q 2391 481 2648 825 
Q 2906 1169 2906 1791 
z
M 3481 434 
Q 3481 -459 3084 -895 
Q 2688 -1331 1869 -1331 
Q 1566 -1331 1297 -1286 
Q 1028 -1241 775 -1147 
L 775 -588 
Q 1028 -725 1275 -790 
Q 1522 -856 1778 -856 
Q 2344 -856 2625 -561 
Q 2906 -266 2906 331 
L 2906 616 
Q 2728 306 2450 153 
Q 2172 0 1784 0 
Q 1141 0 747 490 
Q 353 981 353 1791 
Q 353 2603 747 3093 
Q 1141 3584 1784 3584 
Q 2172 3584 2450 3431 
Q 2728 3278 2906 2969 
L 2906 3500 
L 3481 3500 
L 3481 434 
z
" transform="scale(0.015625)"/>
     </defs>
     <use xlink:href="#DejaVuSans-67"/>
     <use xlink:href="#DejaVuSans-70" transform="translate(63.476562 0)"/>
     <use xlink:href="#DejaVuSans-74" transform="translate(126.953125 0)"/>
    </g>
    <!-- oss -->
    <g transform="translate(237.15528 40.1535) scale(0.08 -0.08)">
     <use xlink:href="#DejaVuSans-6f"/>
     <use xlink:href="#DejaVuSans-73" transform="translate(61.181641 0)"/>
     <use xlink:href="#DejaVuSans-73" transform="translate(113.28125 0)"/>
    </g>
    <!-- 20b -->
    <g transform="translate(236.140905 49.11175) scale(0.08 -0.08)">
     <defs>
      <path id="DejaVuSans-62" d="M 3116 1747 
Q 3116 2381 2855 2742 
Q 2594 3103 2138 3103 
Q 1681 3103 1420 2742 
Q 1159 2381 1159 1747 
Q 1159 1113 1420 752 
Q 1681 391 2138 391 
Q 2594 391 2855 752 
Q 3116 1113 3116 1747 
z
M 1159 2969 
Q 1341 3281 1617 3432 
Q 1894 3584 2278 3584 
Q 2916 3584 3314 3078 
Q 3713 2572 3713 1747 
Q 3713 922 3314 415 
Q 2916 -91 2278 -91 
Q 1894 -91 1617 61 
Q 1341 213 1159 525 
L 1159 0 
L 581 0 
L 581 4863 
L 1159 4863 
L 1159 2969 
z
" transform="scale(0.015625)"/>
     </defs>
     <use xlink:href="#DejaVuSans-32"/>
     <use xlink:href="#DejaVuSans-30" transform="translate(63.623047 0)"/>
     <use xlink:href="#DejaVuSans-62" transform="translate(127.246094 0)"/>
    </g>
   </g>
  </g>
  <g id="axes_3">
   <g id="patch_12">
    <path d="M 327.951315 273.43175 
L 448.209935 273.43175 
L 448.209935 53.11175 
L 327.951315 53.11175 
z
" style="fill: #ffffff"/>
   </g>
   <g id="FillBetweenPolyCollection_2">
    <path d="M 442.582588 270.251173 
L 333.578662 270.251173 
L 333.417616 265.965348 
L 333.531763 261.679523 
L 333.91938 257.393698 
L 334.57464 253.107873 
L 335.487751 248.822048 
L 336.645209 244.536223 
L 338.030122 240.250398 
L 339.622626 235.964573 
L 341.400354 231.678748 
L 343.33896 227.392923 
L 345.412673 223.107098 
L 347.59486 218.821273 
L 349.858589 214.535448 
L 352.177173 210.249623 
L 354.524675 205.963799 
L 356.87637 201.677974 
L 359.209144 197.392149 
L 361.50183 193.106324 
L 363.735472 188.820499 
L 365.893515 184.534674 
L 367.961923 180.248849 
L 369.929221 175.963024 
L 371.786481 171.677199 
L 373.527243 167.391374 
L 375.147384 163.105549 
L 376.644946 158.819724 
L 378.019938 154.533899 
L 379.274101 150.248074 
L 380.410673 145.962249 
L 381.434139 141.676424 
L 382.349986 137.390599 
L 383.164468 133.104774 
L 383.884383 128.818949 
L 384.516868 124.533124 
L 385.069219 120.247299 
L 385.548729 115.961474 
L 385.962553 111.675649 
L 386.317603 107.389825 
L 386.620451 103.104 
L 386.877272 98.818175 
L 387.093795 94.53235 
L 387.275276 90.246525 
L 387.426486 85.9607 
L 387.551711 81.674875 
L 387.654764 77.38905 
L 387.739005 73.103225 
L 387.807366 68.8174 
L 387.862377 64.531575 
L 387.906204 60.24575 
L 387.940676 55.959925 
L 387.967319 51.6741 
L 387.98739 47.388275 
L 388.001903 43.10245 
L 388.011657 38.816625 
L 388.017264 34.5308 
L 388.019167 30.244975 
L 388.017662 25.95915 
L 388.012917 21.673325 
L 388.004986 17.3875 
L 387.993821 13.101675 
L 387.979286 8.81585 
L 387.96117 4.530026 
L 387.939193 0.244201 
L 387.91302 -4.041624 
L 387.88227 -8.327449 
L 387.846524 -12.613274 
L 387.805342 -16.899099 
L 387.758268 -21.184924 
L 387.704849 -25.470749 
L 387.644644 -29.756574 
L 387.577246 -34.042399 
L 387.502288 -38.328224 
L 387.41947 -42.614049 
L 387.328569 -46.899874 
L 387.22946 -51.185699 
L 387.122131 -55.471524 
L 387.006699 -59.757349 
L 386.883425 -64.043174 
L 386.752724 -68.328999 
L 386.615177 -72.614824 
L 386.471535 -76.900649 
L 386.322719 -81.186474 
L 386.169822 -85.472299 
L 386.014097 -89.758124 
L 385.856949 -94.043948 
L 385.699915 -98.329773 
L 385.544642 -102.615598 
L 385.392862 -106.901423 
L 385.24636 -111.187248 
L 385.106941 -115.473073 
L 384.976395 -119.758898 
L 384.856456 -124.044723 
L 384.748766 -128.330548 
L 384.65484 -132.616373 
L 384.576024 -136.902198 
L 384.513472 -141.188023 
L 384.46811 -145.473848 
L 384.440616 -149.759673 
L 384.431405 -154.045498 
L 391.729845 -154.045498 
L 391.729845 -154.045498 
L 391.720634 -149.759673 
L 391.69314 -145.473848 
L 391.647778 -141.188023 
L 391.585226 -136.902198 
L 391.50641 -132.616373 
L 391.412484 -128.330548 
L 391.304794 -124.044723 
L 391.184855 -119.758898 
L 391.054309 -115.473073 
L 390.91489 -111.187248 
L 390.768388 -106.901423 
L 390.616608 -102.615598 
L 390.461335 -98.329773 
L 390.304301 -94.043948 
L 390.147153 -89.758124 
L 389.991428 -85.472299 
L 389.838531 -81.186474 
L 389.689715 -76.900649 
L 389.546073 -72.614824 
L 389.408526 -68.328999 
L 389.277825 -64.043174 
L 389.154551 -59.757349 
L 389.039119 -55.471524 
L 388.93179 -51.185699 
L 388.832681 -46.899874 
L 388.74178 -42.614049 
L 388.658962 -38.328224 
L 388.584004 -34.042399 
L 388.516606 -29.756574 
L 388.456401 -25.470749 
L 388.402982 -21.184924 
L 388.355908 -16.899099 
L 388.314726 -12.613274 
L 388.27898 -8.327449 
L 388.24823 -4.041624 
L 388.222057 0.244201 
L 388.20008 4.530026 
L 388.181964 8.81585 
L 388.167429 13.101675 
L 388.156264 17.3875 
L 388.148333 21.673325 
L 388.143588 25.95915 
L 388.142083 30.244975 
L 388.143986 34.5308 
L 388.149593 38.816625 
L 388.159347 43.10245 
L 388.17386 47.388275 
L 388.193931 51.6741 
L 388.220574 55.959925 
L 388.255046 60.24575 
L 388.298873 64.531575 
L 388.353884 68.8174 
L 388.422245 73.103225 
L 388.506486 77.38905 
L 388.609539 81.674875 
L 388.734764 85.9607 
L 388.885974 90.246525 
L 389.067455 94.53235 
L 389.283978 98.818175 
L 389.540799 103.104 
L 389.843647 107.389825 
L 390.198697 111.675649 
L 390.612521 115.961474 
L 391.092031 120.247299 
L 391.644382 124.533124 
L 392.276867 128.818949 
L 392.996782 133.104774 
L 393.811264 137.390599 
L 394.727111 141.676424 
L 395.750577 145.962249 
L 396.887149 150.248074 
L 398.141312 154.533899 
L 399.516304 158.819724 
L 401.013866 163.105549 
L 402.634007 167.391374 
L 404.374769 171.677199 
L 406.232029 175.963024 
L 408.199327 180.248849 
L 410.267735 184.534674 
L 412.425778 188.820499 
L 414.65942 193.106324 
L 416.952106 197.392149 
L 419.28488 201.677974 
L 421.636575 205.963799 
L 423.984077 210.249623 
L 426.302661 214.535448 
L 428.56639 218.821273 
L 430.748577 223.107098 
L 432.82229 227.392923 
L 434.760896 231.678748 
L 436.538624 235.964573 
L 438.131128 240.250398 
L 439.516041 244.536223 
L 440.673499 248.822048 
L 441.58661 253.107873 
L 442.24187 257.393698 
L 442.629487 261.679523 
L 442.743634 265.965348 
L 442.582588 270.251173 
z
" clip-path="url(#p589f0b2f24)" style="fill: #9467bd; fill-opacity: 0.35"/>
   </g>
   <g id="matplotlib.axis_5"/>
   <g id="matplotlib.axis_6">
    <g id="ytick_9">
     <g id="line2d_23">
      <path d="M 327.951315 238.374766 
L 448.209935 238.374766 
" clip-path="url(#p589f0b2f24)" style="fill: none; stroke: #b0b0b0; stroke-opacity: 0.25; stroke-width: 0.8; stroke-linecap: square"/>
     </g>
     <g id="line2d_24">
      <g>
       <use xlink:href="#mc99198a067" x="327.951315" y="238.374766" style="stroke: #000000; stroke-width: 0.8"/>
      </g>
     </g>
    </g>
    <g id="ytick_10">
     <g id="line2d_25">
      <path d="M 327.951315 191.115882 
L 448.209935 191.115882 
" clip-path="url(#p589f0b2f24)" style="fill: none; stroke: #b0b0b0; stroke-opacity: 0.25; stroke-width: 0.8; stroke-linecap: square"/>
     </g>
     <g id="line2d_26">
      <g>
       <use xlink:href="#mc99198a067" x="327.951315" y="191.115882" style="stroke: #000000; stroke-width: 0.8"/>
      </g>
     </g>
    </g>
    <g id="ytick_11">
     <g id="line2d_27">
      <path d="M 327.951315 143.856999 
L 448.209935 143.856999 
" clip-path="url(#p589f0b2f24)" style="fill: none; stroke: #b0b0b0; stroke-opacity: 0.25; stroke-width: 0.8; stroke-linecap: square"/>
     </g>
     <g id="line2d_28">
      <g>
       <use xlink:href="#mc99198a067" x="327.951315" y="143.856999" style="stroke: #000000; stroke-width: 0.8"/>
      </g>
     </g>
    </g>
    <g id="ytick_12">
     <g id="line2d_29">
      <path d="M 327.951315 96.598115 
L 448.209935 96.598115 
" clip-path="url(#p589f0b2f24)" style="fill: none; stroke: #b0b0b0; stroke-opacity: 0.25; stroke-width: 0.8; stroke-linecap: square"/>
     </g>
     <g id="line2d_30">
      <g>
       <use xlink:href="#mc99198a067" x="327.951315" y="96.598115" style="stroke: #000000; stroke-width: 0.8"/>
      </g>
     </g>
    </g>
   </g>
   <g id="LineCollection_2">
    <path d="M 360.74912 266.464285 
L 415.41213 266.464285 
" clip-path="url(#p589f0b2f24)" style="fill: none; stroke: #ffffff; stroke-width: 2"/>
   </g>
   <g id="line2d_31">
    <path d="M 327.951315 268.058306 
L 448.209935 268.058306 
" clip-path="url(#p589f0b2f24)" style="fill: none; stroke-dasharray: 5.55,2.4; stroke-dashoffset: 0; stroke: #2ca02c; stroke-opacity: 0.8; stroke-width: 1.5"/>
   </g>
   <g id="line2d_32">
    <path d="M 327.951315 266.767742 
L 448.209935 266.767742 
" clip-path="url(#p589f0b2f24)" style="fill: none; stroke-dasharray: 1.5,2.475; stroke-dashoffset: 0; stroke: #1f77b4; stroke-opacity: 0.8; stroke-width: 1.5"/>
   </g>
   <g id="line2d_33">
    <path d="M 327.951315 263.263348 
L 448.209935 263.263348 
" clip-path="url(#p589f0b2f24)" style="fill: none; stroke-dasharray: 7.68,1.92,1.2,1.92; stroke-dashoffset: 0; stroke: #ff7f0e; stroke-opacity: 0.8; stroke-width: 1.2"/>
   </g>
   <g id="patch_13">
    <path d="M 327.951315 273.43175 
L 327.951315 53.11175 
" style="fill: none; stroke: #000000; stroke-width: 0.8; stroke-linejoin: miter; stroke-linecap: square"/>
   </g>
   <g id="patch_14">
    <path d="M 448.209935 273.43175 
L 448.209935 53.11175 
" style="fill: none; stroke: #000000; stroke-width: 0.8; stroke-linejoin: miter; stroke-linecap: square"/>
   </g>
   <g id="patch_15">
    <path d="M 327.951315 273.43175 
L 448.209935 273.43175 
" style="fill: none; stroke: #000000; stroke-width: 0.8; stroke-linejoin: miter; stroke-linecap: square"/>
   </g>
   <g id="patch_16">
    <path d="M 327.951315 53.11175 
L 448.209935 53.11175 
" style="fill: none; stroke: #000000; stroke-width: 0.8; stroke-linejoin: miter; stroke-linecap: square"/>
   </g>
   <g id="PathCollection_3">
    <g clip-path="url(#p589f0b2f24)">
     <use xlink:href="#m6f493da614" x="394.926459" y="267.292318" style="fill: #2ca02c; fill-opacity: 0.6; stroke: #2ca02c; stroke-opacity: 0.6"/>
     <use xlink:href="#m6f493da614" x="386.55327" y="268.70196" style="fill: #2ca02c; fill-opacity: 0.6; stroke: #2ca02c; stroke-opacity: 0.6"/>
     <use xlink:href="#m6f493da614" x="397.041558" y="268.339444" style="fill: #2ca02c; fill-opacity: 0.6; stroke: #2ca02c; stroke-opacity: 0.6"/>
     <use xlink:href="#m6f493da614" x="393.012616" y="270.251173" style="fill: #2ca02c; fill-opacity: 0.6; stroke: #2ca02c; stroke-opacity: 0.6"/>
     <use xlink:href="#m6f493da614" x="377.939602" y="265.65677" style="fill: #2ca02c; fill-opacity: 0.6; stroke: #2ca02c; stroke-opacity: 0.6"/>
     <use xlink:href="#m6f493da614" x="399.965859" y="267.777988" style="fill: #2ca02c; fill-opacity: 0.6; stroke: #2ca02c; stroke-opacity: 0.6"/>
     <use xlink:href="#m6f493da614" x="394.606194" y="266.392391" style="fill: #2ca02c; fill-opacity: 0.6; stroke: #2ca02c; stroke-opacity: 0.6"/>
     <use xlink:href="#m6f493da614" x="395.22903" y="263.592739" style="fill: #2ca02c; fill-opacity: 0.6; stroke: #2ca02c; stroke-opacity: 0.6"/>
     <use xlink:href="#m6f493da614" x="378.787629" y="268.005003" style="fill: #2ca02c; fill-opacity: 0.6; stroke: #2ca02c; stroke-opacity: 0.6"/>
     <use xlink:href="#m6f493da614" x="386.840829" y="259.805287" style="fill: #2ca02c; fill-opacity: 0.6; stroke: #2ca02c; stroke-opacity: 0.6"/>
     <use xlink:href="#m6f493da614" x="384.852022" y="263.848483" style="fill: #2ca02c; fill-opacity: 0.6; stroke: #2ca02c; stroke-opacity: 0.6"/>
     <use xlink:href="#m6f493da614" x="393.656951" y="-1" style="fill: #2ca02c; fill-opacity: 0.6; stroke: #2ca02c; stroke-opacity: 0.6"/>
     <use xlink:href="#m6f493da614" x="396.174092" y="-1" style="fill: #2ca02c; fill-opacity: 0.6; stroke: #2ca02c; stroke-opacity: 0.6"/>
     <use xlink:href="#m6f493da614" x="391.675642" y="266.794435" style="fill: #2ca02c; fill-opacity: 0.6; stroke: #2ca02c; stroke-opacity: 0.6"/>
     <use xlink:href="#m6f493da614" x="396.146052" y="266.53618" style="fill: #2ca02c; fill-opacity: 0.6; stroke: #2ca02c; stroke-opacity: 0.6"/>
     <use xlink:href="#m6f493da614" x="386.666613" y="260.465026" style="fill: #2ca02c; fill-opacity: 0.6; stroke: #2ca02c; stroke-opacity: 0.6"/>
    </g>
   </g>
   <g id="PathCollection_4">
    <defs>
     <path id="m68fa3c0b66" d="M 0 1.732051 
C 0.459345 1.732051 0.899939 1.549551 1.224745 1.224745 
C 1.549551 0.899939 1.732051 0.459345 1.732051 0 
C 1.732051 -0.459345 1.549551 -0.899939 1.224745 -1.224745 
C 0.899939 -1.549551 0.459345 -1.732051 0 -1.732051 
C -0.459345 -1.732051 -0.899939 -1.549551 -1.224745 -1.224745 
C -1.549551 -0.899939 -1.732051 -0.459345 -1.732051 0 
C -1.732051 0.459345 -1.549551 0.899939 -1.224745 1.224745 
C -0.899939 1.549551 -0.459345 1.732051 0 1.732051 
z
" style="stroke: #ff7f0e; stroke-opacity: 0.6"/>
    </defs>
    <g clip-path="url(#p589f0b2f24)">
     <use xlink:href="#m68fa3c0b66" x="394.926459" y="260.496095" style="fill: #ff7f0e; fill-opacity: 0.6; stroke: #ff7f0e; stroke-opacity: 0.6"/>
    </g>
   </g>
   <g id="text_8">
    <!-- DeepSeek -->
    <g transform="translate(367.760625 13.27875) scale(0.08 -0.08)">
     <defs>
      <path id="DejaVuSans-44" d="M 1259 4147 
L 1259 519 
L 2022 519 
Q 2988 519 3436 956 
Q 3884 1394 3884 2338 
Q 3884 3275 3436 3711 
Q 2988 4147 2022 4147 
L 1259 4147 
z
M 628 4666 
L 1925 4666 
Q 3281 4666 3915 4102 
Q 4550 3538 4550 2338 
Q 4550 1131 3912 565 
Q 3275 0 1925 0 
L 628 0 
L 628 4666 
z
" transform="scale(0.015625)"/>
      <path id="DejaVuSans-53" d="M 3425 4513 
L 3425 3897 
Q 3066 4069 2747 4153 
Q 2428 4238 2131 4238 
Q 1616 4238 1336 4038 
Q 1056 3838 1056 3469 
Q 1056 3159 1242 3001 
Q 1428 2844 1947 2747 
L 2328 2669 
Q 3034 2534 3370 2195 
Q 3706 1856 3706 1288 
Q 3706 609 3251 259 
Q 2797 -91 1919 -91 
Q 1588 -91 1214 -16 
Q 841 59 441 206 
L 441 856 
Q 825 641 1194 531 
Q 1563 422 1919 422 
Q 2459 422 2753 634 
Q 3047 847 3047 1241 
Q 3047 1584 2836 1778 
Q 2625 1972 2144 2069 
L 1759 2144 
Q 1053 2284 737 2584 
Q 422 2884 422 3419 
Q 422 4038 858 4394 
Q 1294 4750 2059 4750 
Q 2388 4750 2728 4690 
Q 3069 4631 3425 4513 
z
" transform="scale(0.015625)"/>
      <path id="DejaVuSans-6b" d="M 581 4863 
L 1159 4863 
L 1159 1991 
L 2875 3500 
L 3609 3500 
L 1753 1863 
L 3688 0 
L 2938 0 
L 1159 1709 
L 1159 0 
L 581 0 
L 581 4863 
z
" transform="scale(0.015625)"/>
     </defs>
     <use xlink:href="#DejaVuSans-44"/>
     <use xlink:href="#DejaVuSans-65" transform="translate(77.001953 0)"/>
     <use xlink:href="#DejaVuSans-65" transform="translate(138.525391 0)"/>
     <use xlink:href="#DejaVuSans-70" transform="translate(200.048828 0)"/>
     <use xlink:href="#DejaVuSans-53" transform="translate(263.525391 0)"/>
     <use xlink:href="#DejaVuSans-65" transform="translate(327.001953 0)"/>
     <use xlink:href="#DejaVuSans-65" transform="translate(388.525391 0)"/>
     <use xlink:href="#DejaVuSans-6b" transform="translate(450.048828 0)"/>
    </g>
    <!-- R1 -->
    <g transform="translate(382.75625 22.237) scale(0.08 -0.08)">
     <defs>
      <path id="DejaVuSans-52" d="M 2841 2188 
Q 3044 2119 3236 1894 
Q 3428 1669 3622 1275 
L 4263 0 
L 3584 0 
L 2988 1197 
Q 2756 1666 2539 1819 
Q 2322 1972 1947 1972 
L 1259 1972 
L 1259 0 
L 628 0 
L 628 4666 
L 2053 4666 
Q 2853 4666 3247 4331 
Q 3641 3997 3641 3322 
Q 3641 2881 3436 2590 
Q 3231 2300 2841 2188 
z
M 1259 4147 
L 1259 2491 
L 2053 2491 
Q 2509 2491 2742 2702 
Q 2975 2913 2975 3322 
Q 2975 3731 2742 3939 
Q 2509 4147 2053 4147 
L 1259 4147 
z
" transform="scale(0.015625)"/>
     </defs>
     <use xlink:href="#DejaVuSans-52"/>
     <use xlink:href="#DejaVuSans-31" transform="translate(69.482422 0)"/>
    </g>
    <!-- 0528 -->
    <g transform="translate(377.900625 31.19525) scale(0.08 -0.08)">
     <use xlink:href="#DejaVuSans-30"/>
     <use xlink:href="#DejaVuSans-35" transform="translate(63.623047 0)"/>
     <use xlink:href="#DejaVuSans-32" transform="translate(127.246094 0)"/>
     <use xlink:href="#DejaVuSans-38" transform="translate(190.869141 0)"/>
    </g>
    <!-- Qwen3 -->
    <g transform="translate(374.119375 40.1535) scale(0.08 -0.08)">
     <use xlink:href="#DejaVuSans-51"/>
     <use xlink:href="#DejaVuSans-77" transform="translate(78.710938 0)"/>
     <use xlink:href="#DejaVuSans-65" transform="translate(160.498047 0)"/>
     <use xlink:href="#DejaVuSans-6e" transform="translate(222.021484 0)"/>
     <use xlink:href="#DejaVuSans-33" transform="translate(285.400391 0)"/>
    </g>
    <!-- 8B -->
    <g transform="translate(382.79125 49.11175) scale(0.08 -0.08)">
     <use xlink:href="#DejaVuSans-38"/>
     <use xlink:href="#DejaVuSans-42" transform="translate(63.623047 0)"/>
    </g>
   </g>
  </g>
  <g id="axes_4">
   <g id="patch_17">
    <path d="M 472.261659 273.43175 
L 592.52028 273.43175 
L 592.52028 53.11175 
L 472.261659 53.11175 
z
" style="fill: #ffffff"/>
   </g>
   <g id="FillBetweenPolyCollection_3">
    <path d="M 579.423757 271.683424 
L 485.358183 271.683424 
L 482.549549 269.757009 
L 480.321345 267.830594 
L 478.748694 265.904179 
L 477.87869 263.977763 
L 477.72796 262.051348 
L 478.282549 260.124933 
L 479.500024 258.198518 
L 481.313505 256.272103 
L 483.637115 254.345688 
L 486.372259 252.419273 
L 489.414118 250.492858 
L 492.657793 248.566443 
L 496.003659 246.640028 
L 499.361606 244.713612 
L 502.654054 242.787197 
L 505.817699 240.860782 
L 508.804132 238.934367 
L 511.579474 237.007952 
L 514.123278 235.081537 
L 516.426883 233.155122 
L 518.491465 231.228707 
L 520.325926 229.302292 
L 521.944795 227.375877 
L 523.366249 225.449461 
L 524.610338 223.523046 
L 525.697498 221.596631 
L 526.647363 219.670216 
L 527.47793 217.743801 
L 528.205042 215.817386 
L 528.842182 213.890971 
L 529.400507 211.964556 
L 529.889092 210.038141 
L 530.315282 208.111726 
L 530.685099 206.18531 
L 531.00365 204.258895 
L 531.275468 202.33248 
L 531.504777 200.406065 
L 531.695653 198.47965 
L 531.852102 196.553235 
L 531.978043 194.62682 
L 532.07725 192.700405 
L 532.153253 190.77399 
L 532.209232 188.847575 
L 532.247924 186.921159 
L 532.27155 184.994744 
L 532.281784 183.068329 
L 532.279756 181.141914 
L 532.266102 179.215499 
L 532.241046 177.289084 
L 532.204527 175.362669 
L 532.156353 173.436254 
L 532.096371 171.509839 
L 532.024656 169.583424 
L 531.941688 167.657008 
L 531.848506 165.730593 
L 531.746826 163.804178 
L 531.639097 161.877763 
L 531.528483 159.951348 
L 531.418768 158.024933 
L 531.31418 156.098518 
L 531.219141 154.172103 
L 531.137971 152.245688 
L 531.074571 150.319273 
L 531.032112 148.392857 
L 531.012773 146.466442 
L 531.017556 144.540027 
L 531.046196 142.613612 
L 531.097182 140.687197 
L 531.167879 138.760782 
L 531.254743 136.834367 
L 531.353599 134.907952 
L 531.459951 132.981537 
L 531.56928 131.055122 
L 531.677319 129.128706 
L 531.780259 127.202291 
L 531.874885 125.275876 
L 531.958634 123.349461 
L 532.029584 121.423046 
L 532.086383 119.496631 
L 532.128148 117.570216 
L 532.154351 115.643801 
L 532.164715 113.717386 
L 532.159144 111.790971 
L 532.13769 109.864555 
L 532.100567 107.93814 
L 532.048219 106.011725 
L 531.98141 104.08531 
L 531.901339 102.158895 
L 531.809748 100.23248 
L 531.709002 98.306065 
L 531.602122 96.37965 
L 531.49275 94.453235 
L 531.385033 92.52682 
L 531.283441 90.600404 
L 531.192507 88.673989 
L 531.116536 86.747574 
L 531.059294 84.821159 
L 531.023714 82.894744 
L 531.011664 80.968329 
L 533.770276 80.968329 
L 533.770276 80.968329 
L 533.758226 82.894744 
L 533.722646 84.821159 
L 533.665403 86.747574 
L 533.589433 88.673989 
L 533.498499 90.600404 
L 533.396906 92.52682 
L 533.28919 94.453235 
L 533.179817 96.37965 
L 533.072938 98.306065 
L 532.972192 100.23248 
L 532.880601 102.158895 
L 532.800529 104.08531 
L 532.733721 106.011725 
L 532.681373 107.93814 
L 532.64425 109.864555 
L 532.622795 111.790971 
L 532.617225 113.717386 
L 532.627589 115.643801 
L 532.653792 117.570216 
L 532.695556 119.496631 
L 532.752355 121.423046 
L 532.823305 123.349461 
L 532.907055 125.275876 
L 533.001681 127.202291 
L 533.104621 129.128706 
L 533.21266 131.055122 
L 533.321989 132.981537 
L 533.42834 134.907952 
L 533.527197 136.834367 
L 533.614061 138.760782 
L 533.684757 140.687197 
L 533.735743 142.613612 
L 533.764384 144.540027 
L 533.769167 146.466442 
L 533.749828 148.392857 
L 533.707369 150.319273 
L 533.643969 152.245688 
L 533.562799 154.172103 
L 533.46776 156.098518 
L 533.363171 158.024933 
L 533.253457 159.951348 
L 533.142842 161.877763 
L 533.035113 163.804178 
L 532.933434 165.730593 
L 532.840252 167.657008 
L 532.757284 169.583424 
L 532.685569 171.509839 
L 532.625587 173.436254 
L 532.577412 175.362669 
L 532.540894 177.289084 
L 532.515838 179.215499 
L 532.502183 181.141914 
L 532.500156 183.068329 
L 532.51039 184.994744 
L 532.534016 186.921159 
L 532.572707 188.847575 
L 532.628687 190.77399 
L 532.70469 192.700405 
L 532.803897 194.62682 
L 532.929838 196.553235 
L 533.086286 198.47965 
L 533.277163 200.406065 
L 533.506472 202.33248 
L 533.77829 204.258895 
L 534.09684 206.18531 
L 534.466658 208.111726 
L 534.892847 210.038141 
L 535.381433 211.964556 
L 535.939758 213.890971 
L 536.576897 215.817386 
L 537.30401 217.743801 
L 538.134577 219.670216 
L 539.084442 221.596631 
L 540.171601 223.523046 
L 541.415691 225.449461 
L 542.837144 227.375877 
L 544.456013 229.302292 
L 546.290474 231.228707 
L 548.355056 233.155122 
L 550.658662 235.081537 
L 553.202465 237.007952 
L 555.977808 238.934367 
L 558.964241 240.860782 
L 562.127886 242.787197 
L 565.420333 244.713612 
L 568.778281 246.640028 
L 572.124146 248.566443 
L 575.367822 250.492858 
L 578.409681 252.419273 
L 581.144825 254.345688 
L 583.468435 256.272103 
L 585.281916 258.198518 
L 586.499391 260.124933 
L 587.053979 262.051348 
L 586.90325 263.977763 
L 586.033246 265.904179 
L 584.460595 267.830594 
L 582.23239 269.757009 
L 579.423757 271.683424 
z
" clip-path="url(#pce78e86f18)" style="fill: #9467bd; fill-opacity: 0.35"/>
   </g>
   <g id="matplotlib.axis_7"/>
   <g id="matplotlib.axis_8">
    <g id="ytick_13">
     <g id="line2d_34">
      <path d="M 472.261659 238.374766 
L 592.52028 238.374766 
" clip-path="url(#pce78e86f18)" style="fill: none; stroke: #b0b0b0; stroke-opacity: 0.25; stroke-width: 0.8; stroke-linecap: square"/>
     </g>
     <g id="line2d_35">
      <g>
       <use xlink:href="#mc99198a067" x="472.261659" y="238.374766" style="stroke: #000000; stroke-width: 0.8"/>
      </g>
     </g>
    </g>
    <g id="ytick_14">
     <g id="line2d_36">
      <path d="M 472.261659 191.115882 
L 592.52028 191.115882 
" clip-path="url(#pce78e86f18)" style="fill: none; stroke: #b0b0b0; stroke-opacity: 0.25; stroke-width: 0.8; stroke-linecap: square"/>
     </g>
     <g id="line2d_37">
      <g>
       <use xlink:href="#mc99198a067" x="472.261659" y="191.115882" style="stroke: #000000; stroke-width: 0.8"/>
      </g>
     </g>
    </g>
    <g id="ytick_15">
     <g id="line2d_38">
      <path d="M 472.261659 143.856999 
L 592.52028 143.856999 
" clip-path="url(#pce78e86f18)" style="fill: none; stroke: #b0b0b0; stroke-opacity: 0.25; stroke-width: 0.8; stroke-linecap: square"/>
     </g>
     <g id="line2d_39">
      <g>
       <use xlink:href="#mc99198a067" x="472.261659" y="143.856999" style="stroke: #000000; stroke-width: 0.8"/>
      </g>
     </g>
    </g>
    <g id="ytick_16">
     <g id="line2d_40">
      <path d="M 472.261659 96.598115 
L 592.52028 96.598115 
" clip-path="url(#pce78e86f18)" style="fill: none; stroke: #b0b0b0; stroke-opacity: 0.25; stroke-width: 0.8; stroke-linecap: square"/>
     </g>
     <g id="line2d_41">
      <g>
       <use xlink:href="#mc99198a067" x="472.261659" y="96.598115" style="stroke: #000000; stroke-width: 0.8"/>
      </g>
     </g>
    </g>
   </g>
   <g id="LineCollection_3">
    <path d="M 505.059465 262.600411 
L 559.722475 262.600411 
" clip-path="url(#pce78e86f18)" style="fill: none; stroke: #ffffff; stroke-width: 2"/>
   </g>
   <g id="line2d_42">
    <path d="M 472.261659 268.058306 
L 592.52028 268.058306 
" clip-path="url(#pce78e86f18)" style="fill: none; stroke-dasharray: 5.55,2.4; stroke-dashoffset: 0; stroke: #2ca02c; stroke-opacity: 0.8; stroke-width: 1.5"/>
   </g>
   <g id="line2d_43">
    <path d="M 472.261659 266.767742 
L 592.52028 266.767742 
" clip-path="url(#pce78e86f18)" style="fill: none; stroke-dasharray: 1.5,2.475; stroke-dashoffset: 0; stroke: #1f77b4; stroke-opacity: 0.8; stroke-width: 1.5"/>
   </g>
   <g id="line2d_44">
    <path d="M 472.261659 263.263348 
L 592.52028 263.263348 
" clip-path="url(#pce78e86f18)" style="fill: none; stroke-dasharray: 7.68,1.92,1.2,1.92; stroke-dashoffset: 0; stroke: #ff7f0e; stroke-opacity: 0.8; stroke-width: 1.2"/>
   </g>
   <g id="patch_18">
    <path d="M 472.261659 273.43175 
L 472.261659 53.11175 
" style="fill: none; stroke: #000000; stroke-width: 0.8; stroke-linejoin: miter; stroke-linecap: square"/>
   </g>
   <g id="patch_19">
    <path d="M 592.52028 273.43175 
L 592.52028 53.11175 
" style="fill: none; stroke: #000000; stroke-width: 0.8; stroke-linejoin: miter; stroke-linecap: square"/>
   </g>
   <g id="patch_20">
    <path d="M 472.261659 273.43175 
L 592.52028 273.43175 
" style="fill: none; stroke: #000000; stroke-width: 0.8; stroke-linejoin: miter; stroke-linecap: square"/>
   </g>
   <g id="patch_21">
    <path d="M 472.261659 53.11175 
L 592.52028 53.11175 
" style="fill: none; stroke: #000000; stroke-width: 0.8; stroke-linejoin: miter; stroke-linecap: square"/>
   </g>
   <g id="PathCollection_5">
    <g clip-path="url(#pce78e86f18)">
     <use xlink:href="#m6f493da614" x="539.236804" y="269.077909" style="fill: #2ca02c; fill-opacity: 0.6; stroke: #2ca02c; stroke-opacity: 0.6"/>
     <use xlink:href="#m6f493da614" x="530.863615" y="266.080703" style="fill: #2ca02c; fill-opacity: 0.6; stroke: #2ca02c; stroke-opacity: 0.6"/>
     <use xlink:href="#m6f493da614" x="541.351903" y="269.844731" style="fill: #2ca02c; fill-opacity: 0.6; stroke: #2ca02c; stroke-opacity: 0.6"/>
     <use xlink:href="#m6f493da614" x="537.322961" y="271.107836" style="fill: #2ca02c; fill-opacity: 0.6; stroke: #2ca02c; stroke-opacity: 0.6"/>
     <use xlink:href="#m6f493da614" x="522.249947" y="243.759548" style="fill: #2ca02c; fill-opacity: 0.6; stroke: #2ca02c; stroke-opacity: 0.6"/>
     <use xlink:href="#m6f493da614" x="544.276204" y="260.11497" style="fill: #2ca02c; fill-opacity: 0.6; stroke: #2ca02c; stroke-opacity: 0.6"/>
     <use xlink:href="#m6f493da614" x="538.916539" y="260.790427" style="fill: #2ca02c; fill-opacity: 0.6; stroke: #2ca02c; stroke-opacity: 0.6"/>
     <use xlink:href="#m6f493da614" x="539.539375" y="267.806392" style="fill: #2ca02c; fill-opacity: 0.6; stroke: #2ca02c; stroke-opacity: 0.6"/>
     <use xlink:href="#m6f493da614" x="523.097974" y="270.401205" style="fill: #2ca02c; fill-opacity: 0.6; stroke: #2ca02c; stroke-opacity: 0.6"/>
     <use xlink:href="#m6f493da614" x="531.151174" y="241.633077" style="fill: #2ca02c; fill-opacity: 0.6; stroke: #2ca02c; stroke-opacity: 0.6"/>
     <use xlink:href="#m6f493da614" x="529.162367" y="251.575178" style="fill: #2ca02c; fill-opacity: 0.6; stroke: #2ca02c; stroke-opacity: 0.6"/>
     <use xlink:href="#m6f493da614" x="543.055317" y="267.420345" style="fill: #2ca02c; fill-opacity: 0.6; stroke: #2ca02c; stroke-opacity: 0.6"/>
     <use xlink:href="#m6f493da614" x="535.985987" y="266.174048" style="fill: #2ca02c; fill-opacity: 0.6; stroke: #2ca02c; stroke-opacity: 0.6"/>
     <use xlink:href="#m6f493da614" x="540.456397" y="267.401466" style="fill: #2ca02c; fill-opacity: 0.6; stroke: #2ca02c; stroke-opacity: 0.6"/>
     <use xlink:href="#m6f493da614" x="530.976958" y="264.735362" style="fill: #2ca02c; fill-opacity: 0.6; stroke: #2ca02c; stroke-opacity: 0.6"/>
     <use xlink:href="#m6f493da614" x="525.574992" y="224.056178" style="fill: #2ca02c; fill-opacity: 0.6; stroke: #2ca02c; stroke-opacity: 0.6"/>
     <use xlink:href="#m6f493da614" x="533.754978" y="265.452881" style="fill: #2ca02c; fill-opacity: 0.6; stroke: #2ca02c; stroke-opacity: 0.6"/>
     <use xlink:href="#m6f493da614" x="521.491285" y="270.730384" style="fill: #2ca02c; fill-opacity: 0.6; stroke: #2ca02c; stroke-opacity: 0.6"/>
     <use xlink:href="#m6f493da614" x="540.578081" y="242.893156" style="fill: #2ca02c; fill-opacity: 0.6; stroke: #2ca02c; stroke-opacity: 0.6"/>
     <use xlink:href="#m6f493da614" x="535.681106" y="258.199937" style="fill: #2ca02c; fill-opacity: 0.6; stroke: #2ca02c; stroke-opacity: 0.6"/>
     <use xlink:href="#m6f493da614" x="538.840274" y="267.667115" style="fill: #2ca02c; fill-opacity: 0.6; stroke: #2ca02c; stroke-opacity: 0.6"/>
     <use xlink:href="#m6f493da614" x="528.755748" y="252.394754" style="fill: #2ca02c; fill-opacity: 0.6; stroke: #2ca02c; stroke-opacity: 0.6"/>
     <use xlink:href="#m6f493da614" x="544.153151" y="258.262191" style="fill: #2ca02c; fill-opacity: 0.6; stroke: #2ca02c; stroke-opacity: 0.6"/>
     <use xlink:href="#m6f493da614" x="542.214597" y="145.886549" style="fill: #2ca02c; fill-opacity: 0.6; stroke: #2ca02c; stroke-opacity: 0.6"/>
     <use xlink:href="#m6f493da614" x="539.347441" y="268.62748" style="fill: #2ca02c; fill-opacity: 0.6; stroke: #2ca02c; stroke-opacity: 0.6"/>
     <use xlink:href="#m6f493da614" x="524.760356" y="241.329955" style="fill: #2ca02c; fill-opacity: 0.6; stroke: #2ca02c; stroke-opacity: 0.6"/>
     <use xlink:href="#m6f493da614" x="531.559368" y="251.491461" style="fill: #2ca02c; fill-opacity: 0.6; stroke: #2ca02c; stroke-opacity: 0.6"/>
     <use xlink:href="#m6f493da614" x="520.991171" y="255.347181" style="fill: #2ca02c; fill-opacity: 0.6; stroke: #2ca02c; stroke-opacity: 0.6"/>
     <use xlink:href="#m6f493da614" x="523.752078" y="267.382279" style="fill: #2ca02c; fill-opacity: 0.6; stroke: #2ca02c; stroke-opacity: 0.6"/>
     <use xlink:href="#m6f493da614" x="536.965144" y="262.139062" style="fill: #2ca02c; fill-opacity: 0.6; stroke: #2ca02c; stroke-opacity: 0.6"/>
     <use xlink:href="#m6f493da614" x="538.507283" y="253.585089" style="fill: #2ca02c; fill-opacity: 0.6; stroke: #2ca02c; stroke-opacity: 0.6"/>
     <use xlink:href="#m6f493da614" x="544.073479" y="270.839375" style="fill: #2ca02c; fill-opacity: 0.6; stroke: #2ca02c; stroke-opacity: 0.6"/>
     <use xlink:href="#m6f493da614" x="528.038554" y="261.23047" style="fill: #2ca02c; fill-opacity: 0.6; stroke: #2ca02c; stroke-opacity: 0.6"/>
     <use xlink:href="#m6f493da614" x="529.153913" y="271.683424" style="fill: #2ca02c; fill-opacity: 0.6; stroke: #2ca02c; stroke-opacity: 0.6"/>
    </g>
   </g>
   <g id="PathCollection_6">
    <g clip-path="url(#pce78e86f18)">
     <use xlink:href="#m68fa3c0b66" x="539.236804" y="249.636187" style="fill: #ff7f0e; fill-opacity: 0.6; stroke: #ff7f0e; stroke-opacity: 0.6"/>
     <use xlink:href="#m68fa3c0b66" x="530.863615" y="270.022808" style="fill: #ff7f0e; fill-opacity: 0.6; stroke: #ff7f0e; stroke-opacity: 0.6"/>
     <use xlink:href="#m68fa3c0b66" x="541.351903" y="258.23297" style="fill: #ff7f0e; fill-opacity: 0.6; stroke: #ff7f0e; stroke-opacity: 0.6"/>
     <use xlink:href="#m68fa3c0b66" x="537.322961" y="255.143877" style="fill: #ff7f0e; fill-opacity: 0.6; stroke: #ff7f0e; stroke-opacity: 0.6"/>
     <use xlink:href="#m68fa3c0b66" x="522.249947" y="263.061761" style="fill: #ff7f0e; fill-opacity: 0.6; stroke: #ff7f0e; stroke-opacity: 0.6"/>
     <use xlink:href="#m68fa3c0b66" x="544.276204" y="261.229918" style="fill: #ff7f0e; fill-opacity: 0.6; stroke: #ff7f0e; stroke-opacity: 0.6"/>
     <use xlink:href="#m68fa3c0b66" x="538.916539" y="264.226258" style="fill: #ff7f0e; fill-opacity: 0.6; stroke: #ff7f0e; stroke-opacity: 0.6"/>
     <use xlink:href="#m68fa3c0b66" x="539.539375" y="265.648041" style="fill: #ff7f0e; fill-opacity: 0.6; stroke: #ff7f0e; stroke-opacity: 0.6"/>
     <use xlink:href="#m68fa3c0b66" x="523.097974" y="245.142833" style="fill: #ff7f0e; fill-opacity: 0.6; stroke: #ff7f0e; stroke-opacity: 0.6"/>
     <use xlink:href="#m68fa3c0b66" x="531.151174" y="266.625973" style="fill: #ff7f0e; fill-opacity: 0.6; stroke: #ff7f0e; stroke-opacity: 0.6"/>
     <use xlink:href="#m68fa3c0b66" x="529.162367" y="261.983021" style="fill: #ff7f0e; fill-opacity: 0.6; stroke: #ff7f0e; stroke-opacity: 0.6"/>
     <use xlink:href="#m68fa3c0b66" x="543.055317" y="264.814701" style="fill: #ff7f0e; fill-opacity: 0.6; stroke: #ff7f0e; stroke-opacity: 0.6"/>
     <use xlink:href="#m68fa3c0b66" x="535.985987" y="223.176416" style="fill: #ff7f0e; fill-opacity: 0.6; stroke: #ff7f0e; stroke-opacity: 0.6"/>
     <use xlink:href="#m68fa3c0b66" x="540.456397" y="269.630492" style="fill: #ff7f0e; fill-opacity: 0.6; stroke: #ff7f0e; stroke-opacity: 0.6"/>
     <use xlink:href="#m68fa3c0b66" x="530.976958" y="266.316218" style="fill: #ff7f0e; fill-opacity: 0.6; stroke: #ff7f0e; stroke-opacity: 0.6"/>
     <use xlink:href="#m68fa3c0b66" x="525.574992" y="80.968329" style="fill: #ff7f0e; fill-opacity: 0.6; stroke: #ff7f0e; stroke-opacity: 0.6"/>
    </g>
   </g>
   <g id="text_9">
    <!-- Qwen3 -->
    <g transform="translate(518.42972 40.1535) scale(0.08 -0.08)">
     <use xlink:href="#DejaVuSans-51"/>
     <use xlink:href="#DejaVuSans-77" transform="translate(78.710938 0)"/>
     <use xlink:href="#DejaVuSans-65" transform="translate(160.498047 0)"/>
     <use xlink:href="#DejaVuSans-6e" transform="translate(222.021484 0)"/>
     <use xlink:href="#DejaVuSans-33" transform="translate(285.400391 0)"/>
    </g>
    <!-- 14B -->
    <g transform="translate(524.556595 49.11175) scale(0.08 -0.08)">
     <defs>
      <path id="DejaVuSans-34" d="M 2419 4116 
L 825 1625 
L 2419 1625 
L 2419 4116 
z
M 2253 4666 
L 3047 4666 
L 3047 1625 
L 3713 1625 
L 3713 1100 
L 3047 1100 
L 3047 0 
L 2419 0 
L 2419 1100 
L 313 1100 
L 313 1709 
L 2253 4666 
z
" transform="scale(0.015625)"/>
     </defs>
     <use xlink:href="#DejaVuSans-31"/>
     <use xlink:href="#DejaVuSans-34" transform="translate(63.623047 0)"/>
     <use xlink:href="#DejaVuSans-42" transform="translate(127.246094 0)"/>
    </g>
   </g>
  </g>
  <g id="axes_5">
   <g id="patch_22">
    <path d="M 616.572004 273.43175 
L 736.830625 273.43175 
L 736.830625 53.11175 
L 616.572004 53.11175 
z
" style="fill: #ffffff"/>
   </g>
   <g id="FillBetweenPolyCollection_4">
    <path d="M 727.765105 270.829336 
L 625.637524 270.829336 
L 625.117063 270.640963 
L 624.636799 270.45259 
L 624.197277 270.264218 
L 623.798879 270.075845 
L 623.441817 269.887472 
L 623.126133 269.6991 
L 622.851696 269.510727 
L 622.6182 269.322355 
L 622.425166 269.133982 
L 622.271943 268.945609 
L 622.157713 268.757237 
L 622.081487 268.568864 
L 622.042119 268.380491 
L 622.038305 268.192119 
L 622.068592 268.003746 
L 622.131383 267.815373 
L 622.22495 267.627001 
L 622.347439 267.438628 
L 622.496882 267.250256 
L 622.671208 267.061883 
L 622.868252 266.87351 
L 623.085771 266.685138 
L 623.321453 266.496765 
L 623.572933 266.308392 
L 623.837805 266.12002 
L 624.113637 265.931647 
L 624.397981 265.743274 
L 624.688395 265.554902 
L 624.982449 265.366529 
L 625.277744 265.178157 
L 625.571924 264.989784 
L 625.86269 264.801411 
L 626.147815 264.613039 
L 626.425154 264.424666 
L 626.692658 264.236293 
L 626.948388 264.047921 
L 627.190521 263.859548 
L 627.417365 263.671175 
L 627.627368 263.482803 
L 627.819123 263.29443 
L 627.991381 263.106058 
L 628.143055 262.917685 
L 628.273226 262.729312 
L 628.38115 262.54094 
L 628.466257 262.352567 
L 628.52816 262.164194 
L 628.566652 261.975822 
L 628.581707 261.787449 
L 628.573482 261.599076 
L 628.542311 261.410704 
L 628.488706 261.222331 
L 628.413354 261.033958 
L 628.317107 260.845586 
L 628.200979 260.657213 
L 628.06614 260.468841 
L 627.91391 260.280468 
L 627.745745 260.092095 
L 627.56323 259.903723 
L 627.368074 259.71535 
L 627.162092 259.526977 
L 626.947196 259.338605 
L 626.725388 259.150232 
L 626.49874 258.961859 
L 626.269389 258.773487 
L 626.039518 258.585114 
L 625.811348 258.396742 
L 625.587123 258.208369 
L 625.369095 258.019996 
L 625.159517 257.831624 
L 624.960622 257.643251 
L 624.774618 257.454878 
L 624.603671 257.266506 
L 624.449897 257.078133 
L 624.315345 256.88976 
L 624.201992 256.701388 
L 624.111729 256.513015 
L 624.046354 256.324643 
L 624.007558 256.13627 
L 623.996924 255.947897 
L 624.015913 255.759525 
L 624.06586 255.571152 
L 624.147966 255.382779 
L 624.263299 255.194407 
L 624.41278 255.006034 
L 624.597187 254.817661 
L 624.817151 254.629289 
L 625.073152 254.440916 
L 625.36552 254.252544 
L 625.694434 254.064171 
L 626.059925 253.875798 
L 626.461875 253.687426 
L 626.900019 253.499053 
L 627.373954 253.31068 
L 627.883133 253.122308 
L 628.42688 252.933935 
L 629.004387 252.745562 
L 629.614724 252.55719 
L 630.256846 252.368817 
L 630.929597 252.180445 
L 722.473032 252.180445 
L 722.473032 252.180445 
L 723.145783 252.368817 
L 723.787905 252.55719 
L 724.398243 252.745562 
L 724.975749 252.933935 
L 725.519496 253.122308 
L 726.028676 253.31068 
L 726.50261 253.499053 
L 726.940755 253.687426 
L 727.342704 253.875798 
L 727.708195 254.064171 
L 728.03711 254.252544 
L 728.329478 254.440916 
L 728.585478 254.629289 
L 728.805442 254.817661 
L 728.98985 255.006034 
L 729.139331 255.194407 
L 729.254663 255.382779 
L 729.33677 255.571152 
L 729.386716 255.759525 
L 729.405705 255.947897 
L 729.395071 256.13627 
L 729.356276 256.324643 
L 729.2909 256.513015 
L 729.200637 256.701388 
L 729.087284 256.88976 
L 728.952732 257.078133 
L 728.798958 257.266506 
L 728.628011 257.454878 
L 728.442007 257.643251 
L 728.243113 257.831624 
L 728.033534 258.019996 
L 727.815507 258.208369 
L 727.591281 258.396742 
L 727.363111 258.585114 
L 727.13324 258.773487 
L 726.903889 258.961859 
L 726.677241 259.150232 
L 726.455433 259.338605 
L 726.240538 259.526977 
L 726.034555 259.71535 
L 725.839399 259.903723 
L 725.656885 260.092095 
L 725.488719 260.280468 
L 725.336489 260.468841 
L 725.201651 260.657213 
L 725.085523 260.845586 
L 724.989275 261.033958 
L 724.913923 261.222331 
L 724.860319 261.410704 
L 724.829148 261.599076 
L 724.820922 261.787449 
L 724.835977 261.975822 
L 724.874469 262.164194 
L 724.936372 262.352567 
L 725.02148 262.54094 
L 725.129403 262.729312 
L 725.259575 262.917685 
L 725.411249 263.106058 
L 725.583507 263.29443 
L 725.775262 263.482803 
L 725.985264 263.671175 
L 726.212108 263.859548 
L 726.454241 264.047921 
L 726.709971 264.236293 
L 726.977476 264.424666 
L 727.254814 264.613039 
L 727.539939 264.801411 
L 727.830706 264.989784 
L 728.124885 265.178157 
L 728.42018 265.366529 
L 728.714234 265.554902 
L 729.004648 265.743274 
L 729.288993 265.931647 
L 729.564824 266.12002 
L 729.829696 266.308392 
L 730.081176 266.496765 
L 730.316859 266.685138 
L 730.534377 266.87351 
L 730.731421 267.061883 
L 730.905747 267.250256 
L 731.05519 267.438628 
L 731.177679 267.627001 
L 731.271246 267.815373 
L 731.334038 268.003746 
L 731.364324 268.192119 
L 731.36051 268.380491 
L 731.321142 268.568864 
L 731.244917 268.757237 
L 731.130686 268.945609 
L 730.977464 269.133982 
L 730.784429 269.322355 
L 730.550933 269.510727 
L 730.276496 269.6991 
L 729.960812 269.887472 
L 729.603751 270.075845 
L 729.205352 270.264218 
L 728.76583 270.45259 
L 728.285566 270.640963 
L 727.765105 270.829336 
z
" clip-path="url(#p6d6c3e6ab3)" style="fill: #9467bd; fill-opacity: 0.35"/>
   </g>
   <g id="matplotlib.axis_9"/>
   <g id="matplotlib.axis_10">
    <g id="ytick_17">
     <g id="line2d_45">
      <path d="M 616.572004 238.374766 
L 736.830625 238.374766 
" clip-path="url(#p6d6c3e6ab3)" style="fill: none; stroke: #b0b0b0; stroke-opacity: 0.25; stroke-width: 0.8; stroke-linecap: square"/>
     </g>
     <g id="line2d_46">
      <g>
       <use xlink:href="#mc99198a067" x="616.572004" y="238.374766" style="stroke: #000000; stroke-width: 0.8"/>
      </g>
     </g>
    </g>
    <g id="ytick_18">
     <g id="line2d_47">
      <path d="M 616.572004 191.115882 
L 736.830625 191.115882 
" clip-path="url(#p6d6c3e6ab3)" style="fill: none; stroke: #b0b0b0; stroke-opacity: 0.25; stroke-width: 0.8; stroke-linecap: square"/>
     </g>
     <g id="line2d_48">
      <g>
       <use xlink:href="#mc99198a067" x="616.572004" y="191.115882" style="stroke: #000000; stroke-width: 0.8"/>
      </g>
     </g>
    </g>
    <g id="ytick_19">
     <g id="line2d_49">
      <path d="M 616.572004 143.856999 
L 736.830625 143.856999 
" clip-path="url(#p6d6c3e6ab3)" style="fill: none; stroke: #b0b0b0; stroke-opacity: 0.25; stroke-width: 0.8; stroke-linecap: square"/>
     </g>
     <g id="line2d_50">
      <g>
       <use xlink:href="#mc99198a067" x="616.572004" y="143.856999" style="stroke: #000000; stroke-width: 0.8"/>
      </g>
     </g>
    </g>
    <g id="ytick_20">
     <g id="line2d_51">
      <path d="M 616.572004 96.598115 
L 736.830625 96.598115 
" clip-path="url(#p6d6c3e6ab3)" style="fill: none; stroke: #b0b0b0; stroke-opacity: 0.25; stroke-width: 0.8; stroke-linecap: square"/>
     </g>
     <g id="line2d_52">
      <g>
       <use xlink:href="#mc99198a067" x="616.572004" y="96.598115" style="stroke: #000000; stroke-width: 0.8"/>
      </g>
     </g>
    </g>
   </g>
   <g id="LineCollection_4">
    <path d="M 649.36981 262.282005 
L 704.032819 262.282005 
" clip-path="url(#p6d6c3e6ab3)" style="fill: none; stroke: #ffffff; stroke-width: 2"/>
   </g>
   <g id="line2d_53">
    <path d="M 616.572004 268.058306 
L 736.830625 268.058306 
" clip-path="url(#p6d6c3e6ab3)" style="fill: none; stroke-dasharray: 5.55,2.4; stroke-dashoffset: 0; stroke: #2ca02c; stroke-opacity: 0.8; stroke-width: 1.5"/>
   </g>
   <g id="line2d_54">
    <path d="M 616.572004 266.767742 
L 736.830625 266.767742 
" clip-path="url(#p6d6c3e6ab3)" style="fill: none; stroke-dasharray: 1.5,2.475; stroke-dashoffset: 0; stroke: #1f77b4; stroke-opacity: 0.8; stroke-width: 1.5"/>
   </g>
   <g id="line2d_55">
    <path d="M 616.572004 263.263348 
L 736.830625 263.263348 
" clip-path="url(#p6d6c3e6ab3)" style="fill: none; stroke-dasharray: 7.68,1.92,1.2,1.92; stroke-dashoffset: 0; stroke: #ff7f0e; stroke-opacity: 0.8; stroke-width: 1.2"/>
   </g>
   <g id="patch_23">
    <path d="M 616.572004 273.43175 
L 616.572004 53.11175 
" style="fill: none; stroke: #000000; stroke-width: 0.8; stroke-linejoin: miter; stroke-linecap: square"/>
   </g>
   <g id="patch_24">
    <path d="M 736.830625 273.43175 
L 736.830625 53.11175 
" style="fill: none; stroke: #000000; stroke-width: 0.8; stroke-linejoin: miter; stroke-linecap: square"/>
   </g>
   <g id="patch_25">
    <path d="M 616.572004 273.43175 
L 736.830625 273.43175 
" style="fill: none; stroke: #000000; stroke-width: 0.8; stroke-linejoin: miter; stroke-linecap: square"/>
   </g>
   <g id="patch_26">
    <path d="M 616.572004 53.11175 
L 736.830625 53.11175 
" style="fill: none; stroke: #000000; stroke-width: 0.8; stroke-linejoin: miter; stroke-linecap: square"/>
   </g>
   <g id="PathCollection_7">
    <g clip-path="url(#p6d6c3e6ab3)">
     <use xlink:href="#m6f493da614" x="683.547149" y="269.368888" style="fill: #2ca02c; fill-opacity: 0.6; stroke: #2ca02c; stroke-opacity: 0.6"/>
     <use xlink:href="#m6f493da614" x="675.17396" y="267.680398" style="fill: #2ca02c; fill-opacity: 0.6; stroke: #2ca02c; stroke-opacity: 0.6"/>
     <use xlink:href="#m6f493da614" x="685.662248" y="252.180445" style="fill: #2ca02c; fill-opacity: 0.6; stroke: #2ca02c; stroke-opacity: 0.6"/>
     <use xlink:href="#m6f493da614" x="681.633306" y="270.829336" style="fill: #2ca02c; fill-opacity: 0.6; stroke: #2ca02c; stroke-opacity: 0.6"/>
    </g>
   </g>
   <g id="PathCollection_8">
    <g clip-path="url(#p6d6c3e6ab3)">
     <use xlink:href="#m68fa3c0b66" x="683.547149" y="255.378087" style="fill: #ff7f0e; fill-opacity: 0.6; stroke: #ff7f0e; stroke-opacity: 0.6"/>
     <use xlink:href="#m68fa3c0b66" x="675.17396" y="256.883612" style="fill: #ff7f0e; fill-opacity: 0.6; stroke: #ff7f0e; stroke-opacity: 0.6"/>
    </g>
   </g>
   <g id="text_10">
    <!-- Qwen3 -->
    <g transform="translate(662.740065 40.1535) scale(0.08 -0.08)">
     <use xlink:href="#DejaVuSans-51"/>
     <use xlink:href="#DejaVuSans-77" transform="translate(78.710938 0)"/>
     <use xlink:href="#DejaVuSans-65" transform="translate(160.498047 0)"/>
     <use xlink:href="#DejaVuSans-6e" transform="translate(222.021484 0)"/>
     <use xlink:href="#DejaVuSans-33" transform="translate(285.400391 0)"/>
    </g>
    <!-- 4B -->
    <g transform="translate(671.41194 49.11175) scale(0.08 -0.08)">
     <use xlink:href="#DejaVuSans-34"/>
     <use xlink:href="#DejaVuSans-42" transform="translate(63.623047 0)"/>
    </g>
   </g>
  </g>
  <g id="text_11">
   <!-- Per-model trial distribution and strategy breakdown -->
   <g transform="translate(234.685703 35.550031) scale(0.11 -0.11)">
    <defs>
     <path id="DejaVuSans-50" d="M 1259 4147 
L 1259 2394 
L 2053 2394 
Q 2494 2394 2734 2622 
Q 2975 2850 2975 3272 
Q 2975 3691 2734 3919 
Q 2494 4147 2053 4147 
L 1259 4147 
z
M 628 4666 
L 2053 4666 
Q 2838 4666 3239 4311 
Q 3641 3956 3641 3272 
Q 3641 2581 3239 2228 
Q 2838 1875 2053 1875 
L 1259 1875 
L 1259 0 
L 628 0 
L 628 4666 
z
" transform="scale(0.015625)"/>
     <path id="DejaVuSans-2d" d="M 313 2009 
L 1997 2009 
L 1997 1497 
L 313 1497 
L 313 2009 
z
" transform="scale(0.015625)"/>
     <path id="DejaVuSans-64" d="M 2906 2969 
L 2906 4863 
L 3481 4863 
L 3481 0 
L 2906 0 
L 2906 525 
Q 2725 213 2448 61 
Q 2172 -91 1784 -91 
Q 1150 -91 751 415 
Q 353 922 353 1747 
Q 353 2572 751 3078 
Q 1150 3584 1784 3584 
Q 2172 3584 2448 3432 
Q 2725 3281 2906 2969 
z
M 947 1747 
Q 947 1113 1208 752 
Q 1469 391 1925 391 
Q 2381 391 2643 752 
Q 2906 1113 2906 1747 
Q 2906 2381 2643 2742 
Q 2381 3103 1925 3103 
Q 1469 3103 1208 2742 
Q 947 2381 947 1747 
z
" transform="scale(0.015625)"/>
     <path id="DejaVuSans-6c" d="M 603 4863 
L 1178 4863 
L 1178 0 
L 603 0 
L 603 4863 
z
" transform="scale(0.015625)"/>
     <path id="DejaVuSans-75" d="M 544 1381 
L 544 3500 
L 1119 3500 
L 1119 1403 
Q 1119 906 1312 657 
Q 1506 409 1894 409 
Q 2359 409 2629 706 
Q 2900 1003 2900 1516 
L 2900 3500 
L 3475 3500 
L 3475 0 
L 2900 0 
L 2900 538 
Q 2691 219 2414 64 
Q 2138 -91 1772 -91 
Q 1169 -91 856 284 
Q 544 659 544 1381 
z
M 1991 3584 
L 1991 3584 
z
" transform="scale(0.015625)"/>
     <path id="DejaVuSans-79" d="M 2059 -325 
Q 1816 -950 1584 -1140 
Q 1353 -1331 966 -1331 
L 506 -1331 
L 506 -850 
L 844 -850 
Q 1081 -850 1212 -737 
Q 1344 -625 1503 -206 
L 1606 56 
L 191 3500 
L 800 3500 
L 1894 763 
L 2988 3500 
L 3597 3500 
L 2059 -325 
z
" transform="scale(0.015625)"/>
    </defs>
    <use xlink:href="#DejaVuSans-50"/>
    <use xlink:href="#DejaVuSans-65" transform="translate(56.677734 0)"/>
    <use xlink:href="#DejaVuSans-72" transform="translate(118.201172 0)"/>
    <use xlink:href="#DejaVuSans-2d" transform="translate(152.939453 0)"/>
    <use xlink:href="#DejaVuSans-6d" transform="translate(189.023438 0)"/>
    <use xlink:href="#DejaVuSans-6f" transform="translate(286.435547 0)"/>
    <use xlink:href="#DejaVuSans-64" transform="translate(347.617188 0)"/>
    <use xlink:href="#DejaVuSans-65" transform="translate(411.09375 0)"/>
    <use xlink:href="#DejaVuSans-6c" transform="translate(472.617188 0)"/>
    <use xlink:href="#DejaVuSans-20" transform="translate(500.400391 0)"/>
    <use xlink:href="#DejaVuSans-74" transform="translate(532.1875 0)"/>
    <use xlink:href="#DejaVuSans-72" transform="translate(571.396484 0)"/>
    <use xlink:href="#DejaVuSans-69" transform="translate(612.509766 0)"/>
    <use xlink:href="#DejaVuSans-61" transform="translate(640.292969 0)"/>
    <use xlink:href="#DejaVuSans-6c" transform="translate(701.572266 0)"/>
    <use xlink:href="#DejaVuSans-20" transform="translate(729.355469 0)"/>
    <use xlink:href="#DejaVuSans-64" transform="translate(761.142578 0)"/>
    <use xlink:href="#DejaVuSans-69" transform="translate(824.619141 0)"/>
    <use xlink:href="#DejaVuSans-73" transform="translate(852.402344 0)"/>
    <use xlink:href="#DejaVuSans-74" transform="translate(904.501953 0)"/>
    <use xlink:href="#DejaVuSans-72" transform="translate(943.710938 0)"/>
    <use xlink:href="#DejaVuSans-69" transform="translate(984.824219 0)"/>
    <use xlink:href="#DejaVuSans-62" transform="translate(1012.607422 0)"/>
    <use xlink:href="#DejaVuSans-75" transform="translate(1076.083984 0)"/>
    <use xlink:href="#DejaVuSans-74" transform="translate(1139.462891 0)"/>
    <use xlink:href="#DejaVuSans-69" transform="translate(1178.671875 0)"/>
    <use xlink:href="#DejaVuSans-6f" transform="translate(1206.455078 0)"/>
    <use xlink:href="#DejaVuSans-6e" transform="translate(1267.636719 0)"/>
    <use xlink:href="#DejaVuSans-20" transform="translate(1331.015625 0)"/>
    <use xlink:href="#DejaVuSans-61" transform="translate(1362.802734 0)"/>
    <use xlink:href="#DejaVuSans-6e" transform="translate(1424.082031 0)"/>
    <use xlink:href="#DejaVuSans-64" transform="translate(1487.460938 0)"/>
    <use xlink:href="#DejaVuSans-20" transform="translate(1550.9375 0)"/>
    <use xlink:href="#DejaVuSans-73" transform="translate(1582.724609 0)"/>
    <use xlink:href="#DejaVuSans-74" transform="translate(1634.824219 0)"/>
    <use xlink:href="#DejaVuSans-72" transform="translate(1674.033203 0)"/>
    <use xlink:href="#DejaVuSans-61" transform="translate(1715.146484 0)"/>
    <use xlink:href="#DejaVuSans-74" transform="translate(1776.425781 0)"/>
    <use xlink:href="#DejaVuSans-65" transform="translate(1815.634766 0)"/>
    <use xlink:href="#DejaVuSans-67" transform="translate(1877.158203 0)"/>
    <use xlink:href="#DejaVuSans-79" transform="translate(1940.634766 0)"/>
    <use xlink:href="#DejaVuSans-20" transform="translate(1999.814453 0)"/>
    <use xlink:href="#DejaVuSans-62" transform="translate(2031.601562 0)"/>
    <use xlink:href="#DejaVuSans-72" transform="translate(2095.078125 0)"/>
    <use xlink:href="#DejaVuSans-65" transform="translate(2133.941406 0)"/>
    <use xlink:href="#DejaVuSans-61" transform="translate(2195.464844 0)"/>
    <use xlink:href="#DejaVuSans-6b" transform="translate(2256.744141 0)"/>
    <use xlink:href="#DejaVuSans-64" transform="translate(2314.654297 0)"/>
    <use xlink:href="#DejaVuSans-6f" transform="translate(2378.130859 0)"/>
    <use xlink:href="#DejaVuSans-77" transform="translate(2439.3125 0)"/>
    <use xlink:href="#DejaVuSans-6e" transform="translate(2521.099609 0)"/>
   </g>
  </g>
  <g id="legend_1">
   <g id="patch_27">
    <path d="M 163.083125 389.31175 
L 590.578125 389.31175 
Q 592.178125 389.31175 592.178125 387.71175 
L 592.178125 347.11025 
Q 592.178125 345.51025 590.578125 345.51025 
L 163.083125 345.51025 
Q 161.483125 345.51025 161.483125 347.11025 
L 161.483125 387.71175 
Q 161.483125 389.31175 163.083125 389.31175 
z
" style="fill: #ffffff; opacity: 0.9; stroke: #cccccc; stroke-linejoin: miter"/>
   </g>
   <g id="patch_28">
    <path d="M 164.683125 360.1 
L 180.683125 360.1 
L 180.683125 354.5 
L 164.683125 354.5 
z
" style="fill: #2ca02c; opacity: 0.75; stroke: #2ca02c; stroke-linejoin: miter"/>
   </g>
   <g id="text_12">
    <!-- Both signals -->
    <g transform="translate(187.083125 354.789) scale(0.08 -0.08)">
     <defs>
      <path id="DejaVuSans-68" d="M 3513 2113 
L 3513 0 
L 2938 0 
L 2938 2094 
Q 2938 2591 2744 2837 
Q 2550 3084 2163 3084 
Q 1697 3084 1428 2787 
Q 1159 2491 1159 1978 
L 1159 0 
L 581 0 
L 581 4863 
L 1159 4863 
L 1159 2956 
Q 1366 3272 1645 3428 
Q 1925 3584 2291 3584 
Q 2894 3584 3203 3211 
Q 3513 2838 3513 2113 
z
" transform="scale(0.015625)"/>
     </defs>
     <use xlink:href="#DejaVuSans-42"/>
     <use xlink:href="#DejaVuSans-6f" transform="translate(68.603516 0)"/>
     <use xlink:href="#DejaVuSans-74" transform="translate(129.785156 0)"/>
     <use xlink:href="#DejaVuSans-68" transform="translate(168.994141 0)"/>
     <use xlink:href="#DejaVuSans-20" transform="translate(232.373047 0)"/>
     <use xlink:href="#DejaVuSans-73" transform="translate(264.160156 0)"/>
     <use xlink:href="#DejaVuSans-69" transform="translate(316.259766 0)"/>
     <use xlink:href="#DejaVuSans-67" transform="translate(344.042969 0)"/>
     <use xlink:href="#DejaVuSans-6e" transform="translate(407.519531 0)"/>
     <use xlink:href="#DejaVuSans-61" transform="translate(470.898438 0)"/>
     <use xlink:href="#DejaVuSans-6c" transform="translate(532.177734 0)"/>
     <use xlink:href="#DejaVuSans-73" transform="translate(559.960938 0)"/>
    </g>
    <!-- (blend) -->
    <g transform="translate(187.083125 363.74725) scale(0.08 -0.08)">
     <use xlink:href="#DejaVuSans-28"/>
     <use xlink:href="#DejaVuSans-62" transform="translate(39.013672 0)"/>
     <use xlink:href="#DejaVuSans-6c" transform="translate(102.490234 0)"/>
     <use xlink:href="#DejaVuSans-65" transform="translate(130.273438 0)"/>
     <use xlink:href="#DejaVuSans-6e" transform="translate(191.796875 0)"/>
     <use xlink:href="#DejaVuSans-64" transform="translate(255.175781 0)"/>
     <use xlink:href="#DejaVuSans-29" transform="translate(318.652344 0)"/>
    </g>
   </g>
   <g id="patch_29">
    <path d="M 164.683125 380.80075 
L 180.683125 380.80075 
L 180.683125 375.20075 
L 164.683125 375.20075 
z
" style="fill: #ff7f0e; opacity: 0.75; stroke: #ff7f0e; stroke-linejoin: miter"/>
   </g>
   <g id="text_13">
    <!-- LC-only -->
    <g transform="translate(187.083125 375.48975) scale(0.08 -0.08)">
     <defs>
      <path id="DejaVuSans-4c" d="M 628 4666 
L 1259 4666 
L 1259 531 
L 3531 531 
L 3531 0 
L 628 0 
L 628 4666 
z
" transform="scale(0.015625)"/>
      <path id="DejaVuSans-43" d="M 4122 4306 
L 4122 3641 
Q 3803 3938 3442 4084 
Q 3081 4231 2675 4231 
Q 1875 4231 1450 3742 
Q 1025 3253 1025 2328 
Q 1025 1406 1450 917 
Q 1875 428 2675 428 
Q 3081 428 3442 575 
Q 3803 722 4122 1019 
L 4122 359 
Q 3791 134 3420 21 
Q 3050 -91 2638 -91 
Q 1578 -91 968 557 
Q 359 1206 359 2328 
Q 359 3453 968 4101 
Q 1578 4750 2638 4750 
Q 3056 4750 3426 4639 
Q 3797 4528 4122 4306 
z
" transform="scale(0.015625)"/>
     </defs>
     <use xlink:href="#DejaVuSans-4c"/>
     <use xlink:href="#DejaVuSans-43" transform="translate(55.712891 0)"/>
     <use xlink:href="#DejaVuSans-2d" transform="translate(125.537109 0)"/>
     <use xlink:href="#DejaVuSans-6f" transform="translate(163.496094 0)"/>
     <use xlink:href="#DejaVuSans-6e" transform="translate(224.677734 0)"/>
     <use xlink:href="#DejaVuSans-6c" transform="translate(288.056641 0)"/>
     <use xlink:href="#DejaVuSans-79" transform="translate(315.839844 0)"/>
    </g>
    <!-- (ignores estimates) -->
    <g transform="translate(187.083125 384.448) scale(0.08 -0.08)">
     <use xlink:href="#DejaVuSans-28"/>
     <use xlink:href="#DejaVuSans-69" transform="translate(39.013672 0)"/>
     <use xlink:href="#DejaVuSans-67" transform="translate(66.796875 0)"/>
     <use xlink:href="#DejaVuSans-6e" transform="translate(130.273438 0)"/>
     <use xlink:href="#DejaVuSans-6f" transform="translate(193.652344 0)"/>
     <use xlink:href="#DejaVuSans-72" transform="translate(254.833984 0)"/>
     <use xlink:href="#DejaVuSans-65" transform="translate(293.697266 0)"/>
     <use xlink:href="#DejaVuSans-73" transform="translate(355.220703 0)"/>
     <use xlink:href="#DejaVuSans-20" transform="translate(407.320312 0)"/>
     <use xlink:href="#DejaVuSans-65" transform="translate(439.107422 0)"/>
     <use xlink:href="#DejaVuSans-73" transform="translate(500.630859 0)"/>
     <use xlink:href="#DejaVuSans-74" transform="translate(552.730469 0)"/>
     <use xlink:href="#DejaVuSans-69" transform="translate(591.939453 0)"/>
     <use xlink:href="#DejaVuSans-6d" transform="translate(619.722656 0)"/>
     <use xlink:href="#DejaVuSans-61" transform="translate(717.134766 0)"/>
     <use xlink:href="#DejaVuSans-74" transform="translate(778.414062 0)"/>
     <use xlink:href="#DejaVuSans-65" transform="translate(817.623047 0)"/>
     <use xlink:href="#DejaVuSans-73" transform="translate(879.146484 0)"/>
     <use xlink:href="#DejaVuSans-29" transform="translate(931.246094 0)"/>
    </g>
   </g>
   <g id="line2d_56">
    <path d="M 280.703125 357.3 
L 288.703125 357.3 
L 296.703125 357.3 
" style="fill: none; stroke-dasharray: 5.55,2.4; stroke-dashoffset: 0; stroke: #2ca02c; stroke-width: 1.5"/>
   </g>
   <g id="text_14">
    <!-- SRPT-oracle baseline -->
    <g transform="translate(303.103125 360.1) scale(0.08 -0.08)">
     <defs>
      <path id="DejaVuSans-54" d="M -19 4666 
L 3928 4666 
L 3928 4134 
L 2272 4134 
L 2272 0 
L 1638 0 
L 1638 4134 
L -19 4134 
L -19 4666 
z
" transform="scale(0.015625)"/>
      <path id="DejaVuSans-63" d="M 3122 3366 
L 3122 2828 
Q 2878 2963 2633 3030 
Q 2388 3097 2138 3097 
Q 1578 3097 1268 2742 
Q 959 2388 959 1747 
Q 959 1106 1268 751 
Q 1578 397 2138 397 
Q 2388 397 2633 464 
Q 2878 531 3122 666 
L 3122 134 
Q 2881 22 2623 -34 
Q 2366 -91 2075 -91 
Q 1284 -91 818 406 
Q 353 903 353 1747 
Q 353 2603 823 3093 
Q 1294 3584 2113 3584 
Q 2378 3584 2631 3529 
Q 2884 3475 3122 3366 
z
" transform="scale(0.015625)"/>
     </defs>
     <use xlink:href="#DejaVuSans-53"/>
     <use xlink:href="#DejaVuSans-52" transform="translate(63.476562 0)"/>
     <use xlink:href="#DejaVuSans-50" transform="translate(132.958984 0)"/>
     <use xlink:href="#DejaVuSans-54" transform="translate(193.261719 0)"/>
     <use xlink:href="#DejaVuSans-2d" transform="translate(245.220703 0)"/>
     <use xlink:href="#DejaVuSans-6f" transform="translate(283.179688 0)"/>
     <use xlink:href="#DejaVuSans-72" transform="translate(344.361328 0)"/>
     <use xlink:href="#DejaVuSans-61" transform="translate(385.474609 0)"/>
     <use xlink:href="#DejaVuSans-63" transform="translate(446.753906 0)"/>
     <use xlink:href="#DejaVuSans-6c" transform="translate(501.734375 0)"/>
     <use xlink:href="#DejaVuSans-65" transform="translate(529.517578 0)"/>
     <use xlink:href="#DejaVuSans-20" transform="translate(591.041016 0)"/>
     <use xlink:href="#DejaVuSans-62" transform="translate(622.828125 0)"/>
     <use xlink:href="#DejaVuSans-61" transform="translate(686.304688 0)"/>
     <use xlink:href="#DejaVuSans-73" transform="translate(747.583984 0)"/>
     <use xlink:href="#DejaVuSans-65" transform="translate(799.683594 0)"/>
     <use xlink:href="#DejaVuSans-6c" transform="translate(861.207031 0)"/>
     <use xlink:href="#DejaVuSans-69" transform="translate(888.990234 0)"/>
     <use xlink:href="#DejaVuSans-6e" transform="translate(916.773438 0)"/>
     <use xlink:href="#DejaVuSans-65" transform="translate(980.152344 0)"/>
    </g>
   </g>
   <g id="line2d_57">
    <path d="M 402.438125 357.3 
L 410.438125 357.3 
L 418.438125 357.3 
" style="fill: none; stroke-dasharray: 1.5,2.475; stroke-dashoffset: 0; stroke: #1f77b4; stroke-width: 1.5"/>
   </g>
   <g id="text_15">
    <!-- SRPT-noisy baseline -->
    <g transform="translate(424.838125 360.1) scale(0.08 -0.08)">
     <use xlink:href="#DejaVuSans-53"/>
     <use xlink:href="#DejaVuSans-52" transform="translate(63.476562 0)"/>
     <use xlink:href="#DejaVuSans-50" transform="translate(132.958984 0)"/>
     <use xlink:href="#DejaVuSans-54" transform="translate(193.261719 0)"/>
     <use xlink:href="#DejaVuSans-2d" transform="translate(245.220703 0)"/>
     <use xlink:href="#DejaVuSans-6e" transform="translate(281.304688 0)"/>
     <use xlink:href="#DejaVuSans-6f" transform="translate(344.683594 0)"/>
     <use xlink:href="#DejaVuSans-69" transform="translate(405.865234 0)"/>
     <use xlink:href="#DejaVuSans-73" transform="translate(433.648438 0)"/>
     <use xlink:href="#DejaVuSans-79" transform="translate(485.748047 0)"/>
     <use xlink:href="#DejaVuSans-20" transform="translate(544.927734 0)"/>
     <use xlink:href="#DejaVuSans-62" transform="translate(576.714844 0)"/>
     <use xlink:href="#DejaVuSans-61" transform="translate(640.191406 0)"/>
     <use xlink:href="#DejaVuSans-73" transform="translate(701.470703 0)"/>
     <use xlink:href="#DejaVuSans-65" transform="translate(753.570312 0)"/>
     <use xlink:href="#DejaVuSans-6c" transform="translate(815.09375 0)"/>
     <use xlink:href="#DejaVuSans-69" transform="translate(842.876953 0)"/>
     <use xlink:href="#DejaVuSans-6e" transform="translate(870.660156 0)"/>
     <use xlink:href="#DejaVuSans-65" transform="translate(934.039062 0)"/>
    </g>
   </g>
   <g id="line2d_58">
    <path d="M 520.483125 357.3 
L 528.483125 357.3 
L 536.483125 357.3 
" style="fill: none; stroke-dasharray: 7.68,1.92,1.2,1.92; stroke-dashoffset: 0; stroke: #ff7f0e; stroke-width: 1.2"/>
   </g>
   <g id="text_16">
    <!-- LC baseline -->
    <g transform="translate(542.883125 360.1) scale(0.08 -0.08)">
     <use xlink:href="#DejaVuSans-4c"/>
     <use xlink:href="#DejaVuSans-43" transform="translate(55.712891 0)"/>
     <use xlink:href="#DejaVuSans-20" transform="translate(125.537109 0)"/>
     <use xlink:href="#DejaVuSans-62" transform="translate(157.324219 0)"/>
     <use xlink:href="#DejaVuSans-61" transform="translate(220.800781 0)"/>
     <use xlink:href="#DejaVuSans-73" transform="translate(282.080078 0)"/>
     <use xlink:href="#DejaVuSans-65" transform="translate(334.179688 0)"/>
     <use xlink:href="#DejaVuSans-6c" transform="translate(395.703125 0)"/>
     <use xlink:href="#DejaVuSans-69" transform="translate(423.486328 0)"/>
     <use xlink:href="#DejaVuSans-6e" transform="translate(451.269531 0)"/>
     <use xlink:href="#DejaVuSans-65" transform="translate(514.648438 0)"/>
    </g>
   </g>
  </g>
 </g>
 <defs>
  <clipPath id="p69d540be2c">
   <rect x="39.330625" y="53.11175" width="120.258621" height="220.32"/>
  </clipPath>
  <clipPath id="p72c49779ba">
   <rect x="183.64097" y="53.11175" width="120.258621" height="220.32"/>
  </clipPath>
  <clipPath id="p589f0b2f24">
   <rect x="327.951315" y="53.11175" width="120.258621" height="220.32"/>
  </clipPath>
  <clipPath id="pce78e86f18">
   <rect x="472.261659" y="53.11175" width="120.258621" height="220.32"/>
  </clipPath>
  <clipPath id="p6d6c3e6ab3">
   <rect x="616.572004" y="53.11175" width="120.258621" height="220.32"/>
  </clipPath>
 </defs>
</svg>
