<?xml version="1.0" encoding="utf-8" standalone="no"?>
<!DOCTYPE svg PUBLIC "-//W3C//DTD SVG 1.1//EN"
  "http://www.w3.org/Graphics/SVG/1.1/DTD/svg11.dtd">
<svg xmlns:xlink="http://www.w3.org/1999/xlink" width="358.825313pt" height="221.77125pt" viewBox="0 0 358.825313 221.77125" xmlns="http://www.w3.org/2000/svg" version="1.1">
 <metadata>
  <rdf:RDF xmlns:dc="http://purl.org/dc/elements/1.1/" xmlns:cc="http://creativecommons.org/ns#" xmlns:rdf="http://www.w3.org/1999/02/22-rdf-syntax-ns#">
   <cc:Work>
    <dc:type rdf:resource="http://purl.org/dc/dcmitype/StillImage"/>
    <dc:date>2026-04-26T16:20:08.025939</dc:date>
    <dc:format>image/svg+xml</dc:format>
    <dc:creator>
     <cc:Agent>
      <dc:title>Matplotlib v3.10.8, https://matplotlib.org/</dc:title>
     </cc:Agent>
    </dc:creator>
   </cc:Work>
  </rdf:RDF>
 </metadata>
 <defs>
  <style type="text/css">*{stroke-linejoin: round; stroke-linecap: butt}</style>
 </defs>
 <g id="figure_1">
  <g id="patch_1">
   <path d="M 0 221.77125 
L 358.825313 221.77125 
L 358.825313 -0 
L 0 -0 
z
" style="fill: #ffffff"/>
  </g>
  <g id="axes_1">
   <g id="patch_2">
    <path d="M 37.090313 187.118438 
L 343.990313 187.118438 
L 343.990313 20.798438 
L 37.090313 20.798438 
z
" style="fill: #ffffff"/>
   </g>
   <g id="matplotlib.axis_1">
    <g id="xtick_1">
     <g id="line2d_1">
      <defs>
       <path id="m73308cf5ae" d="M 0 0 
L 0 3.5 
" style="stroke: #000000; stroke-width: 0.8"/>
      </defs>
      <g>
       <use xlink:href="#m73308cf5ae" x="68.567236" y="187.118438" style="stroke: #000000; stroke-width: 0.8"/>
      </g>
     </g>
     <g id="text_1">
      <!-- 50 -->
      <g transform="translate(63.477236 200.197188) scale(0.08 -0.08)">
       <defs>
        <path id="DejaVuSans-35" d="M 691 4666 
L 3169 4666 
L 3169 4134 
L 1269 4134 
L 1269 2991 
Q 1406 3038 1543 3061 
Q 1681 3084 1819 3084 
Q 2600 3084 3056 2656 
Q 3513 2228 3513 1497 
Q 3513 744 3044 326 
Q 2575 -91 1722 -91 
Q 1428 -91 1123 -41 
Q 819 9 494 109 
L 494 744 
Q 775 591 1075 516 
Q 1375 441 1709 441 
Q 2250 441 2565 725 
Q 2881 1009 2881 1497 
Q 2881 1984 2565 2268 
Q 2250 2553 1709 2553 
Q 1456 2553 1204 2497 
Q 953 2441 691 2322 
L 691 4666 
z
" transform="scale(0.015625)"/>
        <path id="DejaVuSans-30" d="M 2034 4250 
Q 1547 4250 1301 3770 
Q 1056 3291 1056 2328 
Q 1056 1369 1301 889 
Q 1547 409 2034 409 
Q 2525 409 2770 889 
Q 3016 1369 3016 2328 
Q 3016 3291 2770 3770 
Q 2525 4250 2034 4250 
z
M 2034 4750 
Q 2819 4750 3233 4129 
Q 3647 3509 3647 2328 
Q 3647 1150 3233 529 
Q 2819 -91 2034 -91 
Q 1250 -91 836 529 
Q 422 1150 422 2328 
Q 422 3509 836 4129 
Q 1250 4750 2034 4750 
z
" transform="scale(0.015625)"/>
       </defs>
       <use xlink:href="#DejaVuSans-35"/>
       <use xlink:href="#DejaVuSans-30" transform="translate(63.623047 0)"/>
      </g>
     </g>
    </g>
    <g id="xtick_2">
     <g id="line2d_2">
      <g>
       <use xlink:href="#m73308cf5ae" x="107.913389" y="187.118438" style="stroke: #000000; stroke-width: 0.8"/>
      </g>
     </g>
     <g id="text_2">
      <!-- 100 -->
      <g transform="translate(100.278389 200.197188) scale(0.08 -0.08)">
       <defs>
        <path id="DejaVuSans-31" d="M 794 531 
L 1825 531 
L 1825 4091 
L 703 3866 
L 703 4441 
L 1819 4666 
L 2450 4666 
L 2450 531 
L 3481 531 
L 3481 0 
L 794 0 
L 794 531 
z
" transform="scale(0.015625)"/>
       </defs>
       <use xlink:href="#DejaVuSans-31"/>
       <use xlink:href="#DejaVuSans-30" transform="translate(63.623047 0)"/>
       <use xlink:href="#DejaVuSans-30" transform="translate(127.246094 0)"/>
      </g>
     </g>
    </g>
    <g id="xtick_3">
     <g id="line2d_3">
      <g>
       <use xlink:href="#m73308cf5ae" x="147.259543" y="187.118438" style="stroke: #000000; stroke-width: 0.8"/>
      </g>
     </g>
     <g id="text_3">
      <!-- 150 -->
      <g transform="translate(139.624543 200.197188) scale(0.08 -0.08)">
       <use xlink:href="#DejaVuSans-31"/>
       <use xlink:href="#DejaVuSans-35" transform="translate(63.623047 0)"/>
       <use xlink:href="#DejaVuSans-30" transform="translate(127.246094 0)"/>
      </g>
     </g>
    </g>
    <g id="xtick_4">
     <g id="line2d_4">
      <g>
       <use xlink:href="#m73308cf5ae" x="186.605697" y="187.118438" style="stroke: #000000; stroke-width: 0.8"/>
      </g>
     </g>
     <g id="text_4">
      <!-- 200 -->
      <g transform="translate(178.970697 200.197188) scale(0.08 -0.08)">
       <defs>
        <path id="DejaVuSans-32" d="M 1228 531 
L 3431 531 
L 3431 0 
L 469 0 
L 469 531 
Q 828 903 1448 1529 
Q 2069 2156 2228 2338 
Q 2531 2678 2651 2914 
Q 2772 3150 2772 3378 
Q 2772 3750 2511 3984 
Q 2250 4219 1831 4219 
Q 1534 4219 1204 4116 
Q 875 4013 500 3803 
L 500 4441 
Q 881 4594 1212 4672 
Q 1544 4750 1819 4750 
Q 2544 4750 2975 4387 
Q 3406 4025 3406 3419 
Q 3406 3131 3298 2873 
Q 3191 2616 2906 2266 
Q 2828 2175 2409 1742 
Q 1991 1309 1228 531 
z
" transform="scale(0.015625)"/>
       </defs>
       <use xlink:href="#DejaVuSans-32"/>
       <use xlink:href="#DejaVuSans-30" transform="translate(63.623047 0)"/>
       <use xlink:href="#DejaVuSans-30" transform="translate(127.246094 0)"/>
      </g>
     </g>
    </g>
    <g id="xtick_5">
     <g id="line2d_5">
      <g>
       <use xlink:href="#m73308cf5ae" x="225.951851" y="187.118438" style="stroke: #000000; stroke-width: 0.8"/>
      </g>
     </g>
     <g id="text_5">
      <!-- 250 -->
      <g transform="translate(218.316851 200.197188) scale(0.08 -0.08)">
       <use xlink:href="#DejaVuSans-32"/>
       <use xlink:href="#DejaVuSans-35" transform="translate(63.623047 0)"/>
       <use xlink:href="#DejaVuSans-30" transform="translate(127.246094 0)"/>
      </g>
     </g>
    </g>
    <g id="xtick_6">
     <g id="line2d_6">
      <g>
       <use xlink:href="#m73308cf5ae" x="265.298005" y="187.118438" style="stroke: #000000; stroke-width: 0.8"/>
      </g>
     </g>
     <g id="text_6">
      <!-- 300 -->
      <g transform="translate(257.663005 200.197188) scale(0.08 -0.08)">
       <defs>
        <path id="DejaVuSans-33" d="M 2597 2516 
Q 3050 2419 3304 2112 
Q 3559 1806 3559 1356 
Q 3559 666 3084 287 
Q 2609 -91 1734 -91 
Q 1441 -91 1130 -33 
Q 819 25 488 141 
L 488 750 
Q 750 597 1062 519 
Q 1375 441 1716 441 
Q 2309 441 2620 675 
Q 2931 909 2931 1356 
Q 2931 1769 2642 2001 
Q 2353 2234 1838 2234 
L 1294 2234 
L 1294 2753 
L 1863 2753 
Q 2328 2753 2575 2939 
Q 2822 3125 2822 3475 
Q 2822 3834 2567 4026 
Q 2313 4219 1838 4219 
Q 1578 4219 1281 4162 
Q 984 4106 628 3988 
L 628 4550 
Q 988 4650 1302 4700 
Q 1616 4750 1894 4750 
Q 2613 4750 3031 4423 
Q 3450 4097 3450 3541 
Q 3450 3153 3228 2886 
Q 3006 2619 2597 2516 
z
" transform="scale(0.015625)"/>
       </defs>
       <use xlink:href="#DejaVuSans-33"/>
       <use xlink:href="#DejaVuSans-30" transform="translate(63.623047 0)"/>
       <use xlink:href="#DejaVuSans-30" transform="translate(127.246094 0)"/>
      </g>
     </g>
    </g>
    <g id="xtick_7">
     <g id="line2d_7">
      <g>
       <use xlink:href="#m73308cf5ae" x="304.644159" y="187.118438" style="stroke: #000000; stroke-width: 0.8"/>
      </g>
     </g>
     <g id="text_7">
      <!-- 350 -->
      <g transform="translate(297.009159 200.197188) scale(0.08 -0.08)">
       <use xlink:href="#DejaVuSans-33"/>
       <use xlink:href="#DejaVuSans-35" transform="translate(63.623047 0)"/>
       <use xlink:href="#DejaVuSans-30" transform="translate(127.246094 0)"/>
      </g>
     </g>
    </g>
    <g id="xtick_8">
     <g id="line2d_8">
      <g>
       <use xlink:href="#m73308cf5ae" x="343.990313" y="187.118438" style="stroke: #000000; stroke-width: 0.8"/>
      </g>
     </g>
     <g id="text_8">
      <!-- 400 -->
      <g transform="translate(336.355313 200.197188) scale(0.08 -0.08)">
       <defs>
        <path id="DejaVuSans-34" d="M 2419 4116 
L 825 1625 
L 2419 1625 
L 2419 4116 
z
M 2253 4666 
L 3047 4666 
L 3047 1625 
L 3713 1625 
L 3713 1100 
L 3047 1100 
L 3047 0 
L 2419 0 
L 2419 1100 
L 313 1100 
L 313 1709 
L 2253 4666 
z
" transform="scale(0.015625)"/>
       </defs>
       <use xlink:href="#DejaVuSans-34"/>
       <use xlink:href="#DejaVuSans-30" transform="translate(63.623047 0)"/>
       <use xlink:href="#DejaVuSans-30" transform="translate(127.246094 0)"/>
      </g>
     </g>
    </g>
    <g id="text_9">
     <!-- Simulation time (ms) -->
     <g transform="translate(143.305078 212.699531) scale(0.09 -0.09)">
      <defs>
       <path id="DejaVuSans-53" d="M 3425 4513 
L 3425 3897 
Q 3066 4069 2747 4153 
Q 2428 4238 2131 4238 
Q 1616 4238 1336 4038 
Q 1056 3838 1056 3469 
Q 1056 3159 1242 3001 
Q 1428 2844 1947 2747 
L 2328 2669 
Q 3034 2534 3370 2195 
Q 3706 1856 3706 1288 
Q 3706 609 3251 259 
Q 2797 -91 1919 -91 
Q 1588 -91 1214 -16 
Q 841 59 441 206 
L 441 856 
Q 825 641 1194 531 
Q 1563 422 1919 422 
Q 2459 422 2753 634 
Q 3047 847 3047 1241 
Q 3047 1584 2836 1778 
Q 2625 1972 2144 2069 
L 1759 2144 
Q 1053 2284 737 2584 
Q 422 2884 422 3419 
Q 422 4038 858 4394 
Q 1294 4750 2059 4750 
Q 2388 4750 2728 4690 
Q 3069 4631 3425 4513 
z
" transform="scale(0.015625)"/>
       <path id="DejaVuSans-69" d="M 603 3500 
L 1178 3500 
L 1178 0 
L 603 0 
L 603 3500 
z
M 603 4863 
L 1178 4863 
L 1178 4134 
L 603 4134 
L 603 4863 
z
" transform="scale(0.015625)"/>
       <path id="DejaVuSans-6d" d="M 3328 2828 
Q 3544 3216 3844 3400 
Q 4144 3584 4550 3584 
Q 5097 3584 5394 3201 
Q 5691 2819 5691 2113 
L 5691 0 
L 5113 0 
L 5113 2094 
Q 5113 2597 4934 2840 
Q 4756 3084 4391 3084 
Q 3944 3084 3684 2787 
Q 3425 2491 3425 1978 
L 3425 0 
L 2847 0 
L 2847 2094 
Q 2847 2600 2669 2842 
Q 2491 3084 2119 3084 
Q 1678 3084 1418 2786 
Q 1159 2488 1159 1978 
L 1159 0 
L 581 0 
L 581 3500 
L 1159 3500 
L 1159 2956 
Q 1356 3278 1631 3431 
Q 1906 3584 2284 3584 
Q 2666 3584 2933 3390 
Q 3200 3197 3328 2828 
z
" transform="scale(0.015625)"/>
       <path id="DejaVuSans-75" d="M 544 1381 
L 544 3500 
L 1119 3500 
L 1119 1403 
Q 1119 906 1312 657 
Q 1506 409 1894 409 
Q 2359 409 2629 706 
Q 2900 1003 2900 1516 
L 2900 3500 
L 3475 3500 
L 3475 0 
L 2900 0 
L 2900 538 
Q 2691 219 2414 64 
Q 2138 -91 1772 -91 
Q 1169 -91 856 284 
Q 544 659 544 1381 
z
M 1991 3584 
L 1991 3584 
z
" transform="scale(0.015625)"/>
       <path id="DejaVuSans-6c" d="M 603 4863 
L 1178 4863 
L 1178 0 
L 603 0 
L 603 4863 
z
" transform="scale(0.015625)"/>
       <path id="DejaVuSans-61" d="M 2194 1759 
Q 1497 1759 1228 1600 
Q 959 1441 959 1056 
Q 959 750 1161 570 
Q 1363 391 1709 391 
Q 2188 391 2477 730 
Q 2766 1069 2766 1631 
L 2766 1759 
L 2194 1759 
z
M 3341 1997 
L 3341 0 
L 2766 0 
L 2766 531 
Q 2569 213 2275 61 
Q 1981 -91 1556 -91 
Q 1019 -91 701 211 
Q 384 513 384 1019 
Q 384 1609 779 1909 
Q 1175 2209 1959 2209 
L 2766 2209 
L 2766 2266 
Q 2766 2663 2505 2880 
Q 2244 3097 1772 3097 
Q 1472 3097 1187 3025 
Q 903 2953 641 2809 
L 641 3341 
Q 956 3463 1253 3523 
Q 1550 3584 1831 3584 
Q 2591 3584 2966 3190 
Q 3341 2797 3341 1997 
z
" transform="scale(0.015625)"/>
       <path id="DejaVuSans-74" d="M 1172 4494 
L 1172 3500 
L 2356 3500 
L 2356 3053 
L 1172 3053 
L 1172 1153 
Q 1172 725 1289 603 
Q 1406 481 1766 481 
L 2356 481 
L 2356 0 
L 1766 0 
Q 1100 0 847 248 
Q 594 497 594 1153 
L 594 3053 
L 172 3053 
L 172 3500 
L 594 3500 
L 594 4494 
L 1172 4494 
z
" transform="scale(0.015625)"/>
       <path id="DejaVuSans-6f" d="M 1959 3097 
Q 1497 3097 1228 2736 
Q 959 2375 959 1747 
Q 959 1119 1226 758 
Q 1494 397 1959 397 
Q 2419 397 2687 759 
Q 2956 1122 2956 1747 
Q 2956 2369 2687 2733 
Q 2419 3097 1959 3097 
z
M 1959 3584 
Q 2709 3584 3137 3096 
Q 3566 2609 3566 1747 
Q 3566 888 3137 398 
Q 2709 -91 1959 -91 
Q 1206 -91 779 398 
Q 353 888 353 1747 
Q 353 2609 779 3096 
Q 1206 3584 1959 3584 
z
" transform="scale(0.015625)"/>
       <path id="DejaVuSans-6e" d="M 3513 2113 
L 3513 0 
L 2938 0 
L 2938 2094 
Q 2938 2591 2744 2837 
Q 2550 3084 2163 3084 
Q 1697 3084 1428 2787 
Q 1159 2491 1159 1978 
L 1159 0 
L 581 0 
L 581 3500 
L 1159 3500 
L 1159 2956 
Q 1366 3272 1645 3428 
Q 1925 3584 2291 3584 
Q 2894 3584 3203 3211 
Q 3513 2838 3513 2113 
z
" transform="scale(0.015625)"/>
       <path id="DejaVuSans-20" transform="scale(0.015625)"/>
       <path id="DejaVuSans-65" d="M 3597 1894 
L 3597 1613 
L 953 1613 
Q 991 1019 1311 708 
Q 1631 397 2203 397 
Q 2534 397 2845 478 
Q 3156 559 3463 722 
L 3463 178 
Q 3153 47 2828 -22 
Q 2503 -91 2169 -91 
Q 1331 -91 842 396 
Q 353 884 353 1716 
Q 353 2575 817 3079 
Q 1281 3584 2069 3584 
Q 2775 3584 3186 3129 
Q 3597 2675 3597 1894 
z
M 3022 2063 
Q 3016 2534 2758 2815 
Q 2500 3097 2075 3097 
Q 1594 3097 1305 2825 
Q 1016 2553 972 2059 
L 3022 2063 
z
" transform="scale(0.015625)"/>
       <path id="DejaVuSans-28" d="M 1984 4856 
Q 1566 4138 1362 3434 
Q 1159 2731 1159 2009 
Q 1159 1288 1364 580 
Q 1569 -128 1984 -844 
L 1484 -844 
Q 1016 -109 783 600 
Q 550 1309 550 2009 
Q 550 2706 781 3412 
Q 1013 4119 1484 4856 
L 1984 4856 
z
" transform="scale(0.015625)"/>
       <path id="DejaVuSans-73" d="M 2834 3397 
L 2834 2853 
Q 2591 2978 2328 3040 
Q 2066 3103 1784 3103 
Q 1356 3103 1142 2972 
Q 928 2841 928 2578 
Q 928 2378 1081 2264 
Q 1234 2150 1697 2047 
L 1894 2003 
Q 2506 1872 2764 1633 
Q 3022 1394 3022 966 
Q 3022 478 2636 193 
Q 2250 -91 1575 -91 
Q 1294 -91 989 -36 
Q 684 19 347 128 
L 347 722 
Q 666 556 975 473 
Q 1284 391 1588 391 
Q 1994 391 2212 530 
Q 2431 669 2431 922 
Q 2431 1156 2273 1281 
Q 2116 1406 1581 1522 
L 1381 1569 
Q 847 1681 609 1914 
Q 372 2147 372 2553 
Q 372 3047 722 3315 
Q 1072 3584 1716 3584 
Q 2034 3584 2315 3537 
Q 2597 3491 2834 3397 
z
" transform="scale(0.015625)"/>
       <path id="DejaVuSans-29" d="M 513 4856 
L 1013 4856 
Q 1481 4119 1714 3412 
Q 1947 2706 1947 2009 
Q 1947 1309 1714 600 
Q 1481 -109 1013 -844 
L 513 -844 
Q 928 -128 1133 580 
Q 1338 1288 1338 2009 
Q 1338 2731 1133 3434 
Q 928 4138 513 4856 
z
" transform="scale(0.015625)"/>
      </defs>
      <use xlink:href="#DejaVuSans-53"/>
      <use xlink:href="#DejaVuSans-69" transform="translate(63.476562 0)"/>
      <use xlink:href="#DejaVuSans-6d" transform="translate(91.259766 0)"/>
      <use xlink:href="#DejaVuSans-75" transform="translate(188.671875 0)"/>
      <use xlink:href="#DejaVuSans-6c" transform="translate(252.050781 0)"/>
      <use xlink:href="#DejaVuSans-61" transform="translate(279.833984 0)"/>
      <use xlink:href="#DejaVuSans-74" transform="translate(341.113281 0)"/>
      <use xlink:href="#DejaVuSans-69" transform="translate(380.322266 0)"/>
      <use xlink:href="#DejaVuSans-6f" transform="translate(408.105469 0)"/>
      <use xlink:href="#DejaVuSans-6e" transform="translate(469.287109 0)"/>
      <use xlink:href="#DejaVuSans-20" transform="translate(532.666016 0)"/>
      <use xlink:href="#DejaVuSans-74" transform="translate(564.453125 0)"/>
      <use xlink:href="#DejaVuSans-69" transform="translate(603.662109 0)"/>
      <use xlink:href="#DejaVuSans-6d" transform="translate(631.445312 0)"/>
      <use xlink:href="#DejaVuSans-65" transform="translate(728.857422 0)"/>
      <use xlink:href="#DejaVuSans-20" transform="translate(790.380859 0)"/>
      <use xlink:href="#DejaVuSans-28" transform="translate(822.167969 0)"/>
      <use xlink:href="#DejaVuSans-6d" transform="translate(861.181641 0)"/>
      <use xlink:href="#DejaVuSans-73" transform="translate(958.59375 0)"/>
      <use xlink:href="#DejaVuSans-29" transform="translate(1010.693359 0)"/>
     </g>
    </g>
   </g>
   <g id="matplotlib.axis_2">
    <g id="ytick_1">
     <g id="line2d_9">
      <defs>
       <path id="m6a01651e40" d="M 0 0 
L -3.5 0 
" style="stroke: #000000; stroke-width: 0.8"/>
      </defs>
      <g>
       <use xlink:href="#m6a01651e40" x="37.090313" y="187.118438" style="stroke: #000000; stroke-width: 0.8"/>
      </g>
     </g>
     <g id="text_10">
      <!-- 0 -->
      <g transform="translate(25.000313 190.157813) scale(0.08 -0.08)">
       <use xlink:href="#DejaVuSans-30"/>
      </g>
     </g>
    </g>
    <g id="ytick_2">
     <g id="line2d_10">
      <g>
       <use xlink:href="#m6a01651e40" x="37.090313" y="164.161916" style="stroke: #000000; stroke-width: 0.8"/>
      </g>
     </g>
     <g id="text_11">
      <!-- 10 -->
      <g transform="translate(19.910313 167.201291) scale(0.08 -0.08)">
       <use xlink:href="#DejaVuSans-31"/>
       <use xlink:href="#DejaVuSans-30" transform="translate(63.623047 0)"/>
      </g>
     </g>
    </g>
    <g id="ytick_3">
     <g id="line2d_11">
      <g>
       <use xlink:href="#m6a01651e40" x="37.090313" y="141.205394" style="stroke: #000000; stroke-width: 0.8"/>
      </g>
     </g>
     <g id="text_12">
      <!-- 20 -->
      <g transform="translate(19.910313 144.244769) scale(0.08 -0.08)">
       <use xlink:href="#DejaVuSans-32"/>
       <use xlink:href="#DejaVuSans-30" transform="translate(63.623047 0)"/>
      </g>
     </g>
    </g>
    <g id="ytick_4">
     <g id="line2d_12">
      <g>
       <use xlink:href="#m6a01651e40" x="37.090313" y="118.248872" style="stroke: #000000; stroke-width: 0.8"/>
      </g>
     </g>
     <g id="text_13">
      <!-- 30 -->
      <g transform="translate(19.910313 121.288247) scale(0.08 -0.08)">
       <use xlink:href="#DejaVuSans-33"/>
       <use xlink:href="#DejaVuSans-30" transform="translate(63.623047 0)"/>
      </g>
     </g>
    </g>
    <g id="ytick_5">
     <g id="line2d_13">
      <g>
       <use xlink:href="#m6a01651e40" x="37.090313" y="95.292351" style="stroke: #000000; stroke-width: 0.8"/>
      </g>
     </g>
     <g id="text_14">
      <!-- 40 -->
      <g transform="translate(19.910313 98.331726) scale(0.08 -0.08)">
       <use xlink:href="#DejaVuSans-34"/>
       <use xlink:href="#DejaVuSans-30" transform="translate(63.623047 0)"/>
      </g>
     </g>
    </g>
    <g id="ytick_6">
     <g id="line2d_14">
      <g>
       <use xlink:href="#m6a01651e40" x="37.090313" y="72.335829" style="stroke: #000000; stroke-width: 0.8"/>
      </g>
     </g>
     <g id="text_15">
      <!-- 50 -->
      <g transform="translate(19.910313 75.375204) scale(0.08 -0.08)">
       <use xlink:href="#DejaVuSans-35"/>
       <use xlink:href="#DejaVuSans-30" transform="translate(63.623047 0)"/>
      </g>
     </g>
    </g>
    <g id="ytick_7">
     <g id="line2d_15">
      <g>
       <use xlink:href="#m6a01651e40" x="37.090313" y="49.379307" style="stroke: #000000; stroke-width: 0.8"/>
      </g>
     </g>
     <g id="text_16">
      <!-- 60 -->
      <g transform="translate(19.910313 52.418682) scale(0.08 -0.08)">
       <defs>
        <path id="DejaVuSans-36" d="M 2113 2584 
Q 1688 2584 1439 2293 
Q 1191 2003 1191 1497 
Q 1191 994 1439 701 
Q 1688 409 2113 409 
Q 2538 409 2786 701 
Q 3034 994 3034 1497 
Q 3034 2003 2786 2293 
Q 2538 2584 2113 2584 
z
M 3366 4563 
L 3366 3988 
Q 3128 4100 2886 4159 
Q 2644 4219 2406 4219 
Q 1781 4219 1451 3797 
Q 1122 3375 1075 2522 
Q 1259 2794 1537 2939 
Q 1816 3084 2150 3084 
Q 2853 3084 3261 2657 
Q 3669 2231 3669 1497 
Q 3669 778 3244 343 
Q 2819 -91 2113 -91 
Q 1303 -91 875 529 
Q 447 1150 447 2328 
Q 447 3434 972 4092 
Q 1497 4750 2381 4750 
Q 2619 4750 2861 4703 
Q 3103 4656 3366 4563 
z
" transform="scale(0.015625)"/>
       </defs>
       <use xlink:href="#DejaVuSans-36"/>
       <use xlink:href="#DejaVuSans-30" transform="translate(63.623047 0)"/>
      </g>
     </g>
    </g>
    <g id="ytick_8">
     <g id="line2d_16">
      <g>
       <use xlink:href="#m6a01651e40" x="37.090313" y="26.422785" style="stroke: #000000; stroke-width: 0.8"/>
      </g>
     </g>
     <g id="text_17">
      <!-- 70 -->
      <g transform="translate(19.910313 29.46216) scale(0.08 -0.08)">
       <defs>
        <path id="DejaVuSans-37" d="M 525 4666 
L 3525 4666 
L 3525 4397 
L 1831 0 
L 1172 0 
L 2766 4134 
L 525 4134 
L 525 4666 
z
" transform="scale(0.015625)"/>
       </defs>
       <use xlink:href="#DejaVuSans-37"/>
       <use xlink:href="#DejaVuSans-30" transform="translate(63.623047 0)"/>
      </g>
     </g>
    </g>
    <g id="text_18">
     <!-- Queue length (jobs) -->
     <g transform="translate(14.038594 148.662422) rotate(-90) scale(0.09 -0.09)">
      <defs>
       <path id="DejaVuSans-51" d="M 2522 4238 
Q 1834 4238 1429 3725 
Q 1025 3213 1025 2328 
Q 1025 1447 1429 934 
Q 1834 422 2522 422 
Q 3209 422 3611 934 
Q 4013 1447 4013 2328 
Q 4013 3213 3611 3725 
Q 3209 4238 2522 4238 
z
M 3406 84 
L 4238 -825 
L 3475 -825 
L 2784 -78 
Q 2681 -84 2626 -87 
Q 2572 -91 2522 -91 
Q 1538 -91 948 567 
Q 359 1225 359 2328 
Q 359 3434 948 4092 
Q 1538 4750 2522 4750 
Q 3503 4750 4090 4092 
Q 4678 3434 4678 2328 
Q 4678 1516 4351 937 
Q 4025 359 3406 84 
z
" transform="scale(0.015625)"/>
       <path id="DejaVuSans-67" d="M 2906 1791 
Q 2906 2416 2648 2759 
Q 2391 3103 1925 3103 
Q 1463 3103 1205 2759 
Q 947 2416 947 1791 
Q 947 1169 1205 825 
Q 1463 481 1925 481 
Q 2391 481 2648 825 
Q 2906 1169 2906 1791 
z
M 3481 434 
Q 3481 -459 3084 -895 
Q 2688 -1331 1869 -1331 
Q 1566 -1331 1297 -1286 
Q 1028 -1241 775 -1147 
L 775 -588 
Q 1028 -725 1275 -790 
Q 1522 -856 1778 -856 
Q 2344 -856 2625 -561 
Q 2906 -266 2906 331 
L 2906 616 
Q 2728 306 2450 153 
Q 2172 0 1784 0 
Q 1141 0 747 490 
Q 353 981 353 1791 
Q 353 2603 747 3093 
Q 1141 3584 1784 3584 
Q 2172 3584 2450 3431 
Q 2728 3278 2906 2969 
L 2906 3500 
L 3481 3500 
L 3481 434 
z
" transform="scale(0.015625)"/>
       <path id="DejaVuSans-68" d="M 3513 2113 
L 3513 0 
L 2938 0 
L 2938 2094 
Q 2938 2591 2744 2837 
Q 2550 3084 2163 3084 
Q 1697 3084 1428 2787 
Q 1159 2491 1159 1978 
L 1159 0 
L 581 0 
L 581 4863 
L 1159 4863 
L 1159 2956 
Q 1366 3272 1645 3428 
Q 1925 3584 2291 3584 
Q 2894 3584 3203 3211 
Q 3513 2838 3513 2113 
z
" transform="scale(0.015625)"/>
       <path id="DejaVuSans-6a" d="M 603 3500 
L 1178 3500 
L 1178 -63 
Q 1178 -731 923 -1031 
Q 669 -1331 103 -1331 
L -116 -1331 
L -116 -844 
L 38 -844 
Q 366 -844 484 -692 
Q 603 -541 603 -63 
L 603 3500 
z
M 603 4863 
L 1178 4863 
L 1178 4134 
L 603 4134 
L 603 4863 
z
" transform="scale(0.015625)"/>
       <path id="DejaVuSans-62" d="M 3116 1747 
Q 3116 2381 2855 2742 
Q 2594 3103 2138 3103 
Q 1681 3103 1420 2742 
Q 1159 2381 1159 1747 
Q 1159 1113 1420 752 
Q 1681 391 2138 391 
Q 2594 391 2855 752 
Q 3116 1113 3116 1747 
z
M 1159 2969 
Q 1341 3281 1617 3432 
Q 1894 3584 2278 3584 
Q 2916 3584 3314 3078 
Q 3713 2572 3713 1747 
Q 3713 922 3314 415 
Q 2916 -91 2278 -91 
Q 1894 -91 1617 61 
Q 1341 213 1159 525 
L 1159 0 
L 581 0 
L 581 4863 
L 1159 4863 
L 1159 2969 
z
" transform="scale(0.015625)"/>
      </defs>
      <use xlink:href="#DejaVuSans-51"/>
      <use xlink:href="#DejaVuSans-75" transform="translate(78.710938 0)"/>
      <use xlink:href="#DejaVuSans-65" transform="translate(142.089844 0)"/>
      <use xlink:href="#DejaVuSans-75" transform="translate(203.613281 0)"/>
      <use xlink:href="#DejaVuSans-65" transform="translate(266.992188 0)"/>
      <use xlink:href="#DejaVuSans-20" transform="translate(328.515625 0)"/>
      <use xlink:href="#DejaVuSans-6c" transform="translate(360.302734 0)"/>
      <use xlink:href="#DejaVuSans-65" transform="translate(388.085938 0)"/>
      <use xlink:href="#DejaVuSans-6e" transform="translate(449.609375 0)"/>
      <use xlink:href="#DejaVuSans-67" transform="translate(512.988281 0)"/>
      <use xlink:href="#DejaVuSans-74" transform="translate(576.464844 0)"/>
      <use xlink:href="#DejaVuSans-68" transform="translate(615.673828 0)"/>
      <use xlink:href="#DejaVuSans-20" transform="translate(679.052734 0)"/>
      <use xlink:href="#DejaVuSans-28" transform="translate(710.839844 0)"/>
      <use xlink:href="#DejaVuSans-6a" transform="translate(749.853516 0)"/>
      <use xlink:href="#DejaVuSans-6f" transform="translate(777.636719 0)"/>
      <use xlink:href="#DejaVuSans-62" transform="translate(838.818359 0)"/>
      <use xlink:href="#DejaVuSans-73" transform="translate(902.294922 0)"/>
      <use xlink:href="#DejaVuSans-29" transform="translate(954.394531 0)"/>
     </g>
    </g>
   </g>
   <g id="line2d_17">
    <path d="M 37.090313 187.118438 
L 44.959543 187.118438 
L 52.828774 187.118438 
L 60.698005 152.683655 
L 68.567236 127.431481 
L 76.436466 127.431481 
L 84.305697 143.501046 
L 92.174928 168.75322 
L 100.044159 180.231481 
L 107.913389 184.822785 
L 115.78262 182.527133 
L 123.651851 118.248872 
L 131.521082 141.205394 
L 139.390313 182.527133 
L 147.259543 187.118438 
L 155.128774 187.118438 
L 162.998005 175.640177 
L 170.867236 143.501046 
L 178.736466 127.431481 
L 186.605697 150.388003 
L 194.474928 168.75322 
L 202.344159 182.527133 
L 210.213389 187.118438 
L 218.08262 173.344524 
L 225.951851 152.683655 
L 233.821082 134.318438 
L 241.690313 161.866264 
L 249.559543 180.231481 
L 257.428774 173.344524 
L 265.298005 58.561916 
L 273.167236 51.674959 
L 281.036466 70.040177 
L 288.905697 90.701046 
L 296.774928 109.066264 
L 304.644159 120.544524 
L 312.513389 136.61409 
L 320.38262 164.161916 
L 328.251851 182.527133 
L 336.121082 161.866264 
L 343.990313 182.527133 
" clip-path="url(#paad6403c5d)" style="fill: none; stroke: #1f77b4; stroke-opacity: 0.5; stroke-width: 0.8; stroke-linecap: square"/>
   </g>
   <g id="line2d_18">
    <path d="M 37.090313 182.527133 
L 44.959543 173.344524 
L 52.828774 58.561916 
L 60.698005 56.266264 
L 68.567236 65.448872 
L 76.436466 83.81409 
L 84.305697 95.292351 
L 92.174928 111.361916 
L 100.044159 136.61409 
L 107.913389 154.979307 
L 115.78262 184.822785 
L 123.651851 187.118438 
L 131.521082 171.048872 
L 139.390313 164.161916 
L 147.259543 134.318438 
L 155.128774 150.388003 
L 162.998005 180.231481 
L 170.867236 171.048872 
L 178.736466 129.727133 
L 186.605697 49.379307 
L 194.474928 67.744524 
L 202.344159 102.179307 
L 210.213389 125.135829 
L 218.08262 145.796698 
L 225.951851 171.048872 
L 233.821082 182.527133 
L 241.690313 187.118438 
L 249.559543 166.457568 
L 257.428774 154.979307 
L 265.298005 161.866264 
L 273.167236 177.935829 
L 281.036466 187.118438 
L 288.905697 187.118438 
L 296.774928 177.935829 
L 304.644159 109.066264 
L 312.513389 83.81409 
L 320.38262 111.361916 
L 328.251851 125.135829 
L 336.121082 145.796698 
L 343.990313 164.161916 
" clip-path="url(#paad6403c5d)" style="fill: none; stroke: #ff7f0e; stroke-width: 1.6; stroke-linecap: square"/>
   </g>
   <g id="line2d_19">
    <path d="M 37.090313 182.527133 
L 44.959543 187.118438 
L 52.828774 187.118438 
L 60.698005 180.231481 
L 68.567236 171.048872 
L 76.436466 150.388003 
L 84.305697 166.457568 
L 92.174928 187.118438 
L 100.044159 152.683655 
L 107.913389 143.501046 
L 115.78262 143.501046 
L 123.651851 152.683655 
L 131.521082 173.344524 
L 139.390313 187.118438 
L 147.259543 187.118438 
L 155.128774 143.501046 
L 162.998005 120.544524 
L 170.867236 111.361916 
L 178.736466 143.501046 
L 186.605697 159.570611 
L 194.474928 182.527133 
L 202.344159 187.118438 
L 210.213389 171.048872 
L 218.08262 145.796698 
L 225.951851 159.570611 
L 233.821082 180.231481 
L 241.690313 177.935829 
L 249.559543 173.344524 
L 257.428774 168.75322 
L 265.298005 187.118438 
L 273.167236 187.118438 
L 281.036466 177.935829 
L 288.905697 161.866264 
L 296.774928 180.231481 
L 304.644159 187.118438 
L 312.513389 182.527133 
L 320.38262 168.75322 
L 328.251851 164.161916 
L 336.121082 184.822785 
L 343.990313 187.118438 
" clip-path="url(#paad6403c5d)" style="fill: none; stroke: #2ca02c; stroke-opacity: 0.5; stroke-width: 0.8; stroke-linecap: square"/>
   </g>
   <g id="line2d_20">
    <path d="M 37.090313 184.822785 
L 44.959543 187.118438 
L 52.828774 187.118438 
L 60.698005 168.75322 
L 68.567236 173.344524 
L 76.436466 168.75322 
L 84.305697 187.118438 
L 92.174928 187.118438 
L 100.044159 182.527133 
L 107.913389 161.866264 
L 115.78262 175.640177 
L 123.651851 187.118438 
L 131.521082 177.935829 
L 139.390313 164.161916 
L 147.259543 115.95322 
L 155.128774 150.388003 
L 162.998005 175.640177 
L 170.867236 187.118438 
L 178.736466 187.118438 
L 186.605697 161.866264 
L 194.474928 187.118438 
L 202.344159 184.822785 
L 210.213389 184.822785 
L 218.08262 159.570611 
L 225.951851 157.274959 
L 233.821082 182.527133 
L 241.690313 184.822785 
L 249.559543 180.231481 
L 257.428774 152.683655 
L 265.298005 182.527133 
L 273.167236 187.118438 
L 281.036466 184.822785 
L 288.905697 173.344524 
L 296.774928 132.022785 
L 304.644159 154.979307 
L 312.513389 187.118438 
L 320.38262 168.75322 
L 328.251851 113.657568 
L 336.121082 63.15322 
L 343.990313 90.701046 
" clip-path="url(#paad6403c5d)" style="fill: none; stroke: #d62728; stroke-opacity: 0.5; stroke-width: 0.8; stroke-linecap: square"/>
   </g>
   <g id="line2d_21">
    <path d="M 37.090313 187.118438 
L 44.959543 187.118438 
L 52.828774 187.118438 
L 60.698005 180.231481 
L 68.567236 180.231481 
L 76.436466 157.274959 
L 84.305697 171.048872 
L 92.174928 187.118438 
L 100.044159 180.231481 
L 107.913389 148.092351 
L 115.78262 141.205394 
L 123.651851 159.570611 
L 131.521082 182.527133 
L 139.390313 187.118438 
L 147.259543 187.118438 
L 155.128774 164.161916 
L 162.998005 141.205394 
L 170.867236 154.979307 
L 178.736466 180.231481 
L 186.605697 177.935829 
L 194.474928 102.179307 
L 202.344159 70.040177 
L 210.213389 86.109742 
L 218.08262 113.657568 
L 225.951851 138.909742 
L 233.821082 161.866264 
L 241.690313 187.118438 
L 249.559543 177.935829 
L 257.428774 173.344524 
L 265.298005 177.935829 
L 273.167236 187.118438 
L 281.036466 187.118438 
L 288.905697 171.048872 
L 296.774928 122.840177 
L 304.644159 134.318438 
L 312.513389 161.866264 
L 320.38262 187.118438 
L 328.251851 187.118438 
L 336.121082 173.344524 
L 343.990313 109.066264 
" clip-path="url(#paad6403c5d)" style="fill: none; stroke: #9467bd; stroke-opacity: 0.5; stroke-width: 0.8; stroke-linecap: square"/>
   </g>
   <g id="line2d_22">
    <path d="M 37.090313 177.935829 
L 44.959543 182.527133 
L 52.828774 187.118438 
L 60.698005 187.118438 
L 68.567236 184.822785 
L 76.436466 177.935829 
L 84.305697 159.570611 
L 92.174928 187.118438 
L 100.044159 187.118438 
L 107.913389 187.118438 
L 115.78262 173.344524 
L 123.651851 180.231481 
L 131.521082 187.118438 
L 139.390313 173.344524 
L 147.259543 157.274959 
L 155.128774 106.770611 
L 162.998005 141.205394 
L 170.867236 164.161916 
L 178.736466 187.118438 
L 186.605697 187.118438 
L 194.474928 171.048872 
L 202.344159 175.640177 
L 210.213389 173.344524 
L 218.08262 187.118438 
L 225.951851 187.118438 
L 233.821082 150.388003 
L 241.690313 115.95322 
L 249.559543 136.61409 
L 257.428774 159.570611 
L 265.298005 184.822785 
L 273.167236 159.570611 
L 281.036466 143.501046 
L 288.905697 168.75322 
L 296.774928 187.118438 
L 304.644159 166.457568 
L 312.513389 143.501046 
L 320.38262 143.501046 
L 328.251851 159.570611 
L 336.121082 182.527133 
L 343.990313 187.118438 
" clip-path="url(#paad6403c5d)" style="fill: none; stroke: #8c564b; stroke-opacity: 0.5; stroke-width: 0.8; stroke-linecap: square"/>
   </g>
   <g id="line2d_23">
    <path d="M 37.090313 187.118438 
L 44.959543 168.75322 
L 52.828774 187.118438 
L 60.698005 187.118438 
L 68.567236 175.640177 
L 76.436466 180.231481 
L 84.305697 118.248872 
L 92.174928 138.909742 
L 100.044159 161.866264 
L 107.913389 187.118438 
L 115.78262 187.118438 
L 123.651851 154.979307 
L 131.521082 58.561916 
L 139.390313 63.15322 
L 147.259543 88.405394 
L 155.128774 99.883655 
L 162.998005 120.544524 
L 170.867236 148.092351 
L 178.736466 166.457568 
L 186.605697 173.344524 
L 194.474928 187.118438 
L 202.344159 171.048872 
L 210.213389 168.75322 
L 218.08262 173.344524 
L 225.951851 187.118438 
L 233.821082 187.118438 
L 241.690313 168.75322 
L 249.559543 180.231481 
L 257.428774 187.118438 
L 265.298005 187.118438 
L 273.167236 180.231481 
L 281.036466 164.161916 
L 288.905697 157.274959 
L 296.774928 182.527133 
L 304.644159 187.118438 
L 312.513389 182.527133 
L 320.38262 171.048872 
L 328.251851 187.118438 
L 336.121082 187.118438 
L 343.990313 173.344524 
" clip-path="url(#paad6403c5d)" style="fill: none; stroke: #e377c2; stroke-opacity: 0.5; stroke-width: 0.8; stroke-linecap: square"/>
   </g>
   <g id="line2d_24">
    <path d="M 37.090313 177.935829 
L 44.959543 143.501046 
L 52.828774 152.683655 
L 60.698005 177.935829 
L 68.567236 187.118438 
L 76.436466 187.118438 
L 84.305697 168.75322 
L 92.174928 58.561916 
L 100.044159 28.718438 
L 107.913389 42.492351 
L 115.78262 79.222785 
L 123.651851 104.474959 
L 131.521082 136.61409 
L 139.390313 154.979307 
L 147.259543 175.640177 
L 155.128774 187.118438 
L 162.998005 168.75322 
L 170.867236 152.683655 
L 178.736466 145.796698 
L 186.605697 157.274959 
L 194.474928 180.231481 
L 202.344159 187.118438 
L 210.213389 187.118438 
L 218.08262 168.75322 
L 225.951851 129.727133 
L 233.821082 111.361916 
L 241.690313 134.318438 
L 249.559543 166.457568 
L 257.428774 187.118438 
L 265.298005 187.118438 
L 273.167236 164.161916 
L 281.036466 157.274959 
L 288.905697 161.866264 
L 296.774928 175.640177 
L 304.644159 182.527133 
L 312.513389 152.683655 
L 320.38262 161.866264 
L 328.251851 171.048872 
L 336.121082 187.118438 
L 343.990313 166.457568 
" clip-path="url(#paad6403c5d)" style="fill: none; stroke: #7f7f7f; stroke-width: 1.6; stroke-linecap: square"/>
   </g>
   <g id="patch_3">
    <path d="M 37.090313 187.118438 
L 37.090313 20.798438 
" style="fill: none; stroke: #000000; stroke-width: 0.8; stroke-linejoin: miter; stroke-linecap: square"/>
   </g>
   <g id="patch_4">
    <path d="M 37.090313 187.118438 
L 343.990313 187.118438 
" style="fill: none; stroke: #000000; stroke-width: 0.8; stroke-linejoin: miter; stroke-linecap: square"/>
   </g>
   <g id="text_19">
    <!-- JSQ-stale: per-worker queue depth over time (thundering herd) -->
    <g transform="translate(32.810625 14.798438) scale(0.1 -0.1)">
     <defs>
      <path id="DejaVuSans-4a" d="M 628 4666 
L 1259 4666 
L 1259 325 
Q 1259 -519 939 -900 
Q 619 -1281 -91 -1281 
L -331 -1281 
L -331 -750 
L -134 -750 
Q 284 -750 456 -515 
Q 628 -281 628 325 
L 628 4666 
z
" transform="scale(0.015625)"/>
      <path id="DejaVuSans-2d" d="M 313 2009 
L 1997 2009 
L 1997 1497 
L 313 1497 
L 313 2009 
z
" transform="scale(0.015625)"/>
      <path id="DejaVuSans-3a" d="M 750 794 
L 1409 794 
L 1409 0 
L 750 0 
L 750 794 
z
M 750 3309 
L 1409 3309 
L 1409 2516 
L 750 2516 
L 750 3309 
z
" transform="scale(0.015625)"/>
      <path id="DejaVuSans-70" d="M 1159 525 
L 1159 -1331 
L 581 -1331 
L 581 3500 
L 1159 3500 
L 1159 2969 
Q 1341 3281 1617 3432 
Q 1894 3584 2278 3584 
Q 2916 3584 3314 3078 
Q 3713 2572 3713 1747 
Q 3713 922 3314 415 
Q 2916 -91 2278 -91 
Q 1894 -91 1617 61 
Q 1341 213 1159 525 
z
M 3116 1747 
Q 3116 2381 2855 2742 
Q 2594 3103 2138 3103 
Q 1681 3103 1420 2742 
Q 1159 2381 1159 1747 
Q 1159 1113 1420 752 
Q 1681 391 2138 391 
Q 2594 391 2855 752 
Q 3116 1113 3116 1747 
z
" transform="scale(0.015625)"/>
      <path id="DejaVuSans-72" d="M 2631 2963 
Q 2534 3019 2420 3045 
Q 2306 3072 2169 3072 
Q 1681 3072 1420 2755 
Q 1159 2438 1159 1844 
L 1159 0 
L 581 0 
L 581 3500 
L 1159 3500 
L 1159 2956 
Q 1341 3275 1631 3429 
Q 1922 3584 2338 3584 
Q 2397 3584 2469 3576 
Q 2541 3569 2628 3553 
L 2631 2963 
z
" transform="scale(0.015625)"/>
      <path id="DejaVuSans-77" d="M 269 3500 
L 844 3500 
L 1563 769 
L 2278 3500 
L 2956 3500 
L 3675 769 
L 4391 3500 
L 4966 3500 
L 4050 0 
L 3372 0 
L 2619 2869 
L 1863 0 
L 1184 0 
L 269 3500 
z
" transform="scale(0.015625)"/>
      <path id="DejaVuSans-6b" d="M 581 4863 
L 1159 4863 
L 1159 1991 
L 2875 3500 
L 3609 3500 
L 1753 1863 
L 3688 0 
L 2938 0 
L 1159 1709 
L 1159 0 
L 581 0 
L 581 4863 
z
" transform="scale(0.015625)"/>
      <path id="DejaVuSans-71" d="M 947 1747 
Q 947 1113 1208 752 
Q 1469 391 1925 391 
Q 2381 391 2643 752 
Q 2906 1113 2906 1747 
Q 2906 2381 2643 2742 
Q 2381 3103 1925 3103 
Q 1469 3103 1208 2742 
Q 947 2381 947 1747 
z
M 2906 525 
Q 2725 213 2448 61 
Q 2172 -91 1784 -91 
Q 1150 -91 751 415 
Q 353 922 353 1747 
Q 353 2572 751 3078 
Q 1150 3584 1784 3584 
Q 2172 3584 2448 3432 
Q 2725 3281 2906 2969 
L 2906 3500 
L 3481 3500 
L 3481 -1331 
L 2906 -1331 
L 2906 525 
z
" transform="scale(0.015625)"/>
      <path id="DejaVuSans-64" d="M 2906 2969 
L 2906 4863 
L 3481 4863 
L 3481 0 
L 2906 0 
L 2906 525 
Q 2725 213 2448 61 
Q 2172 -91 1784 -91 
Q 1150 -91 751 415 
Q 353 922 353 1747 
Q 353 2572 751 3078 
Q 1150 3584 1784 3584 
Q 2172 3584 2448 3432 
Q 2725 3281 2906 2969 
z
M 947 1747 
Q 947 1113 1208 752 
Q 1469 391 1925 391 
Q 2381 391 2643 752 
Q 2906 1113 2906 1747 
Q 2906 2381 2643 2742 
Q 2381 3103 1925 3103 
Q 1469 3103 1208 2742 
Q 947 2381 947 1747 
z
" transform="scale(0.015625)"/>
      <path id="DejaVuSans-76" d="M 191 3500 
L 800 3500 
L 1894 563 
L 2988 3500 
L 3597 3500 
L 2284 0 
L 1503 0 
L 191 3500 
z
" transform="scale(0.015625)"/>
     </defs>
     <use xlink:href="#DejaVuSans-4a"/>
     <use xlink:href="#DejaVuSans-53" transform="translate(29.492188 0)"/>
     <use xlink:href="#DejaVuSans-51" transform="translate(92.96875 0)"/>
     <use xlink:href="#DejaVuSans-2d" transform="translate(174.429688 0)"/>
     <use xlink:href="#DejaVuSans-73" transform="translate(210.513672 0)"/>
     <use xlink:href="#DejaVuSans-74" transform="translate(262.613281 0)"/>
     <use xlink:href="#DejaVuSans-61" transform="translate(301.822266 0)"/>
     <use xlink:href="#DejaVuSans-6c" transform="translate(363.101562 0)"/>
     <use xlink:href="#DejaVuSans-65" transform="translate(390.884766 0)"/>
     <use xlink:href="#DejaVuSans-3a" transform="translate(452.408203 0)"/>
     <use xlink:href="#DejaVuSans-20" transform="translate(486.099609 0)"/>
     <use xlink:href="#DejaVuSans-70" transform="translate(517.886719 0)"/>
     <use xlink:href="#DejaVuSans-65" transform="translate(581.363281 0)"/>
     <use xlink:href="#DejaVuSans-72" transform="translate(642.886719 0)"/>
     <use xlink:href="#DejaVuSans-2d" transform="translate(677.625 0)"/>
     <use xlink:href="#DejaVuSans-77" transform="translate(713.708984 0)"/>
     <use xlink:href="#DejaVuSans-6f" transform="translate(795.496094 0)"/>
     <use xlink:href="#DejaVuSans-72" transform="translate(856.677734 0)"/>
     <use xlink:href="#DejaVuSans-6b" transform="translate(897.791016 0)"/>
     <use xlink:href="#DejaVuSans-65" transform="translate(952.076172 0)"/>
     <use xlink:href="#DejaVuSans-72" transform="translate(1013.599609 0)"/>
     <use xlink:href="#DejaVuSans-20" transform="translate(1054.712891 0)"/>
     <use xlink:href="#DejaVuSans-71" transform="translate(1086.5 0)"/>
     <use xlink:href="#DejaVuSans-75" transform="translate(1149.976562 0)"/>
     <use xlink:href="#DejaVuSans-65" transform="translate(1213.355469 0)"/>
     <use xlink:href="#DejaVuSans-75" transform="translate(1274.878906 0)"/>
     <use xlink:href="#DejaVuSans-65" transform="translate(1338.257812 0)"/>
     <use xlink:href="#DejaVuSans-20" transform="translate(1399.78125 0)"/>
     <use xlink:href="#DejaVuSans-64" transform="translate(1431.568359 0)"/>
     <use xlink:href="#DejaVuSans-65" transform="translate(1495.044922 0)"/>
     <use xlink:href="#DejaVuSans-70" transform="translate(1556.568359 0)"/>
     <use xlink:href="#DejaVuSans-74" transform="translate(1620.044922 0)"/>
     <use xlink:href="#DejaVuSans-68" transform="translate(1659.253906 0)"/>
     <use xlink:href="#DejaVuSans-20" transform="translate(1722.632812 0)"/>
     <use xlink:href="#DejaVuSans-6f" transform="translate(1754.419922 0)"/>
     <use xlink:href="#DejaVuSans-76" transform="translate(1815.601562 0)"/>
     <use xlink:href="#DejaVuSans-65" transform="translate(1874.78125 0)"/>
     <use xlink:href="#DejaVuSans-72" transform="translate(1936.304688 0)"/>
     <use xlink:href="#DejaVuSans-20" transform="translate(1977.417969 0)"/>
     <use xlink:href="#DejaVuSans-74" transform="translate(2009.205078 0)"/>
     <use xlink:href="#DejaVuSans-69" transform="translate(2048.414062 0)"/>
     <use xlink:href="#DejaVuSans-6d" transform="translate(2076.197266 0)"/>
     <use xlink:href="#DejaVuSans-65" transform="translate(2173.609375 0)"/>
     <use xlink:href="#DejaVuSans-20" transform="translate(2235.132812 0)"/>
     <use xlink:href="#DejaVuSans-28" transform="translate(2266.919922 0)"/>
     <use xlink:href="#DejaVuSans-74" transform="translate(2305.933594 0)"/>
     <use xlink:href="#DejaVuSans-68" transform="translate(2345.142578 0)"/>
     <use xlink:href="#DejaVuSans-75" transform="translate(2408.521484 0)"/>
     <use xlink:href="#DejaVuSans-6e" transform="translate(2471.900391 0)"/>
     <use xlink:href="#DejaVuSans-64" transform="translate(2535.279297 0)"/>
     <use xlink:href="#DejaVuSans-65" transform="translate(2598.755859 0)"/>
     <use xlink:href="#DejaVuSans-72" transform="translate(2660.279297 0)"/>
     <use xlink:href="#DejaVuSans-69" transform="translate(2701.392578 0)"/>
     <use xlink:href="#DejaVuSans-6e" transform="translate(2729.175781 0)"/>
     <use xlink:href="#DejaVuSans-67" transform="translate(2792.554688 0)"/>
     <use xlink:href="#DejaVuSans-20" transform="translate(2856.03125 0)"/>
     <use xlink:href="#DejaVuSans-68" transform="translate(2887.818359 0)"/>
     <use xlink:href="#DejaVuSans-65" transform="translate(2951.197266 0)"/>
     <use xlink:href="#DejaVuSans-72" transform="translate(3012.720703 0)"/>
     <use xlink:href="#DejaVuSans-64" transform="translate(3052.083984 0)"/>
     <use xlink:href="#DejaVuSans-29" transform="translate(3115.560547 0)"/>
    </g>
   </g>
   <g id="legend_1">
    <g id="patch_5">
     <path d="M 163.390313 46.947812 
L 339.090313 46.947812 
Q 340.490313 46.947812 340.490313 45.547812 
L 340.490313 25.698437 
Q 340.490313 24.298437 339.090313 24.298437 
L 163.390313 24.298437 
Q 161.990313 24.298437 161.990313 25.698437 
L 161.990313 45.547812 
Q 161.990313 46.947812 163.390313 46.947812 
z
" style="fill: #ffffff; opacity: 0.7; stroke: #cccccc; stroke-linejoin: miter"/>
    </g>
    <g id="line2d_25">
     <path d="M 164.790313 29.967344 
L 171.790313 29.967344 
L 178.790313 29.967344 
" style="fill: none; stroke: #1f77b4; stroke-opacity: 0.5; stroke-width: 0.8; stroke-linecap: square"/>
    </g>
    <g id="text_20">
     <!-- W0 -->
     <g transform="translate(184.390313 32.417344) scale(0.07 -0.07)">
      <defs>
       <path id="DejaVuSans-57" d="M 213 4666 
L 850 4666 
L 1831 722 
L 2809 4666 
L 3519 4666 
L 4500 722 
L 5478 4666 
L 6119 4666 
L 4947 0 
L 4153 0 
L 3169 4050 
L 2175 0 
L 1381 0 
L 213 4666 
z
" transform="scale(0.015625)"/>
      </defs>
      <use xlink:href="#DejaVuSans-57"/>
      <use xlink:href="#DejaVuSans-30" transform="translate(98.876953 0)"/>
     </g>
    </g>
    <g id="line2d_26">
     <path d="M 164.790313 40.242031 
L 171.790313 40.242031 
L 178.790313 40.242031 
" style="fill: none; stroke: #ff7f0e; stroke-width: 1.6; stroke-linecap: square"/>
    </g>
    <g id="text_21">
     <!-- W1* -->
     <g transform="translate(184.390313 42.692031) scale(0.07 -0.07)">
      <defs>
       <path id="DejaVuSans-2a" d="M 3009 3897 
L 1888 3291 
L 3009 2681 
L 2828 2375 
L 1778 3009 
L 1778 1831 
L 1422 1831 
L 1422 3009 
L 372 2375 
L 191 2681 
L 1313 3291 
L 191 3897 
L 372 4206 
L 1422 3572 
L 1422 4750 
L 1778 4750 
L 1778 3572 
L 2828 4206 
L 3009 3897 
z
" transform="scale(0.015625)"/>
      </defs>
      <use xlink:href="#DejaVuSans-57"/>
      <use xlink:href="#DejaVuSans-31" transform="translate(98.876953 0)"/>
      <use xlink:href="#DejaVuSans-2a" transform="translate(162.5 0)"/>
     </g>
    </g>
    <g id="line2d_27">
     <path d="M 213.265313 29.967344 
L 220.265313 29.967344 
L 227.265313 29.967344 
" style="fill: none; stroke: #2ca02c; stroke-opacity: 0.5; stroke-width: 0.8; stroke-linecap: square"/>
    </g>
    <g id="text_22">
     <!-- W2 -->
     <g transform="translate(232.865313 32.417344) scale(0.07 -0.07)">
      <use xlink:href="#DejaVuSans-57"/>
      <use xlink:href="#DejaVuSans-32" transform="translate(98.876953 0)"/>
     </g>
    </g>
    <g id="line2d_28">
     <path d="M 213.265313 40.242031 
L 220.265313 40.242031 
L 227.265313 40.242031 
" style="fill: none; stroke: #d62728; stroke-opacity: 0.5; stroke-width: 0.8; stroke-linecap: square"/>
    </g>
    <g id="text_23">
     <!-- W3 -->
     <g transform="translate(232.865313 42.692031) scale(0.07 -0.07)">
      <use xlink:href="#DejaVuSans-57"/>
      <use xlink:href="#DejaVuSans-33" transform="translate(98.876953 0)"/>
     </g>
    </g>
    <g id="line2d_29">
     <path d="M 258.240313 29.967344 
L 265.240313 29.967344 
L 272.240313 29.967344 
" style="fill: none; stroke: #9467bd; stroke-opacity: 0.5; stroke-width: 0.8; stroke-linecap: square"/>
    </g>
    <g id="text_24">
     <!-- W4 -->
     <g transform="translate(277.840313 32.417344) scale(0.07 -0.07)">
      <use xlink:href="#DejaVuSans-57"/>
      <use xlink:href="#DejaVuSans-34" transform="translate(98.876953 0)"/>
     </g>
    </g>
    <g id="line2d_30">
     <path d="M 258.240313 40.242031 
L 265.240313 40.242031 
L 272.240313 40.242031 
" style="fill: none; stroke: #8c564b; stroke-opacity: 0.5; stroke-width: 0.8; stroke-linecap: square"/>
    </g>
    <g id="text_25">
     <!-- W5 -->
     <g transform="translate(277.840313 42.692031) scale(0.07 -0.07)">
      <use xlink:href="#DejaVuSans-57"/>
      <use xlink:href="#DejaVuSans-35" transform="translate(98.876953 0)"/>
     </g>
    </g>
    <g id="line2d_31">
     <path d="M 303.215313 29.967344 
L 310.215313 29.967344 
L 317.215313 29.967344 
" style="fill: none; stroke: #e377c2; stroke-opacity: 0.5; stroke-width: 0.8; stroke-linecap: square"/>
    </g>
    <g id="text_26">
     <!-- W6 -->
     <g transform="translate(322.815313 32.417344) scale(0.07 -0.07)">
      <use xlink:href="#DejaVuSans-57"/>
      <use xlink:href="#DejaVuSans-36" transform="translate(98.876953 0)"/>
     </g>
    </g>
    <g id="line2d_32">
     <path d="M 303.215313 40.242031 
L 310.215313 40.242031 
L 317.215313 40.242031 
" style="fill: none; stroke: #7f7f7f; stroke-width: 1.6; stroke-linecap: square"/>
    </g>
    <g id="text_27">
     <!-- W7* -->
     <g transform="translate(322.815313 42.692031) scale(0.07 -0.07)">
      <use xlink:href="#DejaVuSans-57"/>
      <use xlink:href="#DejaVuSans-37" transform="translate(98.876953 0)"/>
      <use xlink:href="#DejaVuSans-2a" transform="translate(162.5 0)"/>
     </g>
    </g>
   </g>
  </g>
 </g>
 <defs>
  <clipPath id="paad6403c5d">
   <rect x="37.090313" y="20.798438" width="306.9" height="166.32"/>
  </clipPath>
 </defs>
</svg>
